{"glyphs":{"0":{"ha":958,"x_min":57,"x_max":900,"o":"m 479 972 q 643 934 565 972 q 777 831 721 896 q 867 675 833 765 q 900 486 900 585 q 844 242 900 354 q 690 65 788 131 q 478 0 593 0 q 267 65 364 0 q 113 242 169 131 q 57 486 57 354 q 113 730 57 618 q 267 907 169 842 q 479 972 364 972 m 479 24 q 583 158 540 24 q 626 486 626 293 q 583 814 626 679 q 479 949 540 949 q 375 814 418 949 q 332 486 332 679 q 351 253 332 360 q 405 85 371 146 q 479 24 439 24 z "},"1":{"ha":531,"x_min":56,"x_max":476,"o":"m 403 96 q 424 44 403 65 q 476 24 446 24 l 476 0 l 56 0 l 56 24 q 108 44 86 24 q 129 96 129 65 l 129 811 q 108 861 129 840 q 56 882 86 882 l 56 907 l 403 972 l 403 96 z "},"2":{"ha":844,"x_min":61,"x_max":779,"o":"m 63 669 q 120 838 65 767 q 255 940 175 908 q 426 972 335 972 q 597 939 518 972 q 728 836 676 906 q 778 674 779 767 q 752 536 776 596 q 688 442 728 476 q 596 383 649 407 q 488 349 543 358 q 374 331 432 339 q 267 318 315 322 q 178 303 218 314 q 118 275 138 292 l 682 275 q 733 297 713 275 q 754 347 754 318 l 778 347 l 778 0 l 63 0 l 63 118 q 63 150 63 129 q 63 181 63 171 q 63 210 63 192 q 67 238 64 228 q 74 263 69 249 q 85 288 78 278 q 102 309 92 299 q 125 328 113 319 q 189 360 147 342 q 264 394 231 379 q 338 438 297 410 q 406 501 378 467 q 456 592 435 535 q 481 722 476 650 q 469 886 488 824 q 422 949 451 949 q 385 926 403 949 q 352 852 368 904 q 326 724 336 800 q 314 521 314 635 q 244 494 289 496 q 108 543 156 493 q 63 669 61 593 z "},"3":{"ha":881,"x_min":54,"x_max":828,"o":"m 825 226 q 785 123 822 168 q 689 52 749 78 q 560 13 629 26 q 418 0 492 0 q 237 25 318 0 q 105 101 156 50 q 56 221 54 151 q 106 336 57 290 q 238 371 156 382 q 300 343 278 365 q 294 217 293 271 q 335 69 299 119 q 418 19 371 19 q 509 85 469 19 q 547 254 549 150 q 531 356 547 314 q 493 419 515 397 q 433 453 471 440 q 367 468 394 465 q 294 471 339 471 l 294 494 q 459 560 415 494 q 496 751 503 625 q 467 899 492 847 q 406 950 442 951 q 347 894 372 949 q 325 742 321 839 q 342 575 328 699 q 263 549 315 547 q 138 599 181 551 q 96 717 96 647 q 194 901 97 832 q 426 972 290 969 q 551 960 492 974 q 661 919 611 947 q 741 842 711 892 q 771 728 771 793 q 709 575 771 644 q 540 492 647 506 l 540 474 q 753 392 678 465 q 825 226 828 319 z "},"4":{"ha":853,"x_min":44,"x_max":800,"o":"m 453 393 l 44 393 l 44 418 q 122 462 96 418 q 148 571 147 506 q 138 706 149 636 q 108 833 126 776 q 74 911 90 889 q 282 972 200 972 q 391 933 349 972 q 439 807 433 893 q 365 549 449 649 q 139 418 282 449 l 453 418 l 453 611 l 800 611 l 800 588 q 763 578 781 588 q 736 553 746 569 q 726 515 726 536 l 726 418 l 800 418 l 800 393 l 726 393 l 726 96 q 748 44 726 65 q 800 24 769 24 l 800 0 l 379 0 l 379 24 q 431 44 410 24 q 453 96 453 65 l 453 393 z "},"5":{"ha":819,"x_min":50,"x_max":767,"o":"m 51 238 q 79 317 50 283 q 149 363 108 350 q 231 370 189 375 q 296 343 272 365 q 292 221 289 286 q 324 72 297 122 q 389 24 351 22 q 471 104 439 26 q 499 278 503 182 q 463 414 494 356 q 382 500 431 472 q 270 520 333 528 q 144 465 207 513 l 126 482 l 210 972 l 661 972 l 661 625 l 638 625 q 617 676 638 654 q 565 697 596 697 l 188 697 l 156 504 q 288 551 210 538 q 449 553 367 565 q 603 508 532 540 q 721 413 675 476 q 767 267 767 349 q 735 146 767 199 q 651 63 703 93 q 537 16 599 32 q 408 0 475 0 q 235 28 315 0 q 104 110 156 56 q 51 238 53 165 z "},"6":{"ha":835,"x_min":56,"x_max":788,"o":"m 343 403 q 431 445 379 428 q 540 465 483 463 q 647 453 597 467 q 732 397 697 439 q 772 290 767 356 q 758 190 776 240 q 704 96 740 139 q 608 26 668 53 q 472 0 547 0 q 294 40 374 0 q 164 148 214 81 q 86 299 114 215 q 57 475 58 383 q 81 657 56 569 q 157 816 107 744 q 289 930 207 888 q 472 972 371 972 q 721 849 636 972 q 767 642 788 751 q 656 506 746 538 q 585 496 624 494 q 515 521 540 496 q 521 601 517 549 q 528 745 526 700 q 528 847 531 790 q 513 926 526 904 q 472 949 499 949 q 394 864 426 949 q 349 657 361 779 q 343 403 338 535 m 472 24 q 523 92 504 24 q 536 240 542 160 q 476 384 528 343 q 344 374 425 425 q 368 199 351 278 q 412 72 385 121 q 472 24 439 24 z "},"7":{"ha":757,"x_min":53,"x_max":708,"o":"m 685 697 q 662 697 685 697 q 599 697 639 697 q 511 697 558 697 q 408 697 464 697 q 306 697 353 697 q 215 697 260 697 q 149 697 169 697 q 120 692 133 697 q 97 676 107 686 q 82 653 88 667 q 76 625 76 639 l 53 625 l 53 972 l 708 972 l 708 697 q 478 93 472 414 q 499 44 478 64 q 551 24 521 24 l 551 0 l 129 0 l 129 24 q 180 42 158 24 q 204 88 201 61 q 345 457 217 294 q 685 697 474 619 z "},"8":{"ha":876,"x_min":56,"x_max":821,"o":"m 533 478 q 745 403 669 469 q 821 249 821 336 q 763 110 819 168 q 622 26 707 53 q 438 0 536 0 q 313 14 376 0 q 190 55 250 28 q 93 133 131 82 q 56 253 56 185 q 131 404 56 339 q 340 478 207 469 l 340 496 q 166 576 226 511 q 108 725 106 640 q 139 833 110 785 q 215 912 168 882 q 321 957 263 942 q 442 972 379 972 q 597 944 525 971 q 717 858 669 917 q 765 719 765 799 q 741 620 765 667 q 663 540 717 574 q 533 496 610 506 l 533 478 m 442 949 q 410 924 425 949 q 385 847 396 900 q 372 721 374 793 q 388 564 371 629 q 437 499 404 499 q 487 563 469 499 q 503 719 504 628 q 484 888 501 828 q 442 949 467 949 m 439 24 q 511 83 481 24 q 543 249 542 143 q 517 408 544 340 q 436 475 489 475 q 359 409 386 475 q 333 251 332 343 q 366 84 335 144 q 439 24 397 24 z "},"9":{"ha":835,"x_min":58,"x_max":779,"o":"m 361 972 q 508 946 440 972 q 624 874 576 919 q 707 768 672 829 q 758 639 742 707 q 776 497 775 571 q 753 315 779 403 q 676 157 726 228 q 544 43 626 86 q 361 0 463 0 q 231 25 290 0 q 137 91 172 50 q 82 181 101 132 q 63 278 63 229 q 112 415 63 360 q 250 467 161 469 q 318 442 293 467 q 313 357 317 413 q 305 116 297 208 q 361 24 313 24 q 440 106 408 24 q 484 308 472 188 q 490 560 496 428 q 403 517 454 533 q 294 498 351 500 q 188 510 238 496 q 102 565 138 524 q 63 672 67 607 q 76 774 58 722 q 129 871 93 826 q 226 944 165 915 q 361 972 288 972 m 299 721 q 357 578 306 619 q 489 589 408 538 q 445 844 479 739 q 361 949 411 949 q 310 876 329 949 q 299 721 292 803 z "},"\u000b":{"ha":732,"x_min":69,"x_max":663,"o":"m 69 972 l 663 972 l 663 0 l 69 0 l 69 972 m 108 944 l 365 515 l 624 944 l 108 944 m 349 486 l 99 903 l 99 68 l 349 486 m 367 457 l 110 29 l 624 29 l 367 457 m 383 486 l 635 65 l 635 906 l 383 486 z "},"\f":{"ha":732,"x_min":69,"x_max":663,"o":"m 69 972 l 663 972 l 663 0 l 69 0 l 69 972 m 108 944 l 365 515 l 624 944 l 108 944 m 349 486 l 99 903 l 99 68 l 349 486 m 367 457 l 110 29 l 624 29 l 367 457 m 383 486 l 635 65 l 635 906 l 383 486 z "},"¢":{"ha":732,"x_min":69,"x_max":663,"o":"m 69 972 l 663 972 l 663 0 l 69 0 l 69 972 m 108 944 l 365 515 l 624 944 l 108 944 m 349 486 l 99 903 l 99 68 l 349 486 m 367 457 l 110 29 l 624 29 l 367 457 m 383 486 l 635 65 l 635 906 l 383 486 z "},"£":{"ha":732,"x_min":69,"x_max":663,"o":"m 69 972 l 663 972 l 663 0 l 69 0 l 69 972 m 108 944 l 365 515 l 624 944 l 108 944 m 349 486 l 99 903 l 99 68 l 349 486 m 367 457 l 110 29 l 624 29 l 367 457 m 383 486 l 635 65 l 635 906 l 383 486 z "},"·":{"ha":732,"x_min":69,"x_max":663,"o":"m 69 972 l 663 972 l 663 0 l 69 0 l 69 972 m 108 944 l 365 515 l 624 944 l 108 944 m 349 486 l 99 903 l 99 68 l 349 486 m 367 457 l 110 29 l 624 29 l 367 457 m 383 486 l 635 65 l 635 906 l 383 486 z "},"¸":{"ha":732,"x_min":69,"x_max":663,"o":"m 69 972 l 663 972 l 663 0 l 69 0 l 69 972 m 108 944 l 365 515 l 624 944 l 108 944 m 349 486 l 99 903 l 99 68 l 349 486 m 367 457 l 110 29 l 624 29 l 367 457 m 383 486 l 635 65 l 635 906 l 383 486 z "},"Ĕ":{"ha":732,"x_min":69,"x_max":663,"o":"m 69 972 l 663 972 l 663 0 l 69 0 l 69 972 m 108 944 l 365 515 l 624 944 l 108 944 m 349 486 l 99 903 l 99 68 l 349 486 m 367 457 l 110 29 l 624 29 l 367 457 m 383 486 l 635 65 l 635 906 l 383 486 z "},"ĕ":{"ha":732,"x_min":69,"x_max":663,"o":"m 69 972 l 663 972 l 663 0 l 69 0 l 69 972 m 108 944 l 365 515 l 624 944 l 108 944 m 349 486 l 99 903 l 99 68 l 349 486 m 367 457 l 110 29 l 624 29 l 367 457 m 383 486 l 635 65 l 635 906 l 383 486 z "},"Ę":{"ha":732,"x_min":69,"x_max":663,"o":"m 69 972 l 663 972 l 663 0 l 69 0 l 69 972 m 108 944 l 365 515 l 624 944 l 108 944 m 349 486 l 99 903 l 99 68 l 349 486 m 367 457 l 110 29 l 624 29 l 367 457 m 383 486 l 635 65 l 635 906 l 383 486 z "},"ę":{"ha":732,"x_min":69,"x_max":663,"o":"m 69 972 l 663 972 l 663 0 l 69 0 l 69 972 m 108 944 l 365 515 l 624 944 l 108 944 m 349 486 l 99 903 l 99 68 l 349 486 m 367 457 l 110 29 l 624 29 l 367 457 m 383 486 l 635 65 l 635 906 l 383 486 z "},"Ğ":{"ha":732,"x_min":69,"x_max":663,"o":"m 69 972 l 663 972 l 663 0 l 69 0 l 69 972 m 108 944 l 365 515 l 624 944 l 108 944 m 349 486 l 99 903 l 99 68 l 349 486 m 367 457 l 110 29 l 624 29 l 367 457 m 383 486 l 635 65 l 635 906 l 383 486 z "},"ğ":{"ha":732,"x_min":69,"x_max":663,"o":"m 69 972 l 663 972 l 663 0 l 69 0 l 69 972 m 108 944 l 365 515 l 624 944 l 108 944 m 349 486 l 99 903 l 99 68 l 349 486 m 367 457 l 110 29 l 624 29 l 367 457 m 383 486 l 635 65 l 635 906 l 383 486 z "},"Ŀ":{"ha":732,"x_min":69,"x_max":663,"o":"m 69 972 l 663 972 l 663 0 l 69 0 l 69 972 m 108 944 l 365 515 l 624 944 l 108 944 m 349 486 l 99 903 l 99 68 l 349 486 m 367 457 l 110 29 l 624 29 l 367 457 m 383 486 l 635 65 l 635 906 l 383 486 z "},"ŀ":{"ha":732,"x_min":69,"x_max":663,"o":"m 69 972 l 663 972 l 663 0 l 69 0 l 69 972 m 108 944 l 365 515 l 624 944 l 108 944 m 349 486 l 99 903 l 99 68 l 349 486 m 367 457 l 110 29 l 624 29 l 367 457 m 383 486 l 635 65 l 635 906 l 383 486 z "},"Ņ":{"ha":732,"x_min":69,"x_max":663,"o":"m 69 972 l 663 972 l 663 0 l 69 0 l 69 972 m 108 944 l 365 515 l 624 944 l 108 944 m 349 486 l 99 903 l 99 68 l 349 486 m 367 457 l 110 29 l 624 29 l 367 457 m 383 486 l 635 65 l 635 906 l 383 486 z "},"ņ":{"ha":732,"x_min":69,"x_max":663,"o":"m 69 972 l 663 972 l 663 0 l 69 0 l 69 972 m 108 944 l 365 515 l 624 944 l 108 944 m 349 486 l 99 903 l 99 68 l 349 486 m 367 457 l 110 29 l 624 29 l 367 457 m 383 486 l 635 65 l 635 906 l 383 486 z "},"Ŷ":{"ha":732,"x_min":69,"x_max":663,"o":"m 69 972 l 663 972 l 663 0 l 69 0 l 69 972 m 108 944 l 365 515 l 624 944 l 108 944 m 349 486 l 99 903 l 99 68 l 349 486 m 367 457 l 110 29 l 624 29 l 367 457 m 383 486 l 635 65 l 635 906 l 383 486 z "},"ŷ":{"ha":732,"x_min":69,"x_max":663,"o":"m 69 972 l 663 972 l 663 0 l 69 0 l 69 972 m 108 944 l 365 515 l 624 944 l 108 944 m 349 486 l 99 903 l 99 68 l 349 486 m 367 457 l 110 29 l 624 29 l 367 457 m 383 486 l 635 65 l 635 906 l 383 486 z "},"Ż":{"ha":732,"x_min":69,"x_max":663,"o":"m 69 972 l 663 972 l 663 0 l 69 0 l 69 972 m 108 944 l 365 515 l 624 944 l 108 944 m 349 486 l 99 903 l 99 68 l 349 486 m 367 457 l 110 29 l 624 29 l 367 457 m 383 486 l 635 65 l 635 906 l 383 486 z "},"ż":{"ha":732,"x_min":69,"x_max":663,"o":"m 69 972 l 663 972 l 663 0 l 69 0 l 69 972 m 108 944 l 365 515 l 624 944 l 108 944 m 349 486 l 99 903 l 99 68 l 349 486 m 367 457 l 110 29 l 624 29 l 367 457 m 383 486 l 635 65 l 635 906 l 383 486 z "},"Ḽ":{"ha":732,"x_min":69,"x_max":663,"o":"m 69 972 l 663 972 l 663 0 l 69 0 l 69 972 m 108 944 l 365 515 l 624 944 l 108 944 m 349 486 l 99 903 l 99 68 l 349 486 m 367 457 l 110 29 l 624 29 l 367 457 m 383 486 l 635 65 l 635 906 l 383 486 z "},"ḽ":{"ha":732,"x_min":69,"x_max":663,"o":"m 69 972 l 663 972 l 663 0 l 69 0 l 69 972 m 108 944 l 365 515 l 624 944 l 108 944 m 349 486 l 99 903 l 99 68 l 349 486 m 367 457 l 110 29 l 624 29 l 367 457 m 383 486 l 635 65 l 635 906 l 383 486 z "},"‚":{"ha":732,"x_min":69,"x_max":663,"o":"m 69 972 l 663 972 l 663 0 l 69 0 l 69 972 m 108 944 l 365 515 l 624 944 l 108 944 m 349 486 l 99 903 l 99 68 l 349 486 m 367 457 l 110 29 l 624 29 l 367 457 m 383 486 l 635 65 l 635 906 l 383 486 z "},"‛":{"ha":732,"x_min":69,"x_max":663,"o":"m 69 972 l 663 972 l 663 0 l 69 0 l 69 972 m 108 944 l 365 515 l 624 944 l 108 944 m 349 486 l 99 903 l 99 68 l 349 486 m 367 457 l 110 29 l 624 29 l 367 457 m 383 486 l 635 65 l 635 906 l 383 486 z "},"„":{"ha":732,"x_min":69,"x_max":663,"o":"m 69 972 l 663 972 l 663 0 l 69 0 l 69 972 m 108 944 l 365 515 l 624 944 l 108 944 m 349 486 l 99 903 l 99 68 l 349 486 m 367 457 l 110 29 l 624 29 l 367 457 m 383 486 l 635 65 l 635 906 l 383 486 z "},"‟":{"ha":732,"x_min":69,"x_max":663,"o":"m 69 972 l 663 972 l 663 0 l 69 0 l 69 972 m 108 944 l 365 515 l 624 944 l 108 944 m 349 486 l 99 903 l 99 68 l 349 486 m 367 457 l 110 29 l 624 29 l 367 457 m 383 486 l 635 65 l 635 906 l 383 486 z "},"‱":{"ha":732,"x_min":69,"x_max":663,"o":"m 69 972 l 663 972 l 663 0 l 69 0 l 69 972 m 108 944 l 365 515 l 624 944 l 108 944 m 349 486 l 99 903 l 99 68 l 349 486 m 367 457 l 110 29 l 624 29 l 367 457 m 383 486 l 635 65 l 635 906 l 383 486 z "},"₤":{"ha":732,"x_min":69,"x_max":663,"o":"m 69 972 l 663 972 l 663 0 l 69 0 l 69 972 m 108 944 l 365 515 l 624 944 l 108 944 m 349 486 l 99 903 l 99 68 l 349 486 m 367 457 l 110 29 l 624 29 l 367 457 m 383 486 l 635 65 l 635 906 l 383 486 z "},"₥":{"ha":732,"x_min":69,"x_max":663,"o":"m 69 972 l 663 972 l 663 0 l 69 0 l 69 972 m 108 944 l 365 515 l 624 944 l 108 944 m 349 486 l 99 903 l 99 68 l 349 486 m 367 457 l 110 29 l 624 29 l 367 457 m 383 486 l 635 65 l 635 906 l 383 486 z "},"₪":{"ha":732,"x_min":69,"x_max":663,"o":"m 69 972 l 663 972 l 663 0 l 69 0 l 69 972 m 108 944 l 365 515 l 624 944 l 108 944 m 349 486 l 99 903 l 99 68 l 349 486 m 367 457 l 110 29 l 624 29 l 367 457 m 383 486 l 635 65 l 635 906 l 383 486 z "},"₫":{"ha":732,"x_min":69,"x_max":663,"o":"m 69 972 l 663 972 l 663 0 l 69 0 l 69 972 m 108 944 l 365 515 l 624 944 l 108 944 m 349 486 l 99 903 l 99 68 l 349 486 m 367 457 l 110 29 l 624 29 l 367 457 m 383 486 l 635 65 l 635 906 l 383 486 z "},"≡":{"ha":732,"x_min":69,"x_max":663,"o":"m 69 972 l 663 972 l 663 0 l 69 0 l 69 972 m 108 944 l 365 515 l 624 944 l 108 944 m 349 486 l 99 903 l 99 68 l 349 486 m 367 457 l 110 29 l 624 29 l 367 457 m 383 486 l 635 65 l 635 906 l 383 486 z "},"≢":{"ha":732,"x_min":69,"x_max":663,"o":"m 69 972 l 663 972 l 663 0 l 69 0 l 69 972 m 108 944 l 365 515 l 624 944 l 108 944 m 349 486 l 99 903 l 99 68 l 349 486 m 367 457 l 110 29 l 624 29 l 367 457 m 383 486 l 635 65 l 635 906 l 383 486 z "},"≣":{"ha":732,"x_min":69,"x_max":663,"o":"m 69 972 l 663 972 l 663 0 l 69 0 l 69 972 m 108 944 l 365 515 l 624 944 l 108 944 m 349 486 l 99 903 l 99 68 l 349 486 m 367 457 l 110 29 l 624 29 l 367 457 m 383 486 l 635 65 l 635 906 l 383 486 z "},"\u0000":{"ha":0,"x_min":0,"x_max":0,"o":""},"\n":{"ha":0,"x_min":0,"x_max":0,"o":""},"\r":{"ha":0,"x_min":0,"x_max":0,"o":""}," ":{"ha":347,"x_min":0,"x_max":0,"o":""},"!":{"ha":399,"x_min":-72,"x_max":469,"o":"m 211 243 l 188 243 q 178 272 185 251 q 199 989 -72 989 q 221 272 469 989 q 211 243 214 251 m 199 219 q 277 188 244 219 q 308 110 310 156 q 294 55 308 81 q 254 15 279 29 q 199 0 229 0 q 122 32 154 0 q 89 110 89 64 q 103 165 89 140 q 144 205 118 190 q 199 219 169 219 z "},"\"":{"ha":451,"x_min":43,"x_max":411,"o":"m 171 972 q 219 953 199 972 q 238 903 239 933 q 204 846 236 872 q 158 806 183 826 q 106 766 132 786 q 58 726 81 746 q 43 736 54 729 q 67 819 53 767 q 92 901 82 871 q 171 972 115 974 m 340 972 q 378 960 361 972 q 403 931 394 949 q 405 889 411 913 q 375 846 399 865 q 301 785 347 822 q 229 726 254 749 q 213 736 224 729 q 237 819 222 767 q 261 901 251 871 q 340 972 285 974 z "},"#":{"ha":1060,"x_min":51,"x_max":1007,"o":"m 1007 949 q 953 928 976 949 q 926 876 929 907 l 896 563 l 1007 563 l 1007 539 l 893 539 l 883 435 l 1007 435 l 1007 411 l 881 411 l 850 96 q 857 60 849 76 q 881 33 865 43 q 917 24 896 24 l 917 0 l 567 0 l 607 411 l 438 411 l 407 96 q 422 44 403 65 q 472 24 442 24 l 472 0 l 51 0 l 51 24 q 106 44 82 24 q 132 96 129 65 l 163 411 l 51 411 l 51 435 l 165 435 l 175 539 l 51 539 l 51 563 l 178 563 l 208 876 q 192 928 211 907 q 142 949 172 949 l 142 972 l 492 972 l 451 563 l 621 563 l 651 876 q 635 928 654 907 q 585 949 615 949 l 585 972 l 1007 972 l 1007 949 m 608 435 l 618 539 l 450 539 l 439 435 l 608 435 z "},"$":{"ha":854,"x_min":60,"x_max":794,"o":"m 422 631 q 499 581 451 610 q 583 533 547 553 q 660 483 619 513 q 727 424 700 453 q 772 356 754 396 q 792 274 790 317 q 764 149 793 204 q 684 62 735 94 q 572 12 633 29 q 446 -6 511 -6 q 422 -6 433 -6 l 422 -171 l 397 -171 l 397 -4 q 229 28 304 1 q 107 110 154 56 q 61 239 60 165 q 110 351 63 307 q 243 392 157 394 q 311 368 288 392 q 308 290 306 339 q 317 193 311 240 q 344 101 324 146 q 397 36 365 57 l 397 356 q 334 393 374 369 q 267 433 294 417 q 206 472 240 449 q 149 517 172 496 q 105 566 126 539 q 73 624 83 593 q 61 690 63 656 q 88 813 60 758 q 165 899 117 867 q 274 949 214 932 q 397 969 333 967 l 397 1132 l 422 1132 l 422 968 q 604 941 522 967 q 740 859 686 915 q 792 725 794 803 q 743 613 790 657 q 611 572 696 569 q 542 596 567 572 q 544 684 549 629 q 531 791 540 739 q 494 886 522 843 q 422 940 465 929 l 422 631 m 397 649 l 399 649 l 399 943 q 393 943 394 943 q 319 915 350 943 q 288 840 289 888 q 397 649 285 735 m 460 18 q 533 47 503 18 q 565 124 564 76 q 530 241 568 190 q 422 339 492 292 l 422 25 q 460 18 440 18 z "},"%":{"ha":1507,"x_min":53,"x_max":1453,"o":"m 149 862 q 197 917 149 862 q 380 972 244 972 q 612 862 515 972 q 708 595 708 751 q 611 328 707 439 q 380 218 515 218 q 149 328 244 218 q 53 595 53 439 q 149 862 53 751 m 299 341 q 316 289 299 341 q 381 236 333 236 q 461 341 428 236 q 494 596 494 446 q 461 850 494 746 q 381 954 428 954 q 299 850 333 954 q 265 596 265 746 q 299 341 265 446 m 856 972 l 879 972 l 650 0 l 626 0 l 856 972 m 894 644 q 942 700 894 644 q 1126 756 990 756 q 1357 644 1261 756 q 1453 377 1453 533 q 1357 110 1453 221 q 1126 0 1261 0 q 894 110 990 0 q 799 377 799 221 q 894 644 799 533 m 1126 19 q 1207 124 1174 19 q 1240 378 1240 228 q 1207 632 1240 528 q 1126 736 1174 736 q 1044 632 1078 736 q 1011 378 1011 528 q 1026 197 1011 279 q 1068 67 1042 114 q 1126 19 1094 19 z "},"&":{"ha":1551,"x_min":46,"x_max":1529,"o":"m 1167 588 q 1457 499 1368 611 q 1490 282 1529 408 q 1311 69 1450 147 q 1021 0 1189 0 q 781 58 899 1 q 579 222 664 115 q 515 149 553 196 q 454 74 478 101 q 385 24 431 47 q 285 0 340 1 q 117 67 188 0 q 46 247 46 135 q 114 419 46 346 q 296 493 182 493 q 461 421 375 493 q 407 697 403 565 q 489 892 413 811 q 694 972 565 972 q 960 901 861 972 q 1063 738 1058 831 q 1017 614 1065 663 q 876 568 969 565 q 807 594 832 569 q 781 867 807 785 q 694 949 754 949 q 646 842 639 949 q 750 543 657 704 q 824 438 785 485 q 887 487 849 463 q 970 531 925 511 q 1067 567 1015 551 q 1167 588 1118 582 m 399 153 q 465 166 432 151 q 517 197 497 181 q 564 242 538 214 q 528 301 560 247 q 467 385 497 356 q 406 415 438 415 q 358 388 379 415 q 330 324 338 361 q 324 247 322 286 q 347 181 326 208 q 399 153 367 154 m 1067 269 q 1268 315 1203 233 q 1296 447 1317 374 q 1193 539 1274 522 q 1154 542 1174 542 q 978 503 1072 542 q 838 419 883 464 q 905 356 868 386 q 984 303 942 326 q 1067 269 1026 281 z "},"'":{"ha":282,"x_min":43,"x_max":239,"o":"m 171 972 q 219 953 199 972 q 238 903 239 933 q 204 846 236 872 q 158 806 183 826 q 106 766 132 786 q 58 726 81 746 q 54 729 57 728 q 49 733 51 731 q 43 736 46 735 q 67 819 53 767 q 92 901 82 871 q 171 972 115 974 z "},"’":{"ha":282,"x_min":43,"x_max":239,"o":"m 171 972 q 219 953 199 972 q 238 903 239 933 q 204 846 236 872 q 158 806 183 826 q 106 766 132 786 q 58 726 81 746 q 54 729 57 728 q 49 733 51 731 q 43 736 46 735 q 67 819 53 767 q 92 901 82 871 q 171 972 115 974 z "},"(":{"ha":457,"x_min":63,"x_max":478,"o":"m 478 1114 q 414 1044 442 1114 q 372 865 386 975 q 350 620 357 754 q 350 352 343 486 q 372 108 357 218 q 414 -72 386 -3 q 478 -142 442 -142 l 478 -165 q 297 -110 378 -165 q 165 39 215 -54 q 89 247 115 132 q 63 487 63 363 q 89 726 63 611 q 166 934 115 842 q 297 1082 217 1026 q 478 1138 378 1138 l 478 1114 z "},")":{"ha":457,"x_min":-22,"x_max":393,"o":"m -22 1138 q 159 1082 78 1138 q 290 934 240 1026 q 367 726 340 842 q 393 488 393 611 q 377 294 393 388 q 327 117 361 200 q 244 -29 293 33 q 127 -128 196 -92 q -22 -165 58 -165 l -22 -142 q 75 55 40 -142 q 110 487 110 251 q 75 918 110 722 q -22 1114 40 1114 l -22 1138 z "},"*":{"ha":529,"x_min":42,"x_max":488,"o":"m 429 690 q 478 633 481 674 q 443 593 475 601 q 385 613 415 585 q 332 659 367 628 q 281 707 297 690 q 294 639 285 685 q 310 569 304 593 q 281 499 321 514 q 228 514 247 485 q 219 569 213 535 q 236 648 225 596 q 249 707 247 700 q 197 659 232 690 q 144 613 163 628 q 69 601 103 575 q 56 654 42 622 q 100 690 65 679 q 233 733 129 700 q 167 755 211 740 q 100 776 122 769 q 51 833 49 793 q 85 875 54 867 q 144 854 114 882 q 178 825 160 842 q 215 791 196 808 q 249 761 235 774 q 236 819 247 767 q 219 899 225 871 q 247 969 208 954 q 301 953 281 982 q 310 899 317 932 q 281 761 306 876 q 332 808 297 776 q 385 854 367 839 q 460 867 426 893 q 474 813 488 844 q 429 776 464 788 q 408 769 419 774 q 385 763 396 765 q 363 756 375 760 q 341 748 351 751 q 319 741 331 744 q 296 733 307 738 q 429 690 397 701 z "},"+":{"ha":550,"x_min":36,"x_max":513,"o":"m 286 499 l 513 499 l 513 475 l 286 475 l 286 249 l 263 249 l 263 475 l 36 475 l 36 499 l 263 499 l 263 725 l 286 725 l 286 499 z "},",":{"ha":307,"x_min":44,"x_max":261,"o":"m 154 219 q 231 187 200 219 q 261 108 261 154 q 253 64 261 93 q 238 12 246 35 q 216 -45 229 -11 q 201 -83 203 -79 l 179 -76 l 211 15 q 154 -1 186 -1 q 99 14 125 -1 q 59 54 74 29 q 44 110 44 79 q 76 187 44 154 q 154 219 108 219 z "},"-":{"ha":528,"x_min":25,"x_max":501,"o":"m 501 475 l 25 475 l 25 499 l 501 499 l 501 475 z "},".":{"ha":310,"x_min":44,"x_max":264,"o":"m 76 188 q 92 205 76 188 q 154 221 108 221 q 232 188 200 221 q 264 110 264 156 q 232 33 264 65 q 154 0 200 0 q 99 15 125 0 q 59 56 74 31 q 44 111 44 81 q 76 188 44 156 z "},"/":{"ha":344,"x_min":43,"x_max":297,"o":"m 272 972 l 297 972 l 67 0 l 43 0 l 272 972 z "},":":{"ha":329,"x_min":54,"x_max":274,"o":"m 242 555 q 226 539 242 555 q 164 522 210 522 q 86 555 118 522 q 54 633 54 588 q 86 710 54 678 q 164 743 118 743 q 242 710 210 743 q 274 633 274 678 q 242 555 274 588 m 86 418 q 102 434 86 418 q 164 450 118 450 q 242 418 210 450 q 274 340 274 386 q 242 263 274 294 q 164 231 210 231 q 109 245 135 231 q 69 285 83 260 q 54 340 54 311 q 86 418 54 386 z "},";":{"ha":331,"x_min":54,"x_max":274,"o":"m 242 555 q 226 539 242 555 q 164 522 210 522 q 86 555 118 522 q 54 633 54 588 q 86 710 54 678 q 164 743 118 743 q 242 710 210 743 q 274 633 274 678 q 242 555 274 588 m 165 450 q 208 442 188 450 q 242 418 228 433 q 264 383 256 403 q 272 340 272 363 q 265 294 272 324 q 249 243 257 265 q 227 187 240 221 q 213 147 214 153 l 190 156 l 224 247 q 165 231 197 231 q 110 245 136 231 q 70 285 85 260 q 56 340 56 311 q 88 418 56 386 q 165 450 121 450 z "},"<":{"ha":558,"x_min":40,"x_max":517,"o":"m 40 454 l 40 482 l 504 707 l 517 686 l 64 468 l 517 251 l 504 231 l 40 454 z "},"=":{"ha":544,"x_min":33,"x_max":510,"o":"m 510 411 l 33 411 l 33 435 l 510 435 l 510 411 m 510 539 l 33 539 l 33 563 l 510 563 l 510 539 z "},">":{"ha":558,"x_min":42,"x_max":518,"o":"m 518 482 l 518 454 l 54 231 l 42 251 l 494 468 l 42 686 l 54 707 l 518 482 z "},"?":{"ha":822,"x_min":42,"x_max":776,"o":"m 303 221 q 381 188 349 221 q 414 110 414 156 q 381 33 414 65 q 303 0 349 0 q 226 33 258 0 q 193 111 193 65 q 208 166 193 140 q 248 206 222 192 q 303 221 274 221 m 775 696 q 753 606 774 647 q 701 535 733 564 q 626 481 668 507 q 542 437 585 456 q 459 397 500 418 q 386 355 418 375 q 335 307 354 335 q 315 246 315 279 l 292 246 q 303 352 292 303 q 333 435 314 401 q 375 502 351 469 q 424 560 399 535 q 472 615 449 585 q 513 677 494 646 q 540 751 531 708 q 549 846 550 794 q 539 889 547 869 q 516 922 531 908 q 483 942 501 935 q 443 949 464 949 q 369 922 400 949 q 323 855 338 896 q 299 766 308 814 q 292 676 290 718 q 294 601 293 633 q 226 578 269 578 q 93 619 140 575 q 44 731 46 663 q 98 868 42 811 q 240 950 154 925 q 429 975 326 975 q 556 957 494 974 q 667 908 617 940 q 747 820 718 875 q 775 696 776 765 z "},"@":{"ha":1279,"x_min":60,"x_max":1218,"o":"m 1203 97 l 1218 78 q 989 -105 1119 -44 q 717 -165 858 -165 q 474 -117 592 -164 q 263 11 356 -71 q 115 217 171 93 q 60 486 60 342 q 92 719 60 611 q 181 903 125 826 q 310 1033 236 979 q 469 1113 385 1086 q 640 1138 553 1139 q 810 1111 728 1138 q 967 1031 893 1085 q 1096 901 1040 976 q 1183 718 1151 825 q 1215 486 1215 611 q 1197 344 1215 408 q 1147 238 1178 279 q 1076 167 1117 196 q 993 126 1035 138 q 907 114 951 114 q 744 167 814 114 q 674 297 674 219 q 488 222 606 222 q 372 243 422 222 q 294 296 321 264 q 256 367 268 328 q 257 444 244 406 q 296 515 269 483 q 374 568 322 547 q 490 589 425 589 q 669 521 603 589 l 669 590 q 601 865 672 865 q 578 854 588 865 q 565 824 568 843 q 560 785 561 806 q 560 738 558 764 q 564 694 563 713 q 568 655 565 675 q 572 631 571 635 q 501 613 554 614 q 356 719 353 610 q 422 839 357 789 q 613 889 486 889 q 768 867 704 889 q 863 807 832 844 q 908 720 893 769 q 921 616 922 671 q 915 507 919 561 q 907 403 910 453 q 909 316 904 354 q 938 254 914 278 q 1008 231 963 231 q 1132 299 1074 229 q 1190 486 1190 368 q 1144 758 1192 636 q 1019 956 1097 879 q 842 1073 940 1032 q 638 1114 744 1114 q 434 1073 532 1114 q 258 956 336 1032 q 132 758 179 881 q 85 486 85 636 q 138 227 85 347 q 281 28 192 107 q 485 -96 371 -51 q 719 -140 599 -140 q 982 -81 856 -140 q 1203 97 1108 -21 m 669 326 q 669 488 669 414 q 615 517 644 517 q 551 484 575 518 q 526 404 526 450 q 550 326 526 360 q 613 294 574 293 q 669 326 644 294 z "},"A":{"ha":958,"x_min":21,"x_max":936,"o":"m 836 132 q 870 55 846 85 q 936 24 894 25 l 936 0 l 506 0 l 506 24 q 551 49 539 24 q 557 108 564 75 l 479 474 l 282 474 q 273 374 274 431 q 287 255 272 317 q 323 142 301 193 q 379 57 344 90 q 454 24 414 24 l 454 0 l 21 0 l 21 24 q 353 878 151 24 q 344 928 360 907 q 299 949 329 949 l 299 972 l 732 972 l 732 949 q 685 928 700 949 q 678 876 671 907 l 836 132 m 288 499 l 475 499 l 386 918 l 288 499 z "},"B":{"ha":829,"x_min":25,"x_max":804,"o":"m 517 474 q 729 394 654 465 q 801 232 804 324 q 711 68 797 136 q 474 0 625 0 l 25 0 l 25 24 q 77 44 56 24 q 99 96 99 65 l 99 876 q 77 928 99 907 q 25 949 56 949 l 25 972 l 474 972 q 616 940 554 972 q 709 858 678 907 q 746 749 740 808 q 730 636 751 689 q 652 543 708 583 q 517 492 596 503 l 517 474 m 372 949 l 372 494 q 417 514 397 494 q 448 565 436 533 q 467 638 460 597 q 474 722 474 679 q 467 805 474 764 q 448 878 460 846 q 417 929 436 910 q 372 949 397 949 m 372 24 q 437 43 408 24 q 484 94 465 63 q 513 165 503 125 q 524 247 524 206 q 515 329 525 289 q 488 401 506 369 q 441 452 471 433 q 372 471 411 471 l 372 24 z "},"C":{"ha":900,"x_min":31,"x_max":874,"o":"m 453 972 q 757 843 647 972 q 826 640 838 747 q 726 507 817 540 q 647 495 690 494 q 578 521 603 496 q 563 745 576 650 q 520 894 549 840 q 453 949 492 949 q 356 839 396 949 q 326 536 306 699 q 485 279 354 336 q 593 261 532 258 q 710 291 654 264 q 803 367 765 318 q 850 476 840 417 l 874 476 q 817 238 874 347 q 663 64 760 128 q 453 0 565 0 q 240 65 338 0 q 87 242 143 131 q 31 486 31 354 q 64 675 31 585 q 153 831 97 765 q 288 934 210 896 q 453 972 367 972 z "},"D":{"ha":822,"x_min":25,"x_max":789,"o":"m 372 972 q 528 945 458 972 q 646 872 599 918 q 726 763 693 825 q 774 631 758 700 q 789 486 789 561 q 774 342 789 411 q 726 210 758 272 q 646 101 693 147 q 528 27 599 54 q 372 0 458 0 l 25 0 l 25 24 q 77 44 56 24 q 99 96 99 65 l 99 876 q 77 928 99 907 q 25 949 56 949 l 25 972 l 372 972 m 372 24 q 478 174 442 42 q 514 486 514 307 q 508 616 514 553 q 492 737 503 679 q 464 838 481 794 q 424 911 447 882 q 372 949 401 940 l 372 24 z "},"E":{"ha":750,"x_min":25,"x_max":724,"o":"m 25 949 l 25 972 l 724 972 l 724 949 q 698 932 710 944 q 679 899 686 919 q 666 856 672 878 q 657 803 660 835 q 652 747 654 771 q 649 690 650 724 q 649 637 649 656 q 649 588 649 618 q 650 553 650 558 l 626 553 q 603 651 625 588 q 547 783 581 715 q 466 899 514 850 q 372 949 418 949 l 372 494 q 480 546 435 494 q 525 667 525 597 l 549 667 l 549 306 l 525 306 q 480 426 525 375 q 372 478 435 478 l 372 24 q 466 73 418 24 q 547 190 514 122 q 603 321 581 257 q 626 421 625 385 l 650 421 q 649 384 650 414 q 649 335 649 354 q 649 283 649 317 q 652 225 650 249 q 657 169 654 201 q 666 116 660 138 q 680 74 672 94 q 699 40 688 53 q 724 24 710 28 l 724 0 l 25 0 l 25 24 q 77 44 56 24 q 99 96 99 65 l 99 876 q 77 928 99 907 q 25 949 56 949 z "},"F":{"ha":757,"x_min":25,"x_max":724,"o":"m 25 949 l 25 972 l 724 972 l 724 949 q 699 932 710 944 q 680 899 688 919 q 666 856 672 878 q 657 803 660 835 q 652 747 654 771 q 650 690 650 724 q 649 637 650 656 q 649 588 649 618 q 650 553 650 558 l 626 553 q 603 651 625 588 q 547 783 581 715 q 466 899 514 850 q 372 949 418 949 l 372 494 q 480 546 435 494 q 525 667 525 597 l 549 667 l 549 306 l 525 306 q 480 426 525 375 q 372 478 435 478 l 372 96 q 383 60 372 76 q 410 33 393 43 q 446 24 426 24 l 446 0 l 25 0 l 25 24 q 77 44 56 24 q 99 96 99 65 l 99 876 q 77 928 99 907 q 25 949 56 949 z "},"G":{"ha":888,"x_min":32,"x_max":838,"o":"m 453 972 q 757 843 647 972 q 826 640 838 747 q 726 507 817 540 q 647 495 690 494 q 578 521 603 496 q 544 833 576 717 q 453 949 511 949 q 340 808 376 949 q 332 481 300 656 q 451 265 364 299 q 499 260 474 257 q 556 309 543 264 q 542 400 569 354 q 461 453 515 446 l 461 478 l 833 478 l 833 0 l 551 0 l 551 24 q 658 338 656 36 l 635 338 q 557 85 628 169 q 374 0 486 0 q 195 67 275 0 q 74 240 115 135 q 33 464 32 346 q 40 558 33 511 q 60 649 47 604 q 92 734 72 693 q 137 812 111 775 q 196 878 163 849 q 267 928 229 907 q 353 960 306 949 q 453 972 400 972 z "},"H":{"ha":915,"x_min":25,"x_max":890,"o":"m 25 949 l 25 972 l 432 972 l 432 949 q 391 925 408 949 q 374 876 374 901 l 374 496 l 542 496 l 542 876 q 524 925 542 901 q 483 949 507 949 l 483 972 l 890 972 l 890 949 q 838 928 860 949 q 817 876 817 907 l 817 96 q 838 44 817 65 q 890 24 860 24 l 890 0 l 483 0 l 483 24 q 524 47 507 24 q 542 96 542 71 l 542 471 l 372 471 l 372 96 q 390 47 372 71 q 432 24 408 24 l 432 0 l 25 0 l 25 24 q 77 44 56 24 q 99 96 99 65 l 99 876 q 77 928 99 907 q 25 949 56 949 z "},"I":{"ha":482,"x_min":25,"x_max":446,"o":"m 25 949 l 25 972 l 446 972 l 446 949 q 394 928 415 949 q 372 876 372 907 l 372 96 q 383 60 372 76 q 410 33 393 43 q 446 24 426 24 l 446 0 l 25 0 l 25 24 q 77 44 56 24 q 99 96 99 65 l 99 876 q 77 928 99 907 q 25 949 56 949 z "},"J":{"ha":813,"x_min":13,"x_max":797,"o":"m 381 0 q 217 30 290 0 q 101 107 144 60 q 35 209 57 154 q 13 318 13 264 q 58 434 14 389 q 186 478 101 479 q 219 472 200 476 q 255 459 238 467 q 281 443 272 451 q 292 140 269 254 q 371 25 315 25 q 405 44 390 25 q 428 99 419 63 q 441 172 436 136 q 448 262 446 208 q 450 347 450 315 q 449 425 450 378 q 449 476 449 472 l 449 876 q 438 912 449 897 q 413 933 426 926 q 373 944 399 940 q 332 948 347 947 q 292 949 317 949 q 281 949 285 949 l 281 972 l 797 972 l 797 949 q 760 939 776 949 q 733 913 743 929 q 724 876 724 896 l 724 454 q 715 317 724 379 q 683 194 707 254 q 622 92 660 133 q 524 26 585 51 q 381 0 463 0 z "},"K":{"ha":911,"x_min":25,"x_max":890,"o":"m 25 949 l 25 972 l 446 972 l 446 949 q 394 928 415 949 q 372 876 372 907 l 372 499 l 381 499 q 431 576 410 542 q 487 670 453 611 q 538 772 521 729 q 564 858 554 815 q 556 925 574 901 q 496 949 539 949 l 496 972 l 890 972 l 890 949 q 833 933 865 949 q 760 881 800 917 q 686 814 719 846 q 603 726 653 782 q 526 637 553 669 q 449 544 499 604 q 406 494 419 510 l 410 486 q 511 528 451 524 q 624 499 571 532 q 694 408 676 467 l 782 117 q 890 24 810 24 l 890 0 l 471 0 l 471 24 q 503 92 522 24 l 388 474 l 372 474 l 372 0 l 25 0 l 25 24 q 77 44 56 24 q 99 96 99 65 l 99 876 q 77 928 99 907 q 25 949 56 949 z "},"L":{"ha":744,"x_min":25,"x_max":724,"o":"m 25 24 q 77 44 56 24 q 99 96 99 65 l 99 876 q 77 928 99 907 q 25 949 56 949 l 25 972 l 446 972 l 446 949 q 394 928 415 949 q 372 876 372 907 l 372 24 q 449 56 410 24 q 517 138 488 89 q 572 242 547 188 q 611 345 597 297 q 626 421 625 393 l 650 421 q 649 384 650 414 q 649 335 649 354 q 650 283 650 317 q 652 225 650 249 q 657 169 654 201 q 666 116 660 138 q 680 74 672 94 q 699 40 688 53 q 724 24 710 28 l 724 0 l 25 0 l 25 24 z "},"M":{"ha":1374,"x_min":21,"x_max":1353,"o":"m 275 949 l 275 972 l 607 972 l 713 469 q 804 815 757 618 q 809 873 810 843 q 791 926 808 903 q 742 949 774 949 l 742 972 q 869 972 786 972 q 1019 972 951 972 q 1146 972 1086 972 l 1146 949 q 1103 931 1118 949 q 1092 886 1088 913 l 1247 147 q 1256 113 1251 126 q 1268 81 1260 99 q 1287 51 1276 63 q 1314 32 1297 40 q 1353 24 1331 24 l 1353 0 l 994 0 l 825 803 q 803 707 815 761 q 778 599 790 653 q 756 503 765 544 q 745 430 747 469 q 744 363 743 390 q 754 287 746 336 q 765 222 763 238 q 781 149 768 206 q 829 57 793 90 q 901 24 865 24 l 901 0 l 528 0 l 358 803 q 344 736 354 781 q 328 669 333 692 q 308 566 317 622 q 290 433 299 510 q 286 287 282 356 q 306 157 290 218 q 359 60 321 96 q 454 24 397 24 l 454 0 l 21 0 l 21 24 q 336 807 146 24 q 343 866 340 835 q 328 923 346 897 q 275 949 311 949 z "},"N":{"ha":808,"x_min":28,"x_max":779,"o":"m 28 972 l 385 972 l 681 96 q 660 344 678 207 q 613 622 643 482 q 535 855 583 761 q 431 949 486 949 l 431 972 l 779 972 l 779 949 q 707 418 708 949 q 707 96 707 418 q 717 60 707 76 q 743 33 726 43 q 779 24 760 24 l 779 0 l 429 0 l 126 897 q 133 753 125 851 q 160 530 140 656 q 209 292 181 404 q 282 101 238 179 q 378 24 326 24 l 378 0 l 28 0 l 28 24 q 101 554 100 24 q 101 876 101 554 q 80 928 101 907 q 28 949 58 949 l 28 972 z "},"O":{"ha":906,"x_min":31,"x_max":874,"o":"m 453 972 q 585 948 521 972 q 702 878 650 924 q 793 774 754 833 q 853 640 832 714 q 874 486 874 565 q 817 242 874 354 q 664 65 761 131 q 452 0 567 0 q 240 65 338 0 q 87 242 143 131 q 31 486 31 354 q 87 730 31 618 q 240 907 143 842 q 453 972 338 972 m 453 24 q 557 158 514 24 q 600 486 600 293 q 557 814 600 679 q 453 949 514 949 q 349 814 392 949 q 306 486 306 679 q 325 253 306 360 q 378 85 344 146 q 453 24 413 24 z "},"P":{"ha":822,"x_min":25,"x_max":804,"o":"m 474 972 q 712 899 625 972 q 801 725 799 826 q 718 547 804 622 q 474 471 632 471 l 372 471 l 372 96 q 383 60 372 76 q 410 33 393 43 q 446 24 426 24 l 446 0 l 25 0 l 25 24 q 77 44 56 24 q 99 96 99 65 l 99 863 q 80 924 99 900 q 25 949 61 949 l 25 972 l 474 972 m 372 494 q 482 558 443 494 q 524 710 521 622 q 485 877 525 806 q 372 949 444 949 l 372 494 z "},"Q":{"ha":910,"x_min":31,"x_max":881,"o":"m 785 60 q 858 -27 835 22 q 873 -123 881 -76 q 828 -210 865 -169 q 732 -271 792 -251 q 663 -285 699 -283 q 590 -278 626 -286 q 519 -249 553 -271 q 457 -194 485 -226 q 410 -110 429 -161 q 386 6 392 -58 q 133 169 235 33 q 31 486 31 306 q 87 730 31 618 q 240 907 143 842 q 453 972 338 972 q 617 934 539 972 q 751 831 694 896 q 840 675 807 765 q 874 486 874 585 q 819 242 874 356 q 668 62 764 128 q 461 0 572 -4 q 433 -8 435 1 q 453 -32 431 -18 q 542 -54 488 -54 q 648 -38 597 -54 q 738 5 699 -22 q 785 60 778 32 m 349 814 q 327 747 349 814 q 306 486 306 679 q 349 158 306 293 q 453 24 392 24 q 557 158 514 24 q 600 486 600 293 q 557 814 600 679 q 453 949 514 949 q 349 814 392 949 z "},"R":{"ha":903,"x_min":25,"x_max":890,"o":"m 736 274 q 747 233 740 260 q 758 185 753 206 q 772 138 764 164 q 791 94 781 113 q 815 58 801 75 q 848 33 829 42 q 890 24 867 24 l 890 0 l 472 0 l 472 24 q 503 92 522 24 l 389 474 l 372 474 l 372 0 l 25 0 l 25 24 q 77 44 56 24 q 99 96 99 65 l 99 876 q 76 928 96 908 q 25 949 56 949 l 25 972 l 474 972 q 718 895 629 972 q 803 717 807 818 q 707 556 797 622 q 453 490 617 490 l 453 474 q 736 274 681 458 m 372 499 q 431 512 406 499 q 474 546 457 525 q 501 595 490 567 q 517 652 513 624 q 524 710 522 681 q 485 877 525 806 q 372 949 444 949 l 372 499 z "},"S":{"ha":815,"x_min":39,"x_max":775,"o":"m 42 696 q 60 798 40 751 q 113 876 79 844 q 191 931 146 908 q 286 963 236 953 q 388 974 336 974 q 576 950 490 975 q 719 867 663 925 q 772 731 775 810 q 724 619 771 663 q 590 578 676 575 q 522 601 547 578 q 525 662 525 629 q 522 735 525 694 q 508 812 518 775 q 481 880 497 849 q 438 930 465 911 q 374 949 410 949 q 300 920 331 949 q 268 846 269 892 q 287 757 267 799 q 342 685 307 715 q 422 623 376 654 q 514 567 467 592 q 607 510 561 542 q 689 447 653 479 q 748 372 725 415 q 772 279 771 328 q 744 155 774 210 q 665 67 715 100 q 553 17 614 35 q 426 0 492 0 q 238 25 324 0 q 95 107 151 50 q 42 244 39 164 q 90 356 43 313 q 224 397 138 399 q 292 372 267 396 q 289 299 290 342 q 297 208 288 256 q 320 119 306 160 q 366 51 335 78 q 440 24 397 24 q 514 53 483 24 q 546 129 544 82 q 521 228 547 182 q 451 309 494 275 q 353 375 407 343 q 246 440 300 407 q 147 508 192 472 q 72 591 101 543 q 42 696 43 639 z "},"T":{"ha":904,"x_min":21,"x_max":882,"o":"m 21 972 l 882 972 l 882 949 q 857 932 868 944 q 838 899 846 919 q 825 856 831 878 q 816 803 819 835 q 811 747 813 771 q 809 690 810 724 q 808 637 808 656 q 809 588 808 618 q 810 553 810 558 l 786 553 q 768 659 783 594 q 728 790 753 724 q 665 902 703 856 q 589 949 628 949 l 589 96 q 610 44 589 65 q 663 24 632 24 l 663 0 l 242 0 l 242 24 q 293 44 272 24 q 314 96 314 65 l 314 949 q 238 902 275 949 q 176 790 200 856 q 135 659 151 724 q 118 553 119 594 l 94 553 q 94 588 94 558 q 94 637 94 618 q 94 690 94 656 q 92 748 94 724 q 88 803 90 772 q 78 856 85 835 q 65 899 72 878 q 46 932 57 919 q 21 949 35 944 l 21 972 z "},"U":{"ha":879,"x_min":21,"x_max":858,"o":"m 21 972 l 442 972 l 442 949 q 390 928 411 949 q 368 876 368 907 q 363 727 368 849 q 358 526 358 606 q 474 90 361 186 q 629 93 546 28 q 750 318 718 161 q 761 482 767 396 q 714 715 754 606 q 618 887 674 825 q 508 949 563 949 l 508 972 l 858 972 l 858 949 q 785 478 789 949 q 685 120 783 240 q 429 0 588 0 q 307 21 361 0 q 217 81 253 42 q 157 166 182 119 q 119 272 132 213 q 100 385 106 331 q 94 499 94 439 l 94 876 q 73 928 94 907 q 21 949 51 949 l 21 972 z "},"V":{"ha":983,"x_min":33,"x_max":949,"o":"m 464 972 q 464 961 464 969 q 464 949 464 953 q 419 923 432 949 q 414 867 407 897 q 585 56 582 67 q 610 163 593 92 q 633 265 626 233 q 649 332 642 297 q 664 417 656 367 q 677 515 672 467 q 684 617 682 563 q 683 717 686 671 q 668 808 679 764 q 638 882 657 851 q 588 931 619 913 q 515 949 557 949 l 515 972 l 949 972 l 949 949 q 603 32 815 949 q 596 0 597 8 q 313 0 513 0 l 129 869 q 94 926 121 903 q 33 949 68 949 l 33 972 l 464 972 z "},"W":{"ha":1374,"x_min":21,"x_max":1351,"o":"m 1099 24 l 1099 0 l 767 0 l 660 503 q 558 115 611 339 q 566 83 563 94 q 578 56 569 72 q 599 31 586 39 q 632 24 613 24 l 632 0 q 504 0 586 0 q 354 0 422 0 q 226 0 286 0 l 226 24 q 276 110 294 24 l 115 869 q 82 926 108 903 q 21 949 56 949 l 21 972 l 378 972 l 547 169 q 578 299 551 188 q 618 469 604 411 q 627 535 625 501 q 628 599 629 569 q 622 666 628 628 q 612 730 617 704 q 599 796 607 756 q 471 949 565 949 l 471 972 l 844 972 l 1014 169 q 1047 310 1038 269 q 1064 395 1056 349 q 1079 505 1072 442 q 1088 627 1086 568 q 1081 746 1089 686 q 1056 849 1074 806 q 1003 921 1038 893 q 918 949 968 949 l 918 972 l 1351 972 l 1351 949 q 1025 115 1224 949 q 1033 83 1029 94 q 1044 56 1036 72 q 1066 31 1053 39 q 1099 24 1079 24 z "},"X":{"ha":943,"x_min":21,"x_max":921,"o":"m 21 949 l 21 972 l 469 972 l 469 949 q 406 923 426 949 q 406 858 385 897 l 547 601 q 583 679 567 636 q 610 770 600 722 q 617 858 619 818 q 593 923 615 897 q 529 949 571 949 l 529 972 l 896 972 l 896 949 q 846 924 876 949 q 776 855 815 900 q 703 769 736 810 q 625 668 671 728 q 558 582 579 608 l 824 96 q 866 45 839 67 q 921 24 893 24 l 921 0 l 475 0 l 475 24 q 539 49 518 24 q 539 113 560 75 l 399 371 q 355 271 374 328 q 328 158 336 214 q 342 63 321 101 q 415 24 364 24 l 415 0 l 49 0 l 49 24 q 127 74 75 24 q 224 181 179 125 q 324 308 269 238 q 388 390 378 379 l 122 876 q 78 927 106 906 q 21 949 50 949 z "},"Y":{"ha":943,"x_min":33,"x_max":908,"o":"m 33 949 l 33 972 l 482 972 l 482 949 q 418 923 439 949 q 418 858 397 897 l 560 601 q 592 665 575 625 q 620 755 608 706 q 633 847 632 804 q 610 919 633 890 q 542 949 588 949 l 542 972 l 908 972 l 908 949 q 878 939 896 949 q 838 907 861 929 q 797 866 815 885 q 749 810 779 847 q 703 753 718 772 q 653 688 688 733 q 608 631 618 643 l 608 96 q 630 44 608 65 q 682 24 651 24 l 682 0 l 261 0 l 261 24 q 313 44 292 24 q 333 96 333 65 l 333 511 l 135 876 q 90 927 118 906 q 33 949 63 949 z "},"Z":{"ha":814,"x_min":21,"x_max":793,"o":"m 719 949 l 388 31 q 610 152 531 53 q 696 421 689 251 l 719 421 q 719 384 719 414 q 718 335 718 354 q 719 283 718 317 q 722 225 719 249 q 726 169 724 201 q 735 116 729 138 q 748 74 740 94 q 767 40 756 53 q 793 24 779 28 l 793 0 l 94 0 l 94 24 l 426 942 q 204 820 283 919 q 118 553 125 721 l 94 553 q 94 579 94 560 q 95 681 97 621 q 88 798 93 742 q 66 898 83 854 q 21 949 49 942 l 21 972 l 719 972 l 719 949 z "},"[":{"ha":393,"x_min":49,"x_max":435,"o":"m 435 1114 l 324 1114 l 324 -140 l 435 -140 l 435 -165 l 49 -165 l 49 1138 l 435 1138 l 435 1114 z "},"\\":{"ha":344,"x_min":47,"x_max":300,"o":"m 71 972 l 300 0 l 276 0 l 47 972 l 71 972 z "},"]":{"ha":393,"x_min":-42,"x_max":344,"o":"m -42 1138 l 344 1138 l 344 -165 l -42 -165 l -42 -140 l 69 -140 l 69 1114 l -42 1114 l -42 1138 z "},"^":{"ha":494,"x_min":31,"x_max":467,"o":"m 408 883 q 447 799 467 849 q 390 753 432 760 q 304 813 336 746 l 247 931 l 190 813 q 100 754 157 742 q 46 803 58 763 q 86 883 31 850 q 169 931 118 903 q 247 972 221 958 q 290 949 267 961 q 328 928 313 938 q 367 908 344 919 q 408 883 389 896 z "},"_":{"ha":517,"x_min":19,"x_max":496,"o":"m 496 0 l 19 0 l 19 25 l 496 25 l 496 0 z "},"`":{"ha":364,"x_min":39,"x_max":325,"o":"m 181 940 q 325 811 185 938 q 320 801 324 807 q 317 794 317 796 q 111 836 271 804 q 43 896 49 847 q 75 963 39 939 q 181 940 122 993 z "},"a":{"ha":810,"x_min":22,"x_max":789,"o":"m 715 96 q 737 44 715 65 q 789 24 758 24 l 789 0 l 440 0 l 440 69 q 258 0 374 0 q 84 54 146 0 q 22 183 22 108 q 85 311 22 257 q 261 365 149 365 q 440 297 374 365 l 440 367 q 372 642 443 643 q 349 631 358 642 q 335 601 339 621 q 331 561 332 582 q 331 515 329 540 q 334 471 332 489 q 339 432 336 453 q 343 408 342 411 q 272 390 324 392 q 164 413 203 389 q 126 496 125 436 q 192 615 128 565 q 383 667 257 665 q 621 585 528 667 q 714 361 714 504 q 715 229 714 267 q 715 96 715 192 m 440 104 q 440 184 440 142 q 440 265 440 226 q 386 294 415 293 q 322 261 346 296 q 297 181 297 226 q 321 103 297 136 q 383 71 344 69 q 440 104 414 72 z "},"b":{"ha":792,"x_min":-11,"x_max":753,"o":"m 518 672 q 603 653 564 672 q 670 601 643 633 q 716 524 697 568 q 744 431 735 481 q 753 331 753 382 q 726 171 751 244 q 647 49 701 97 q 518 0 593 0 q 483 1 499 0 q 453 6 468 1 q 431 12 439 10 q 408 22 422 14 q 388 33 393 31 q 364 49 383 36 q 338 68 344 63 q 190 78 285 101 q 63 6 96 56 l 63 817 q 41 867 63 846 q -11 888 19 888 l -11 913 l 336 978 l 336 603 q 518 672 404 672 m 393 71 q 444 125 424 71 q 470 258 465 179 q 470 414 475 336 q 444 547 465 492 q 393 600 424 601 q 336 568 363 599 l 336 103 q 393 71 363 72 z "},"c":{"ha":696,"x_min":31,"x_max":667,"o":"m 363 667 q 565 601 492 667 q 638 457 639 536 q 597 372 638 407 q 490 339 557 338 q 438 357 457 340 q 435 509 442 446 q 410 607 429 572 q 363 642 392 642 q 319 609 336 642 q 298 533 303 576 q 291 447 293 490 q 294 383 289 404 q 351 278 307 314 q 483 246 396 243 q 590 283 540 247 q 646 361 639 318 l 664 361 q 574 101 667 201 q 347 0 481 0 q 124 98 217 0 q 31 333 31 196 q 130 568 31 469 q 363 667 229 667 z "},"d":{"ha":821,"x_min":36,"x_max":801,"o":"m 728 96 q 749 44 728 65 q 801 24 771 24 l 801 0 l 454 0 l 454 64 q 272 -6 386 -6 q 170 23 215 -6 q 97 99 125 51 q 53 204 68 146 q 38 326 38 263 q 61 490 36 414 q 141 616 86 565 q 272 667 196 667 q 454 597 386 667 l 454 811 q 433 861 454 840 q 381 882 411 882 l 381 907 l 728 972 l 728 96 m 454 97 l 454 563 q 397 594 428 593 q 346 541 367 596 q 320 408 325 486 q 320 252 315 331 q 346 119 325 174 q 397 65 367 65 q 454 97 428 67 z "},"e":{"ha":696,"x_min":31,"x_max":667,"o":"m 646 361 l 664 361 q 574 101 667 201 q 347 0 481 0 q 124 97 217 0 q 31 333 31 194 q 130 568 31 469 q 363 667 229 667 q 565 601 492 667 q 638 457 639 536 q 624 401 638 425 q 592 366 610 378 q 543 348 574 354 q 492 340 513 342 q 438 339 471 339 l 307 339 q 483 246 346 242 q 590 283 540 247 q 646 361 639 318 m 363 642 q 317 606 335 642 q 296 524 300 571 q 292 431 292 476 q 300 364 293 386 l 438 364 q 424 568 443 494 q 363 642 406 642 z "},"f":{"ha":465,"x_min":22,"x_max":686,"o":"m 428 972 q 508 964 467 972 q 590 939 549 956 q 658 890 632 922 q 685 814 685 857 q 669 758 686 783 q 614 715 651 732 q 525 700 576 699 q 474 718 492 701 q 475 735 474 721 q 478 763 476 750 q 481 794 479 775 q 483 830 483 814 q 483 864 483 846 q 479 897 482 882 q 472 923 476 911 q 458 942 467 935 q 439 949 450 949 q 369 679 368 950 q 369 674 369 676 q 369 670 369 672 q 369 667 369 668 l 443 667 l 443 642 l 369 642 l 369 96 q 391 44 369 65 q 443 24 413 24 l 443 0 l 22 0 l 22 24 q 74 44 53 24 q 96 96 96 65 l 96 642 l 22 642 l 22 667 l 96 667 q 194 890 103 807 q 428 972 286 972 z "},"g":{"ha":814,"x_min":28,"x_max":783,"o":"m 353 161 q 462 167 404 167 q 577 153 519 168 q 681 112 635 138 q 754 38 726 86 q 782 -74 782 -10 q 758 -159 782 -118 q 688 -233 733 -200 q 569 -287 643 -267 q 403 -307 494 -307 q 244 -283 315 -307 q 130 -221 172 -258 q 65 -139 88 -183 q 44 -50 43 -94 q 108 63 49 25 q 243 94 167 100 q 306 69 283 92 q 313 -194 285 -106 q 403 -282 340 -282 q 483 -219 454 -282 q 510 -72 511 -157 q 472 101 510 53 q 325 135 433 150 q 197 128 243 122 q 133 160 151 135 q 132 210 115 186 q 188 238 149 235 q 98 292 135 260 q 44 362 61 325 q 29 439 28 399 q 131 599 32 532 q 406 667 231 667 q 481 661 465 667 q 457 714 460 678 q 470 786 454 750 q 526 850 486 822 q 622 879 567 878 q 719 844 678 881 q 763 749 761 807 q 755 708 764 726 q 723 678 746 690 q 666 666 700 667 q 610 683 632 665 q 607 722 611 706 q 551 772 596 769 q 506 753 525 772 q 492 706 488 733 q 525 661 496 679 q 560 649 540 654 q 685 595 633 631 q 760 517 736 560 q 782 428 783 475 q 680 267 779 335 q 406 200 581 200 q 335 203 368 200 q 290 210 324 204 q 242 215 257 215 q 192 193 199 217 q 224 158 185 169 q 254 154 238 156 q 353 161 294 153 m 406 642 q 338 599 365 642 q 305 494 311 556 q 305 372 299 433 q 338 267 311 310 q 406 224 365 224 q 457 247 435 224 q 491 306 479 269 q 508 388 503 343 q 508 478 514 433 q 491 559 503 522 q 457 619 479 596 q 406 642 435 642 z "},"h":{"ha":879,"x_min":21,"x_max":858,"o":"m 94 96 l 94 811 q 73 861 94 840 q 21 882 51 882 l 21 907 l 368 972 l 368 589 q 558 667 438 667 q 641 652 604 667 q 701 617 678 638 q 740 560 724 596 q 765 495 757 525 q 778 419 774 465 q 784 344 783 372 q 785 269 785 315 l 785 96 q 806 44 785 65 q 858 24 828 24 l 858 0 l 438 0 l 438 24 q 488 44 467 24 q 510 96 510 65 l 510 339 q 432 594 510 597 q 369 554 397 593 l 369 0 l 21 0 l 21 24 q 73 44 51 24 q 94 96 94 65 z "},"i":{"ha":465,"x_min":25,"x_max":446,"o":"m 99 96 l 99 504 q 77 556 99 535 q 25 576 56 576 l 25 600 l 372 667 l 372 96 q 394 44 372 65 q 446 24 415 24 l 446 0 l 25 0 l 25 24 q 77 44 56 24 q 99 96 99 65 m 139 932 q 159 952 139 932 q 236 972 179 972 q 333 932 293 972 q 372 835 372 892 q 333 738 372 778 q 236 697 293 697 q 139 738 179 697 q 99 835 99 778 q 139 932 99 892 z "},"j":{"ha":404,"x_min":17,"x_max":369,"o":"m 135 932 q 155 952 135 932 q 232 972 175 972 q 329 932 289 972 q 369 835 369 892 q 329 738 369 778 q 232 697 289 697 q 135 738 175 697 q 94 835 94 778 q 135 932 94 892 m 369 149 q 360 10 369 72 q 328 -112 351 -51 q 268 -214 306 -172 q 169 -281 231 -256 q 25 -306 107 -306 q 21 -306 24 -306 q 17 -306 18 -306 l 17 -282 q 50 -263 36 -282 q 72 -207 64 -244 q 86 -133 81 -169 q 93 -44 92 -97 q 95 40 94 10 q 95 119 96 71 q 94 171 94 167 l 94 504 q 73 556 94 535 q 21 576 51 576 l 21 600 l 369 667 l 369 149 z "},"k":{"ha":881,"x_min":21,"x_max":860,"o":"m 94 96 l 94 811 q 73 862 94 840 q 21 883 51 883 l 21 907 l 368 972 l 368 364 l 390 364 q 410 389 394 369 q 519 613 539 558 q 464 642 510 640 l 464 667 l 785 667 l 785 642 q 417 360 663 642 l 419 350 q 527 400 468 394 q 635 372 586 406 q 703 278 685 339 l 753 111 q 860 24 779 24 l 860 0 l 440 0 l 440 24 q 467 111 492 24 l 397 339 l 368 339 l 368 0 l 21 0 l 21 24 q 73 44 51 24 q 94 96 94 65 z "},"l":{"ha":464,"x_min":21,"x_max":442,"o":"m 94 96 l 94 811 q 73 861 94 840 q 21 882 51 882 l 21 907 l 368 972 l 368 96 q 390 44 368 65 q 442 24 411 24 l 442 0 l 21 0 l 21 24 q 73 44 51 24 q 94 96 94 65 z "},"m":{"ha":1300,"x_min":25,"x_max":1278,"o":"m 99 96 l 99 504 q 77 556 99 535 q 25 576 56 576 l 25 600 l 374 667 l 374 589 q 563 667 442 667 q 756 539 704 667 q 978 667 822 667 q 1061 652 1025 667 q 1121 617 1097 638 q 1161 560 1144 596 q 1186 495 1178 525 q 1199 419 1194 465 q 1203 344 1203 372 q 1204 269 1204 315 l 1204 96 q 1226 44 1204 65 q 1278 24 1247 24 l 1278 0 l 857 0 l 857 24 q 894 33 876 24 q 921 60 911 43 q 931 96 931 76 l 931 339 q 853 594 931 597 q 765 511 800 593 q 789 269 789 433 l 789 0 l 442 0 l 442 24 q 492 44 471 24 q 514 96 514 65 l 514 339 q 436 594 514 597 q 372 554 401 593 l 372 0 l 25 0 l 25 24 q 77 44 56 24 q 99 96 99 65 z "},"n":{"ha":882,"x_min":24,"x_max":861,"o":"m 97 96 l 97 504 q 76 556 97 535 q 24 576 54 576 l 24 600 l 371 667 l 371 589 q 561 667 440 667 q 644 652 607 667 q 703 617 681 638 q 743 560 726 596 q 768 495 760 525 q 781 419 776 465 q 787 344 786 372 q 788 269 788 315 l 788 96 q 809 44 788 65 q 861 24 831 24 l 861 0 l 440 0 l 440 24 q 491 44 469 24 q 513 96 513 65 l 513 339 q 435 594 513 597 q 371 554 400 593 l 371 0 l 24 0 l 24 24 q 76 44 54 24 q 97 96 97 65 z "},"o":{"ha":822,"x_min":29,"x_max":792,"o":"m 411 667 q 558 640 488 667 q 681 569 629 614 q 762 463 732 524 q 792 333 792 401 q 680 97 792 194 q 410 0 568 0 q 141 97 253 0 q 29 333 29 194 q 141 569 29 471 q 411 667 253 667 m 411 24 q 452 48 432 24 q 486 114 472 72 q 508 213 500 156 q 517 333 517 269 q 508 453 517 396 q 486 552 500 511 q 452 617 472 593 q 411 642 432 642 q 335 551 367 642 q 304 333 304 461 q 335 115 304 206 q 411 24 367 24 z "},"p":{"ha":829,"x_min":21,"x_max":792,"o":"m 557 667 q 687 615 632 667 q 767 488 742 564 q 790 324 792 413 q 775 203 790 261 q 731 97 760 144 q 658 22 703 50 q 557 -6 613 -6 q 368 69 438 -6 l 368 -144 q 390 -196 368 -175 q 442 -217 411 -217 l 442 -240 l 94 -306 l 94 504 q 73 556 94 535 q 21 576 51 576 l 21 600 l 368 667 l 368 590 q 557 667 436 667 m 431 65 q 483 119 461 65 q 509 252 504 174 q 509 408 514 331 q 483 541 504 486 q 431 594 461 596 q 368 556 397 593 l 368 106 q 431 65 397 67 z "},"q":{"ha":790,"x_min":35,"x_max":801,"o":"m 728 -144 q 749 -196 728 -175 q 801 -217 771 -217 l 801 -240 l 453 -307 l 453 69 q 272 0 386 0 q 139 53 194 0 q 59 186 83 107 q 38 356 35 265 q 67 509 40 439 q 147 625 93 579 q 272 671 200 671 q 338 663 306 671 q 385 647 369 656 q 425 624 401 639 q 454 607 449 610 q 601 590 515 572 q 728 667 688 607 l 728 -144 m 453 103 l 453 568 q 397 600 428 600 q 346 547 367 601 q 320 414 325 492 q 320 258 315 336 q 346 125 325 179 q 397 71 367 71 q 453 103 428 72 z "},"r":{"ha":739,"x_min":25,"x_max":719,"o":"m 99 504 q 77 556 99 535 q 25 576 56 576 l 25 600 l 372 667 l 372 518 q 564 665 456 667 q 672 615 626 665 q 719 499 718 565 q 681 388 719 433 q 556 339 643 342 q 499 357 524 338 q 500 417 501 388 q 456 536 499 517 q 396 501 422 553 q 374 386 374 457 l 374 96 q 394 44 374 65 q 446 24 415 24 l 446 0 l 25 0 l 25 24 q 77 44 56 24 q 99 96 99 65 l 99 504 z "},"s":{"ha":733,"x_min":38,"x_max":694,"o":"m 692 174 q 605 46 689 93 q 369 0 521 -1 q 215 17 286 1 q 93 69 143 33 q 40 151 43 104 q 72 219 38 192 q 151 256 107 247 q 236 261 196 265 q 293 235 275 256 q 294 110 288 157 q 325 45 301 67 q 378 24 349 24 q 425 50 406 24 q 444 122 444 76 q 361 236 444 192 q 285 268 335 250 q 196 302 235 286 q 119 342 157 318 q 60 404 81 367 q 40 492 39 442 q 128 621 43 574 q 363 667 213 668 q 518 649 446 665 q 640 597 590 632 q 692 515 689 563 q 660 447 694 474 q 581 410 626 419 q 496 406 536 400 q 440 431 457 410 q 438 556 444 508 q 408 621 432 600 q 356 642 385 642 q 308 615 328 642 q 289 543 289 589 q 372 429 288 475 q 449 397 399 415 q 538 363 500 379 q 614 323 575 347 q 674 261 653 299 q 692 174 694 224 z "},"t":{"ha":469,"x_min":21,"x_max":446,"o":"m 368 843 l 368 667 l 446 667 l 446 642 l 368 642 q 368 505 368 611 q 368 340 368 399 q 446 25 371 24 l 446 0 q 337 11 386 -1 q 251 46 288 24 q 188 101 215 68 q 142 173 160 135 q 114 259 125 211 q 99 353 103 307 q 94 454 94 400 q 95 485 94 464 q 96 521 96 507 q 94 556 96 535 q 88 590 93 576 q 76 616 83 603 q 54 635 68 629 q 21 642 40 642 l 21 667 q 131 682 79 667 q 231 729 183 697 q 303 783 278 761 q 368 843 329 804 z "},"u":{"ha":871,"x_min":15,"x_max":853,"o":"m 15 600 l 363 667 l 363 328 q 440 71 363 69 q 504 113 475 72 l 504 504 q 483 556 504 535 q 431 576 461 576 l 431 600 l 779 667 l 779 96 q 801 44 779 65 q 853 24 822 24 l 853 0 l 504 0 l 504 78 q 315 0 436 0 q 233 15 269 0 q 172 49 196 29 q 132 106 149 69 q 107 172 115 142 q 94 248 99 201 q 90 323 90 294 q 89 397 89 351 l 89 504 q 67 556 89 535 q 15 576 46 576 l 15 600 z "},"v":{"ha":896,"x_min":21,"x_max":874,"o":"m 21 667 l 415 667 l 415 642 q 393 633 400 642 q 387 611 386 625 q 390 585 388 597 q 397 563 393 574 l 533 240 q 586 445 578 354 q 563 589 594 536 q 467 642 532 642 l 467 667 l 874 667 l 874 642 q 725 522 814 642 q 549 225 636 403 q 450 0 500 125 l 354 0 l 115 571 q 21 642 85 642 l 21 667 z "},"w":{"ha":1340,"x_min":21,"x_max":1319,"o":"m 21 667 l 415 667 l 415 642 q 394 633 401 642 q 388 611 388 624 q 390 588 388 599 q 394 571 392 578 l 533 240 l 626 413 l 561 568 q 465 642 531 642 l 465 667 l 860 667 l 860 642 q 838 633 844 642 q 833 610 832 624 q 836 584 833 596 q 843 561 839 572 l 978 240 q 1031 445 1024 354 q 1008 589 1039 536 q 911 642 978 642 l 911 667 l 1319 667 l 1319 642 q 1220 578 1279 642 q 1102 420 1161 515 q 986 208 1043 325 q 894 0 939 114 l 799 0 l 638 385 l 544 211 q 450 0 501 131 l 354 0 l 115 569 q 21 642 86 642 l 21 667 z "},"x":{"ha":810,"x_min":21,"x_max":789,"o":"m 21 642 l 21 667 l 404 667 l 404 642 q 383 631 389 642 q 384 601 378 619 q 399 565 390 583 q 422 525 408 547 q 510 385 453 475 q 542 463 529 419 q 556 547 556 506 q 535 615 557 588 q 467 642 513 642 l 467 667 l 789 667 l 789 642 q 759 634 775 642 q 724 608 743 626 q 688 573 704 590 q 647 526 671 556 q 606 476 622 496 q 563 419 590 456 q 521 365 535 383 q 688 96 685 100 q 733 45 706 67 q 789 24 761 24 l 789 0 l 404 0 l 404 24 q 426 35 421 25 q 425 64 431 46 q 410 100 419 82 q 388 140 401 118 q 300 282 357 190 q 267 203 279 246 q 253 120 254 161 q 275 51 253 79 q 343 24 297 24 l 343 0 l 21 0 l 21 24 q 48 31 33 24 q 76 49 63 39 q 109 79 90 60 q 142 115 128 99 q 178 158 157 132 q 215 204 200 185 q 252 253 229 224 q 289 300 275 283 q 122 569 161 507 q 76 621 104 600 q 21 642 49 642 z "},"y":{"ha":896,"x_min":21,"x_max":874,"o":"m 21 667 l 415 667 l 415 642 q 399 638 406 642 q 390 626 393 633 q 388 611 388 619 q 389 595 388 603 q 392 581 390 588 q 394 571 393 575 l 533 240 q 586 445 578 354 q 564 589 594 536 q 467 642 533 642 l 467 667 l 874 667 l 874 642 q 724 520 814 642 q 546 218 633 399 q 450 1 507 139 q 433 -44 446 -11 q 412 -96 419 -78 q 390 -146 404 -114 q 363 -197 375 -178 q 333 -239 351 -215 q 295 -276 314 -262 q 252 -298 276 -289 q 200 -307 228 -307 q 99 -254 142 -306 q 53 -139 56 -203 q 59 -81 51 -108 q 83 -31 67 -54 q 130 5 100 -8 q 199 19 160 18 q 256 3 231 21 q 249 -42 250 -17 q 252 -93 249 -67 q 269 -138 256 -119 q 307 -158 283 -157 q 334 -152 321 -160 q 359 -129 347 -144 q 379 -101 371 -114 q 398 -64 388 -87 q 413 -31 408 -40 q 425 0 417 -21 l 354 0 l 119 560 q 82 620 104 599 q 21 642 60 642 l 21 667 z "},"z":{"ha":751,"x_min":22,"x_max":729,"o":"m 721 642 q 631 489 681 572 q 542 340 581 406 q 449 186 503 275 q 358 36 394 97 q 463 74 415 50 q 549 135 511 99 q 609 220 588 171 q 631 328 631 269 l 654 326 q 729 24 654 43 l 729 0 l 31 0 l 31 24 l 393 629 q 198 527 275 603 q 121 339 121 451 l 96 339 q 22 642 96 622 l 22 667 l 721 667 l 721 642 z "},"{":{"ha":533,"x_min":36,"x_max":574,"o":"m 574 1114 q 486 1079 515 1114 q 453 989 457 1044 q 456 867 450 933 q 465 733 461 800 q 461 611 468 667 q 417 521 454 556 q 311 486 379 486 l 311 463 q 414 429 378 463 q 458 342 450 396 q 462 225 465 289 q 453 97 458 161 q 453 -22 449 32 q 486 -108 457 -75 q 574 -140 515 -140 l 574 -165 q 349 -144 439 -165 q 219 -86 258 -122 q 164 -3 179 -50 q 156 97 149 44 q 176 201 164 149 q 196 300 188 253 q 197 383 204 347 q 150 441 189 419 q 36 463 111 463 l 36 486 q 151 508 111 486 q 197 569 190 531 q 197 656 204 607 q 176 758 189 704 q 156 867 164 813 q 163 969 149 921 q 217 1056 178 1018 q 347 1115 257 1093 q 574 1138 438 1138 l 574 1114 z "},"|":{"ha":414,"x_min":69,"x_max":344,"o":"m 344 -165 l 69 -165 l 69 1138 l 344 1138 l 344 -165 z "},"}":{"ha":533,"x_min":-40,"x_max":497,"o":"m 497 463 q 383 441 422 463 q 337 383 344 419 q 337 300 329 347 q 357 201 344 253 q 377 97 369 149 q 369 -3 385 44 q 314 -86 354 -50 q 184 -144 274 -122 q -40 -165 94 -165 l -40 -140 q 47 -108 18 -140 q 80 -22 76 -75 q 79 97 83 32 q 72 225 75 161 q 76 342 68 289 q 119 429 83 396 q 222 463 156 463 l 222 486 q 117 521 154 486 q 72 611 79 556 q 68 733 64 667 q 78 867 72 800 q 80 989 83 933 q 47 1079 76 1044 q -40 1114 18 1114 l -40 1138 q 136 1124 61 1138 q 258 1092 211 1111 q 331 1038 304 1074 q 369 976 358 1003 q 378 899 381 949 q 371 822 376 850 q 353 742 365 794 q 337 661 342 688 q 333 594 332 635 q 349 535 333 554 q 401 501 365 517 q 497 486 438 486 l 497 463 z "},"~":{"ha":524,"x_min":44,"x_max":478,"o":"m 378 972 q 436 955 413 971 q 469 916 460 939 q 476 865 478 893 q 449 787 475 821 q 383 753 422 753 q 249 864 307 753 q 193 854 215 928 q 183 764 181 806 q 144 753 165 751 q 69 785 93 754 q 46 860 44 817 q 74 938 49 904 q 139 972 100 972 q 274 861 215 974 q 329 871 307 797 q 340 961 343 919 q 378 972 357 974 z "}," ":{"ha":347,"x_min":0,"x_max":0,"o":""},"¡":{"ha":404,"x_min":-69,"x_max":472,"o":"m 280 803 q 264 787 280 803 q 202 771 247 771 q 124 803 157 771 q 92 881 92 835 q 124 958 92 926 q 201 990 157 990 q 257 976 232 990 q 297 935 282 961 q 313 881 313 910 q 280 803 313 835 m 214 746 q 224 718 217 739 q 201 0 472 0 q 181 718 -69 0 q 190 746 188 739 l 214 746 z "},"¤":{"ha":814,"x_min":56,"x_max":757,"o":"m 647 710 q 757 487 757 619 q 647 264 757 354 l 732 179 l 714 161 l 628 249 q 406 181 531 181 q 186 249 282 181 l 99 161 l 82 179 l 167 264 q 56 487 56 354 q 167 710 56 619 l 82 794 l 99 811 l 186 725 q 406 793 282 793 q 628 725 531 793 l 714 811 l 732 794 l 647 710 m 337 285 q 351 243 337 285 q 406 201 365 201 q 476 285 447 201 q 506 486 506 368 q 476 688 506 604 q 406 771 447 771 q 337 688 365 771 q 308 486 308 604 q 337 285 308 368 z "},"¥":{"ha":888,"x_min":33,"x_max":853,"o":"m 453 972 q 653 972 514 972 q 853 972 792 972 l 853 949 q 535 371 728 949 l 535 364 l 668 364 l 668 340 l 535 340 l 535 236 l 668 236 l 668 213 l 535 213 l 535 107 q 553 47 535 71 q 607 24 572 24 l 607 0 l 186 0 l 186 24 q 238 44 217 24 q 260 96 260 65 l 260 213 l 125 213 l 125 236 l 260 236 l 260 340 l 125 340 l 125 364 l 260 364 l 260 371 l 122 872 q 90 927 113 906 q 33 949 67 949 l 33 974 q 206 974 90 974 q 378 974 321 974 q 442 715 396 889 q 522 422 488 540 q 553 553 540 490 q 570 686 565 615 q 567 810 575 757 q 531 902 560 864 q 453 949 501 940 l 453 972 z "},"¦":{"ha":414,"x_min":69,"x_max":344,"o":"m 344 -165 l 69 -165 l 69 475 l 344 475 l 344 -165 m 344 499 l 69 499 l 69 1138 l 344 1138 l 344 499 z "},"§":{"ha":1132,"x_min":54,"x_max":1075,"o":"m 569 1010 q 593 909 567 956 q 663 828 619 863 q 760 763 707 794 q 868 698 814 731 q 967 630 922 665 q 1042 547 1013 594 q 1072 442 1071 499 q 1050 330 1074 381 q 985 246 1026 279 q 891 193 943 213 q 779 167 839 174 q 788 114 786 140 q 760 -10 789 44 q 680 -98 731 -65 q 568 -147 629 -131 q 442 -165 507 -164 q 253 -140 339 -165 q 110 -58 167 -115 q 57 79 54 -1 q 106 191 58 147 q 239 232 153 235 q 307 208 283 231 q 304 134 306 176 q 312 44 303 92 q 335 -45 321 -4 q 381 -112 350 -86 q 456 -139 413 -139 q 529 -111 499 -139 q 561 -36 560 -83 q 542 53 563 11 q 488 125 522 94 q 408 186 453 156 q 315 242 363 217 q 222 299 268 268 q 140 362 176 331 q 81 437 104 393 q 57 531 58 481 q 79 644 56 593 q 145 727 103 694 q 240 780 188 760 q 350 806 292 800 q 342 860 343 832 q 370 983 340 928 q 450 1070 400 1038 q 561 1120 500 1103 q 689 1138 622 1138 q 877 1113 792 1139 q 1019 1031 963 1088 q 1072 893 1075 974 q 1024 782 1071 825 q 892 740 978 739 q 822 765 847 742 q 826 839 824 796 q 818 931 828 882 q 794 1019 808 979 q 748 1087 779 1060 q 674 1114 717 1114 q 601 1085 632 1114 q 569 1010 571 1056 m 769 193 q 808 212 792 199 q 835 246 825 225 q 846 292 846 267 q 819 397 849 349 q 743 479 789 446 q 639 549 697 513 q 527 615 581 585 q 426 690 474 646 q 360 782 379 733 q 306 745 326 772 q 283 681 285 718 q 311 576 282 625 q 386 494 340 528 q 490 425 432 461 q 602 358 549 389 q 703 284 656 328 q 769 193 750 240 z "},"©":{"ha":1419,"x_min":58,"x_max":1361,"o":"m 457 1086 q 517 1112 457 1086 q 710 1138 578 1138 q 963 1086 842 1138 q 1171 947 1083 1035 q 1310 740 1258 860 q 1361 486 1361 619 q 1328 281 1361 381 q 1235 101 1296 182 q 1095 -39 1175 21 q 915 -132 1015 -99 q 710 -165 815 -165 q 457 -113 578 -165 q 249 26 336 -61 q 110 233 161 113 q 58 487 58 354 q 110 740 58 619 q 249 947 161 860 q 457 1086 336 1035 m 466 -91 q 524 -116 466 -91 q 710 -140 582 -140 q 953 -91 838 -140 q 1153 42 1069 -42 q 1287 242 1238 126 q 1336 486 1336 358 q 1287 730 1336 614 q 1153 930 1238 846 q 953 1064 1069 1014 q 710 1114 838 1114 q 466 1064 582 1114 q 266 930 350 1014 q 133 730 182 846 q 83 486 83 614 q 133 242 83 358 q 266 42 182 126 q 466 -91 350 -42 m 850 261 q 967 292 913 264 q 1060 368 1022 319 q 1107 478 1099 417 l 1131 478 q 1074 238 1131 347 q 921 64 1018 128 q 710 0 824 0 q 499 65 596 0 q 344 242 401 131 q 288 486 288 354 q 344 731 288 618 q 499 908 401 843 q 710 972 596 972 q 1014 843 906 972 q 1085 642 1096 747 q 983 507 1074 540 q 904 495 949 494 q 835 521 860 496 q 801 833 833 717 q 710 949 769 949 q 614 839 653 949 q 585 536 563 699 q 742 279 611 336 q 850 261 790 258 z "},"ª":{"ha":644,"x_min":49,"x_max":599,"o":"m 546 564 q 561 527 546 542 q 599 513 576 513 l 599 494 l 349 494 l 349 544 q 218 494 300 494 q 93 533 138 494 q 49 626 49 572 q 94 718 49 679 q 219 757 139 757 q 349 708 300 757 l 349 758 q 300 956 350 956 q 282 948 289 956 q 273 926 275 940 q 269 898 271 913 q 269 865 268 883 q 272 833 271 846 q 276 805 274 819 q 278 788 278 790 q 228 775 265 775 q 150 791 178 774 q 124 851 122 808 q 171 936 125 900 q 307 972 217 972 q 478 915 411 972 q 546 754 546 857 q 546 659 546 686 q 546 564 546 632 m 349 569 q 349 685 349 631 q 310 706 331 706 q 263 682 281 707 q 246 625 246 657 q 263 569 246 593 q 308 546 279 544 q 349 569 331 547 z "},"«":{"ha":669,"x_min":40,"x_max":629,"o":"m 517 686 l 64 469 l 517 251 l 504 231 l 40 456 l 40 483 l 504 707 l 517 686 m 629 686 l 176 469 l 629 251 l 617 231 l 153 456 l 153 483 l 617 707 l 629 686 z "},"¬":{"ha":557,"x_min":36,"x_max":513,"o":"m 36 972 l 513 972 l 513 826 l 489 826 l 489 949 l 36 949 l 36 972 z "},"­":{"ha":0,"x_min":0,"x_max":0,"o":""},"®":{"ha":864,"x_min":54,"x_max":808,"o":"m 165 862 q 220 917 165 862 q 431 972 275 972 q 698 862 588 972 q 808 595 808 751 q 698 328 808 439 q 431 218 588 218 q 165 328 275 218 q 54 595 54 439 q 165 862 54 751 m 181 345 q 233 293 181 345 q 431 242 285 242 q 681 345 578 242 q 785 595 785 449 q 681 845 785 742 q 431 949 578 949 q 181 845 285 949 q 78 595 78 742 q 181 345 78 449 m 578 490 q 583 466 579 483 q 591 438 588 449 q 600 412 594 426 q 613 388 606 397 q 630 373 619 379 q 654 367 640 367 l 654 354 l 447 354 l 447 367 q 463 400 472 367 l 406 589 l 397 589 l 397 354 l 225 354 l 225 367 q 251 377 240 367 q 261 401 261 388 l 261 789 q 251 815 261 804 q 225 825 240 825 l 225 836 l 447 836 q 596 768 554 836 q 590 656 631 708 q 438 597 546 597 l 438 589 q 578 490 550 582 m 397 601 q 453 633 436 601 q 472 707 471 665 q 453 789 474 753 q 397 825 433 825 l 397 601 z "},"¯":{"ha":531,"x_min":26,"x_max":503,"o":"m 503 949 l 26 949 l 26 972 l 503 972 l 503 949 z "},"°":{"ha":313,"x_min":46,"x_max":265,"o":"m 78 940 q 94 956 78 940 q 156 972 110 972 q 233 940 201 972 q 265 863 265 908 q 233 785 265 817 q 156 753 201 753 q 78 785 110 753 q 46 863 46 817 q 78 940 46 908 m 95 801 q 108 789 95 801 q 156 776 121 776 q 217 801 192 776 q 242 863 242 826 q 217 924 242 899 q 156 949 192 949 q 95 924 121 949 q 69 863 69 899 q 95 801 69 826 z "},"±":{"ha":564,"x_min":43,"x_max":519,"o":"m 43 185 l 43 208 l 519 208 l 519 185 l 43 185 m 43 460 l 43 483 l 269 483 l 269 710 l 293 710 l 293 483 l 519 483 l 519 460 l 293 460 l 293 233 l 269 233 l 269 460 l 43 460 z "},"²":{"ha":469,"x_min":56,"x_max":415,"o":"m 365 624 q 391 635 381 624 q 401 661 401 646 l 414 661 l 414 486 l 56 486 l 56 546 q 56 562 56 551 q 56 577 56 572 q 56 591 56 582 q 58 606 57 600 q 61 618 58 611 q 67 631 64 625 q 75 641 69 636 q 88 651 81 646 q 125 669 99 658 q 172 692 151 681 q 214 722 192 703 q 249 773 236 742 q 265 847 263 804 q 265 895 267 874 q 258 931 263 917 q 248 953 254 944 q 235 961 242 961 q 188 849 201 961 q 181 747 182 804 q 147 735 169 735 q 78 758 101 733 q 56 821 56 783 q 112 933 58 893 q 238 973 165 974 q 363 933 310 972 q 414 824 415 893 q 392 737 413 772 q 339 686 371 701 q 268 661 307 671 q 194 649 229 651 q 127 641 158 647 q 83 624 96 635 l 365 624 z "},"³":{"ha":492,"x_min":51,"x_max":439,"o":"m 294 724 q 375 701 342 721 q 424 656 408 682 q 438 600 439 629 q 374 515 435 543 q 235 486 314 486 q 104 517 157 488 q 53 597 51 546 q 78 655 53 632 q 144 672 103 678 q 175 658 164 669 q 172 594 171 622 q 192 522 174 547 q 235 497 210 497 q 279 529 260 497 q 299 614 299 561 q 288 674 299 650 q 256 707 278 697 q 217 719 235 717 q 172 722 200 722 l 172 735 q 238 751 214 735 q 268 794 261 768 q 274 863 275 821 q 258 936 271 910 q 228 961 246 963 q 199 933 211 961 q 188 858 186 906 q 196 774 189 833 q 156 761 182 760 q 110 774 129 763 q 82 804 90 786 q 74 844 74 822 q 122 937 74 903 q 239 972 171 971 q 360 944 308 974 q 411 850 411 914 q 380 774 411 808 q 294 732 349 739 l 294 724 z "},"µ":{"ha":932,"x_min":43,"x_max":881,"o":"m 807 96 q 828 44 807 65 q 881 24 850 24 l 881 0 l 532 0 l 532 239 q 343 163 464 163 q 247 182 288 163 q 182 232 206 201 q 144 308 158 263 q 124 394 129 353 q 117 488 118 435 q 117 490 117 488 q 117 560 117 518 l 117 667 q 95 718 117 697 q 43 739 74 739 l 43 763 l 390 828 l 390 490 q 469 233 390 231 q 532 275 504 235 l 532 811 q 510 863 532 842 q 458 883 489 883 l 458 907 l 807 972 l 807 96 z "},"¶":{"ha":1068,"x_min":43,"x_max":1015,"o":"m 1015 949 q 963 928 985 949 q 942 876 942 907 l 942 96 q 963 44 942 65 q 1015 24 985 24 l 1015 0 l 844 0 l 844 24 q 897 44 875 24 q 918 96 918 65 l 918 876 q 897 928 918 907 q 844 949 875 949 l 821 949 q 766 924 785 949 q 747 864 747 900 l 747 96 q 769 44 747 65 q 821 24 790 24 l 821 0 l 400 0 l 400 24 q 452 44 431 24 q 474 96 474 65 l 474 471 l 372 471 q 132 543 218 471 q 44 715 46 615 q 130 896 43 819 q 372 972 217 972 l 1015 972 l 1015 949 z "},"¹":{"ha":315,"x_min":53,"x_max":264,"o":"m 226 535 q 238 509 226 519 q 264 499 249 499 l 264 486 l 53 486 l 53 499 q 71 503 63 499 q 84 517 79 508 q 89 535 89 525 l 89 892 q 78 917 89 907 q 53 928 68 928 l 53 940 l 226 972 l 226 535 z "},"»":{"ha":671,"x_min":42,"x_max":631,"o":"m 518 482 l 518 454 l 54 231 l 42 251 l 494 468 l 42 686 l 54 707 l 518 482 m 631 482 l 631 454 l 165 231 l 154 251 l 606 468 l 154 686 l 165 707 l 631 482 z "},"¼":{"ha":1183,"x_min":56,"x_max":1136,"o":"m 586 972 l 610 972 l 381 0 l 357 0 l 586 972 m 382 236 l 382 218 l 56 218 l 56 236 q 96 253 79 236 q 113 292 113 269 l 113 847 q 105 876 113 863 q 84 896 97 889 q 56 903 71 903 l 56 921 l 325 972 l 325 292 q 342 253 325 269 q 382 236 358 236 m 1136 457 q 1108 449 1121 457 q 1087 429 1094 442 q 1079 401 1079 417 l 1079 325 l 1136 325 l 1136 306 l 1079 306 l 1079 75 q 1096 35 1079 51 q 1136 19 1113 19 l 1136 0 l 808 0 l 808 19 q 849 35 832 19 q 865 75 865 51 l 865 306 l 549 306 l 549 325 q 617 376 599 325 q 628 495 636 428 q 604 624 621 563 q 572 708 588 685 q 733 756 671 756 q 856 626 847 756 q 799 426 864 504 q 622 325 733 349 l 865 325 l 865 475 l 1136 475 l 1136 457 z "},"½":{"ha":1156,"x_min":56,"x_max":1096,"o":"m 382 236 l 382 218 l 56 218 l 56 236 q 96 253 79 236 q 113 292 113 269 l 113 847 q 105 876 113 863 q 84 896 97 889 q 56 903 71 903 l 56 921 l 325 972 l 325 292 q 342 253 325 269 q 382 236 358 236 m 586 972 l 610 972 l 381 0 l 357 0 l 586 972 m 1021 214 q 1060 231 1044 214 q 1076 271 1076 247 l 1094 271 l 1094 0 l 540 0 l 540 92 q 540 119 540 100 q 539 147 539 139 q 540 172 539 156 q 545 197 542 188 q 553 217 549 206 q 567 238 558 229 q 588 256 576 247 q 648 284 607 267 q 720 319 689 301 q 785 367 751 338 q 840 445 819 396 q 864 561 860 494 q 855 688 869 639 q 818 736 840 736 q 776 693 796 736 q 743 563 756 650 q 733 404 735 494 q 681 385 714 385 q 574 422 611 383 q 540 519 538 461 q 626 694 543 632 q 821 756 710 756 q 954 729 893 754 q 1056 650 1015 704 q 1094 524 1096 596 q 1060 388 1093 443 q 979 310 1028 333 q 869 272 931 286 q 752 253 807 257 q 649 240 697 250 q 582 214 601 231 l 1021 214 z "},"¾":{"ha":1417,"x_min":53,"x_max":1368,"o":"m 818 972 l 843 972 l 613 0 l 589 0 l 818 972 m 651 394 q 599 293 649 335 q 482 235 550 251 q 336 218 414 218 q 134 264 215 218 q 54 389 53 310 q 94 478 56 443 q 196 506 132 514 q 243 483 226 501 q 240 386 239 429 q 271 272 243 311 q 336 233 299 233 q 406 284 376 233 q 436 415 436 335 q 424 494 436 461 q 394 543 411 526 q 347 569 376 560 q 295 581 317 579 q 240 583 274 583 l 240 603 q 367 653 333 603 q 396 801 401 703 q 374 915 393 875 q 326 956 354 956 q 281 912 300 954 q 264 794 261 869 q 276 664 265 757 q 214 644 256 643 q 119 683 151 646 q 86 774 86 719 q 161 917 86 864 q 343 972 236 971 q 439 963 393 974 q 524 931 485 953 q 586 872 563 910 q 610 783 610 833 q 562 665 610 718 q 431 600 514 611 l 431 586 q 596 523 538 579 q 651 394 654 467 m 1368 457 q 1328 440 1344 457 q 1311 400 1311 424 l 1311 325 l 1368 325 l 1368 306 l 1311 306 l 1311 75 q 1328 35 1311 51 q 1368 19 1344 19 l 1368 0 l 1042 0 l 1042 19 q 1082 35 1065 19 q 1099 75 1099 51 l 1099 306 l 782 306 l 782 325 q 850 376 831 325 q 861 495 869 428 q 837 624 853 563 q 804 708 821 685 q 967 756 903 756 q 1088 626 1079 756 q 1031 426 1096 504 q 854 325 967 349 l 1099 325 l 1099 475 l 1368 475 l 1368 457 z "},"¿":{"ha":822,"x_min":44,"x_max":779,"o":"m 518 754 q 463 769 488 754 q 423 809 438 783 q 408 864 408 835 q 440 942 408 910 q 518 975 472 975 q 596 942 564 975 q 628 865 628 910 q 596 787 628 819 q 518 754 564 754 m 46 279 q 74 380 47 335 q 140 456 100 425 q 230 513 181 486 q 327 561 279 539 q 415 607 375 583 q 481 661 456 631 q 506 729 506 692 l 529 729 q 518 622 529 671 q 488 540 507 574 q 446 473 469 506 q 398 415 422 440 q 350 359 374 390 q 308 297 326 328 q 281 223 290 267 q 272 129 271 179 q 304 54 274 82 q 378 26 335 26 q 452 53 421 26 q 498 120 483 79 q 522 209 513 161 q 529 299 531 257 q 526 374 528 342 q 594 397 551 397 q 728 356 681 399 q 776 244 775 313 q 723 107 779 164 q 581 25 667 50 q 392 0 494 0 q 265 18 326 1 q 153 67 204 35 q 74 155 103 100 q 46 279 44 210 z "},"À":{"ha":958,"x_min":21,"x_max":936,"o":"m 836 132 q 936 24 858 25 l 936 0 l 506 0 l 506 24 q 551 49 539 24 q 556 108 564 75 l 479 474 l 282 474 q 273 374 274 431 q 287 255 272 317 q 323 142 301 193 q 379 57 344 90 q 454 24 414 24 l 454 0 l 21 0 l 21 24 q 83 67 50 24 q 149 190 117 111 q 210 353 181 268 q 267 544 239 438 q 315 723 296 650 q 353 878 333 796 q 344 928 360 907 q 299 949 329 949 l 299 972 q 435 972 347 972 q 596 972 524 972 q 732 972 668 972 l 732 949 q 686 928 700 949 q 678 876 672 907 l 836 132 m 288 499 l 475 499 l 386 918 l 288 499 m 406 1049 q 338 1110 343 1061 q 369 1175 333 1153 q 475 1154 418 1206 q 619 1024 479 1150 q 611 1008 617 1017 q 570 1016 592 1011 q 528 1024 549 1021 q 488 1032 508 1028 q 446 1040 468 1036 q 406 1049 424 1044 z "},"Á":{"ha":958,"x_min":21,"x_max":936,"o":"m 582 1049 q 378 1008 503 1033 q 368 1024 372 1017 q 513 1154 464 1111 q 622 1172 574 1208 q 649 1104 658 1146 q 582 1049 640 1060 m 836 132 q 870 55 846 85 q 936 24 894 25 l 936 0 l 506 0 l 506 24 q 551 49 539 24 q 557 108 564 75 l 479 474 l 282 474 q 273 374 274 431 q 287 255 272 317 q 323 142 301 193 q 379 57 344 90 q 454 24 414 24 l 454 0 l 21 0 l 21 24 q 83 67 50 24 q 149 190 117 111 q 210 353 181 268 q 267 544 239 438 q 315 723 296 650 q 353 878 333 796 q 352 913 357 896 q 333 939 347 929 q 299 949 319 949 l 299 972 l 732 972 l 732 949 q 685 928 700 949 q 678 876 671 907 l 836 132 m 288 499 l 475 499 l 386 918 l 288 499 z "},"Â":{"ha":958,"x_min":21,"x_max":936,"o":"m 438 1068 q 346 1010 404 997 q 293 1057 306 1018 q 333 1139 279 1106 q 417 1185 365 1158 q 494 1228 468 1213 q 572 1185 521 1213 q 656 1139 624 1158 q 694 1053 714 1104 q 636 1008 679 1014 q 550 1068 582 1001 l 494 1186 l 438 1068 m 836 132 q 936 24 858 25 l 936 0 l 506 0 l 506 24 q 551 49 539 24 q 557 108 564 75 l 479 474 l 282 474 q 273 374 274 431 q 287 255 272 317 q 323 142 301 193 q 379 57 344 90 q 454 24 414 24 l 454 0 l 21 0 l 21 24 q 83 67 50 24 q 149 190 117 111 q 210 353 181 268 q 267 544 239 438 q 315 723 296 650 q 353 878 333 796 q 352 913 357 896 q 333 939 347 929 q 299 949 319 949 l 299 972 l 732 972 l 732 949 q 686 928 700 949 q 678 876 672 907 l 836 132 m 288 499 l 475 499 l 386 918 l 288 499 z "},"Ã":{"ha":958,"x_min":21,"x_max":936,"o":"m 361 1008 q 303 1025 326 1008 q 272 1065 281 1042 q 264 1115 263 1088 q 292 1194 265 1160 q 357 1228 318 1228 q 492 1117 432 1228 q 546 1126 525 1053 q 557 1215 560 1175 q 596 1228 574 1228 q 672 1195 647 1226 q 693 1121 696 1164 q 665 1042 692 1076 q 600 1008 639 1008 q 465 1119 525 1007 q 411 1108 432 1183 q 400 1019 397 1061 q 361 1008 383 1007 m 835 132 q 870 55 846 85 q 936 24 894 25 l 936 0 l 506 0 l 506 24 q 551 49 539 24 q 557 108 564 75 l 479 474 l 282 474 q 273 374 274 431 q 287 255 272 317 q 323 142 301 193 q 379 57 344 90 q 454 24 414 24 l 454 0 l 21 0 l 21 24 q 83 67 50 24 q 149 190 117 111 q 209 353 181 268 q 267 544 238 438 q 315 723 296 650 q 353 878 333 796 q 352 913 357 896 q 333 939 347 929 q 299 949 319 949 l 299 972 q 435 972 347 972 q 596 972 524 972 q 732 972 668 972 l 732 949 q 685 928 700 949 q 678 876 671 907 l 835 132 m 288 499 l 474 499 l 386 918 l 288 499 z "},"Ä":{"ha":958,"x_min":21,"x_max":936,"o":"m 688 1040 q 672 1024 688 1040 q 610 1008 656 1008 q 533 1040 565 1008 q 500 1118 500 1072 q 533 1196 500 1164 q 610 1228 565 1228 q 688 1196 656 1228 q 721 1118 721 1164 q 688 1040 721 1072 m 836 132 q 936 24 858 25 l 936 0 l 506 0 l 506 24 q 551 49 539 24 q 557 108 564 75 l 479 474 l 282 474 q 273 374 274 431 q 287 255 272 317 q 323 142 301 193 q 379 57 344 90 q 454 24 414 24 l 454 0 l 21 0 l 21 24 q 83 67 50 24 q 149 190 117 111 q 210 353 181 268 q 267 544 239 438 q 315 723 296 650 q 353 878 333 796 q 344 928 360 907 q 299 949 329 949 l 299 972 q 435 972 347 972 q 596 972 524 972 q 732 972 668 972 l 732 949 q 686 928 700 949 q 678 876 672 907 l 836 132 m 288 499 l 475 499 l 386 918 l 288 499 m 444 1040 q 428 1024 444 1040 q 367 1008 413 1008 q 289 1040 321 1008 q 257 1118 257 1072 q 289 1196 257 1164 q 367 1228 321 1228 q 444 1196 413 1228 q 476 1118 476 1164 q 444 1040 476 1072 z "},"Å":{"ha":958,"x_min":21,"x_max":936,"o":"m 568 1040 q 552 1024 568 1040 q 490 1008 536 1008 q 413 1040 444 1008 q 381 1118 381 1072 q 413 1196 381 1164 q 490 1228 444 1228 q 568 1196 536 1228 q 600 1118 600 1164 q 568 1040 600 1072 m 551 1178 q 538 1191 551 1178 q 490 1204 525 1204 q 429 1178 454 1204 q 404 1117 404 1153 q 429 1057 404 1082 q 490 1032 454 1032 q 551 1057 525 1032 q 576 1117 576 1082 q 551 1178 576 1153 m 836 132 q 936 24 858 25 l 936 0 l 506 0 l 506 24 q 551 49 539 24 q 557 108 564 75 l 479 474 l 282 474 q 273 374 274 431 q 287 255 272 317 q 323 142 301 193 q 379 57 344 90 q 454 24 414 24 l 454 0 l 21 0 l 21 24 q 83 67 50 24 q 149 190 117 111 q 210 353 181 268 q 267 544 239 438 q 315 723 296 650 q 353 878 333 796 q 352 913 357 896 q 333 939 347 929 q 299 949 319 949 l 299 972 q 435 972 347 972 q 596 972 524 972 q 732 972 668 972 l 732 949 q 697 938 711 949 q 678 912 683 928 q 678 876 674 896 l 836 132 m 288 499 l 475 499 l 386 918 l 288 499 z "},"Æ":{"ha":1104,"x_min":21,"x_max":1076,"o":"m 1076 949 q 1051 932 1063 944 q 1033 899 1040 919 q 1019 856 1025 878 q 1010 803 1013 835 q 1005 747 1007 771 q 1003 690 1003 724 q 1003 637 1003 656 q 1003 588 1003 618 q 1003 551 1003 558 l 979 551 q 956 651 978 588 q 900 783 933 715 q 819 899 867 850 q 726 949 771 949 l 726 494 q 801 518 765 494 q 857 581 836 542 q 878 667 878 621 l 901 667 l 901 306 l 878 306 q 833 426 878 375 q 726 478 788 478 l 726 24 q 819 73 771 24 q 900 189 867 122 q 956 320 933 256 q 979 419 978 385 l 1003 419 q 1003 384 1003 414 q 1003 335 1003 354 q 1003 283 1003 317 q 1005 224 1003 249 q 1010 169 1007 200 q 1019 116 1013 138 q 1033 74 1025 94 q 1051 40 1040 53 q 1076 24 1063 28 l 1076 0 l 506 0 l 506 24 q 551 49 539 24 q 557 108 564 75 l 479 474 l 282 474 q 273 374 274 431 q 287 255 272 317 q 323 142 301 193 q 379 57 344 90 q 454 24 414 24 l 454 0 l 21 0 l 21 24 q 83 67 50 24 q 149 190 117 111 q 210 353 181 268 q 267 544 239 438 q 315 723 296 650 q 353 878 333 796 q 344 928 360 907 q 299 949 329 949 l 299 972 l 1076 972 l 1076 949 m 288 499 l 475 499 l 386 918 l 288 499 z "},"Ç":{"ha":899,"x_min":29,"x_max":872,"o":"m 529 8 q 464 -26 465 -6 q 488 -50 464 -39 q 529 -69 514 -61 q 563 -93 544 -78 q 591 -127 582 -108 q 600 -169 600 -146 q 565 -235 599 -208 q 486 -262 531 -261 q 435 -255 458 -264 q 397 -222 413 -246 q 379 -165 381 -199 q 392 -126 379 -143 q 481 -128 438 -140 q 467 -76 528 -114 q 429 -38 436 -60 q 438 0 422 -17 q 232 70 326 4 q 83 247 138 136 q 29 486 29 357 q 63 675 29 585 q 152 831 96 765 q 287 934 208 896 q 451 972 365 972 q 756 843 646 972 q 825 642 836 747 q 725 507 815 540 q 645 495 689 494 q 576 521 601 496 q 542 833 575 717 q 451 949 510 949 q 354 839 394 949 q 325 536 304 699 q 483 279 353 336 q 592 261 531 258 q 760 326 686 265 q 849 478 835 386 l 872 478 q 774 172 872 304 q 529 8 676 40 z "},"È":{"ha":750,"x_min":25,"x_max":724,"o":"m 724 949 q 699 932 710 944 q 680 899 688 919 q 666 856 672 878 q 657 803 660 835 q 652 747 654 771 q 649 690 650 724 q 649 637 649 656 q 649 588 649 618 q 650 551 650 558 l 626 551 q 611 627 625 579 q 572 730 597 675 q 517 834 547 785 q 449 916 488 883 q 372 949 410 949 l 372 494 q 448 518 413 494 q 504 581 483 542 q 525 667 525 621 l 549 667 l 549 306 l 525 306 q 504 391 525 351 q 448 454 483 431 q 372 478 413 478 l 372 24 q 466 73 418 24 q 547 190 514 122 q 603 321 581 257 q 626 419 625 385 l 650 419 q 649 384 650 414 q 649 335 649 354 q 649 283 649 317 q 652 225 650 249 q 657 169 654 201 q 666 116 660 138 q 679 74 672 94 q 698 40 686 53 q 724 24 710 28 l 724 0 l 25 0 l 25 24 q 77 44 56 24 q 99 96 99 65 l 99 876 q 77 928 99 907 q 25 949 56 949 l 25 972 l 724 972 l 724 949 m 301 1049 q 233 1110 239 1061 q 265 1175 229 1153 q 371 1154 313 1206 q 515 1024 375 1150 q 507 1008 511 1017 q 403 1028 472 1015 q 301 1049 335 1042 z "},"É":{"ha":750,"x_min":25,"x_max":724,"o":"m 447 1049 q 242 1008 413 1042 q 233 1024 239 1013 q 278 1065 254 1043 q 332 1113 303 1086 q 378 1154 361 1139 q 488 1172 439 1208 q 514 1104 522 1146 q 447 1049 506 1060 m 724 949 q 699 932 710 944 q 680 899 688 919 q 666 856 672 878 q 657 803 660 835 q 652 747 654 771 q 649 690 650 724 q 649 637 649 656 q 649 588 649 618 q 650 551 650 558 l 626 551 q 611 627 625 579 q 572 730 597 675 q 517 834 547 785 q 449 916 488 883 q 372 949 410 949 l 372 494 q 448 518 413 494 q 504 581 483 542 q 525 667 525 621 l 549 667 l 549 306 l 525 306 q 504 391 525 351 q 448 454 483 431 q 372 478 413 478 l 372 24 q 449 56 410 24 q 517 138 488 89 q 572 242 547 188 q 611 345 597 297 q 626 419 625 393 l 650 419 q 649 384 650 414 q 649 335 649 354 q 649 283 649 317 q 652 225 650 249 q 657 169 654 201 q 666 116 660 138 q 679 74 672 94 q 698 40 686 53 q 724 24 710 28 l 724 0 l 25 0 l 25 24 q 77 44 56 24 q 99 96 99 65 l 99 876 q 77 928 99 907 q 25 949 56 949 l 25 972 l 724 972 l 724 949 z "},"Ê":{"ha":750,"x_min":25,"x_max":724,"o":"m 318 1068 q 226 1010 283 997 q 172 1057 185 1018 q 213 1139 157 1106 q 297 1185 244 1158 q 374 1228 349 1213 q 451 1185 400 1213 q 536 1139 503 1158 q 574 1054 593 1104 q 517 1008 560 1014 q 431 1068 463 1003 l 374 1186 l 318 1068 m 724 949 q 698 932 710 944 q 679 899 686 919 q 666 856 672 878 q 657 803 660 835 q 652 747 654 771 q 649 690 650 724 q 649 637 649 656 q 649 588 649 618 q 650 551 650 558 l 626 551 q 611 627 625 579 q 572 730 597 675 q 517 834 547 785 q 449 916 488 883 q 372 949 410 949 l 372 494 q 448 518 413 494 q 504 581 483 542 q 525 667 525 621 l 549 667 l 549 306 l 525 306 q 504 391 525 351 q 448 454 483 431 q 372 478 413 478 l 372 24 q 449 56 410 24 q 517 138 488 89 q 572 242 547 188 q 611 345 597 297 q 626 419 625 393 l 650 419 q 649 384 650 414 q 649 335 649 354 q 649 283 649 317 q 652 225 650 249 q 657 169 654 201 q 666 116 660 138 q 679 74 672 94 q 698 40 686 53 q 724 24 710 28 l 724 0 l 25 0 l 25 24 q 77 44 56 24 q 99 96 99 65 l 99 876 q 77 928 99 907 q 25 949 56 949 l 25 972 l 724 972 l 724 949 z "},"Ë":{"ha":750,"x_min":25,"x_max":724,"o":"m 585 1040 q 569 1024 585 1040 q 507 1008 553 1008 q 429 1040 461 1008 q 397 1118 397 1072 q 412 1173 397 1147 q 452 1213 426 1199 q 507 1228 478 1228 q 585 1196 553 1228 q 617 1118 617 1164 q 585 1040 617 1072 m 724 949 q 699 932 710 944 q 680 899 688 919 q 666 856 672 878 q 657 803 660 835 q 652 747 654 771 q 649 690 650 724 q 649 637 649 656 q 649 588 649 618 q 650 551 650 558 l 626 551 q 611 627 625 579 q 572 730 597 675 q 517 834 547 785 q 449 916 488 883 q 372 949 410 949 l 372 494 q 448 518 413 494 q 504 581 483 542 q 525 667 525 621 l 549 667 l 549 306 l 525 306 q 504 391 525 351 q 448 454 483 431 q 372 478 413 478 l 372 24 q 466 73 418 24 q 547 190 514 122 q 603 321 581 257 q 626 419 625 385 l 650 419 q 649 384 650 414 q 649 335 649 354 q 649 283 649 317 q 652 225 650 249 q 657 169 654 201 q 666 116 660 138 q 680 74 672 94 q 699 40 688 53 q 724 24 710 28 l 724 0 l 25 0 l 25 24 q 77 44 56 24 q 99 96 99 65 l 99 876 q 77 928 99 907 q 25 949 56 949 l 25 972 l 724 972 l 724 949 m 341 1040 q 325 1024 341 1040 q 263 1008 308 1008 q 185 1040 218 1008 q 153 1117 153 1072 q 185 1195 153 1163 q 263 1228 218 1228 q 341 1196 308 1228 q 374 1118 374 1164 q 341 1040 374 1072 z "},"Ì":{"ha":482,"x_min":25,"x_max":446,"o":"m 446 949 q 410 939 426 949 q 383 913 393 929 q 372 876 372 896 l 372 96 q 394 44 372 65 q 446 24 415 24 l 446 0 l 25 0 l 25 24 q 77 44 56 24 q 99 96 99 65 l 99 876 q 77 928 99 907 q 25 949 56 949 l 25 972 l 446 972 l 446 949 m 163 1049 q 94 1110 100 1061 q 126 1175 90 1153 q 232 1154 175 1206 q 376 1024 236 1150 q 368 1008 374 1019 q 265 1028 333 1015 q 163 1049 196 1042 z "},"Í":{"ha":482,"x_min":25,"x_max":446,"o":"m 308 1049 q 104 1008 272 1042 q 94 1024 100 1013 q 140 1065 115 1043 q 193 1113 164 1086 q 239 1154 222 1139 q 349 1172 300 1208 q 375 1104 383 1146 q 308 1049 367 1060 m 446 949 q 394 928 415 949 q 372 876 372 907 l 372 96 q 394 44 372 65 q 446 24 415 24 l 446 0 l 25 0 l 25 24 q 77 44 56 24 q 99 96 99 65 l 99 876 q 77 928 99 907 q 25 949 56 949 l 25 972 l 446 972 l 446 949 z "},"Î":{"ha":482,"x_min":19,"x_max":454,"o":"m 446 949 q 394 928 415 949 q 372 876 372 907 l 372 96 q 394 44 372 65 q 446 24 415 24 l 446 0 l 25 0 l 25 24 q 77 44 56 24 q 99 96 99 65 l 99 876 q 77 928 99 907 q 25 949 56 949 l 25 972 l 446 972 l 446 949 m 179 1068 q 88 1010 146 997 q 35 1057 47 1018 q 74 1139 19 1106 q 158 1185 107 1158 q 235 1228 210 1213 q 313 1185 261 1213 q 397 1139 364 1158 q 435 1053 454 1104 q 378 1008 419 1014 q 292 1068 324 1001 l 236 1186 l 179 1068 z "},"Ï":{"ha":472,"x_min":3,"x_max":467,"o":"m 435 1040 q 419 1024 435 1040 q 357 1008 403 1008 q 279 1040 311 1008 q 247 1117 247 1072 q 279 1195 247 1163 q 357 1228 311 1228 q 435 1196 403 1228 q 467 1118 467 1164 q 435 1040 467 1072 m 24 949 l 24 972 l 446 972 l 446 949 q 394 928 415 949 q 372 876 372 907 l 372 96 q 394 44 372 65 q 446 24 415 24 l 446 0 l 24 0 l 24 24 q 76 44 54 24 q 97 96 97 65 l 97 876 q 76 928 97 907 q 24 949 54 949 m 190 1040 q 174 1024 190 1040 q 113 1008 158 1008 q 35 1040 67 1008 q 3 1117 3 1072 q 35 1195 3 1163 q 113 1228 67 1228 q 168 1213 143 1228 q 208 1173 193 1199 q 222 1118 222 1147 q 190 1040 222 1072 z "},"Ð":{"ha":828,"x_min":29,"x_max":793,"o":"m 376 972 q 533 945 463 972 q 650 872 603 918 q 730 763 697 825 q 778 631 763 700 q 793 486 793 561 q 778 342 793 411 q 731 210 764 272 q 650 101 697 147 q 533 27 603 54 q 376 0 463 0 l 29 0 l 29 24 q 81 44 60 24 q 103 96 103 65 l 103 503 l 29 503 l 29 526 l 103 526 l 103 876 q 81 928 103 907 q 29 949 60 949 l 29 972 l 376 972 m 376 24 q 482 174 446 42 q 518 486 518 307 q 482 798 518 665 q 376 949 446 931 l 376 526 l 429 526 l 429 503 l 376 503 l 376 24 z "},"Ñ":{"ha":808,"x_min":28,"x_max":779,"o":"m 286 1008 q 211 1040 236 1010 q 189 1115 186 1071 q 217 1194 190 1160 q 282 1228 243 1228 q 417 1117 357 1228 q 471 1126 450 1053 q 482 1215 485 1175 q 521 1228 499 1228 q 597 1195 572 1226 q 619 1121 621 1164 q 590 1042 617 1076 q 525 1008 564 1008 q 392 1119 450 1007 q 336 1108 357 1183 q 325 1019 322 1061 q 286 1008 308 1007 m 779 949 q 707 418 708 949 q 706 285 706 353 q 706 161 706 218 q 707 96 707 104 q 728 44 707 65 q 779 24 749 24 l 779 0 l 429 0 l 126 897 q 133 753 125 851 q 160 530 140 656 q 209 292 181 404 q 282 101 238 179 q 378 24 326 24 l 378 0 l 28 0 l 28 24 q 101 554 100 24 q 101 876 101 554 q 80 928 101 907 q 28 949 58 949 l 28 972 l 385 972 l 681 96 q 660 344 678 207 q 613 622 643 482 q 535 855 583 761 q 431 949 486 949 l 431 972 l 779 972 l 779 949 z "},"Ò":{"ha":906,"x_min":31,"x_max":874,"o":"m 240 907 q 289 940 240 907 q 452 972 338 972 q 664 907 567 972 q 817 730 761 842 q 874 486 874 618 q 817 242 874 354 q 664 65 761 131 q 452 0 567 0 q 240 65 338 0 q 87 242 143 131 q 31 486 31 354 q 87 730 31 618 q 240 907 143 842 m 349 158 q 370 91 349 158 q 453 24 392 24 q 557 158 514 24 q 600 486 600 293 q 557 814 600 679 q 453 949 514 949 q 349 814 392 949 q 306 486 306 679 q 349 158 306 293 m 379 1049 q 311 1110 317 1061 q 343 1175 307 1153 q 449 1154 392 1206 q 593 1024 453 1150 q 585 1008 590 1018 q 484 1028 553 1014 q 379 1049 415 1042 z "},"Ó":{"ha":906,"x_min":31,"x_max":874,"o":"m 240 907 q 289 940 240 907 q 452 972 338 972 q 664 907 567 972 q 817 730 761 842 q 874 486 874 618 q 817 242 874 354 q 664 65 761 131 q 452 0 567 0 q 240 65 338 0 q 87 242 143 131 q 31 486 31 354 q 87 730 31 618 q 240 907 143 842 m 453 24 q 557 158 514 24 q 600 486 600 293 q 557 814 600 679 q 453 949 514 949 q 349 814 392 949 q 306 486 306 679 q 325 253 306 360 q 378 85 344 146 q 453 24 413 24 m 526 1049 q 321 1008 481 1039 q 311 1024 317 1014 q 357 1065 333 1043 q 410 1113 381 1086 q 456 1154 440 1139 q 565 1172 517 1208 q 592 1104 601 1146 q 526 1049 583 1060 z "},"Ô":{"ha":906,"x_min":31,"x_max":874,"o":"m 453 972 q 664 907 567 972 q 817 730 761 842 q 874 486 874 618 q 817 242 874 354 q 664 65 761 131 q 453 0 567 0 q 288 38 367 0 q 153 142 210 76 q 64 297 97 207 q 31 486 31 388 q 64 675 31 585 q 153 831 97 765 q 288 934 210 896 q 453 972 367 972 m 349 158 q 370 91 349 158 q 453 24 392 24 q 557 158 514 24 q 600 486 600 293 q 557 814 600 679 q 453 949 514 949 q 349 814 392 949 q 306 486 306 679 q 349 158 306 293 m 396 1068 q 306 1010 363 997 q 251 1057 264 1018 q 292 1139 236 1106 q 375 1185 324 1158 q 453 1228 426 1213 q 506 1199 476 1214 q 562 1169 535 1183 q 614 1139 589 1154 q 653 1053 672 1104 q 596 1008 638 1014 q 508 1068 540 1001 l 453 1186 l 396 1068 z "},"Õ":{"ha":906,"x_min":31,"x_max":874,"o":"m 335 1008 q 260 1040 285 1010 q 238 1115 235 1071 q 265 1194 239 1160 q 331 1228 292 1228 q 465 1117 406 1228 q 519 1126 499 1053 q 531 1215 533 1175 q 569 1228 547 1228 q 645 1195 621 1226 q 668 1121 669 1164 q 639 1042 665 1076 q 574 1008 613 1008 q 440 1119 499 1007 q 385 1108 406 1183 q 374 1019 371 1061 q 335 1008 357 1007 m 240 907 q 289 940 240 907 q 452 972 338 972 q 664 907 567 972 q 817 730 761 842 q 874 486 874 618 q 817 242 874 354 q 664 65 761 131 q 452 0 567 0 q 240 65 338 0 q 87 242 143 131 q 31 486 31 354 q 87 730 31 618 q 240 907 143 842 m 453 24 q 557 158 514 24 q 600 486 600 293 q 557 814 600 679 q 453 949 514 949 q 349 814 392 949 q 306 486 306 679 q 325 253 306 360 q 378 85 344 146 q 453 24 413 24 z "},"Ö":{"ha":906,"x_min":31,"x_max":874,"o":"m 652 1040 q 636 1024 652 1040 q 574 1008 619 1008 q 497 1040 529 1008 q 464 1117 464 1072 q 497 1195 464 1163 q 574 1228 529 1228 q 652 1196 619 1228 q 685 1118 685 1164 q 652 1040 685 1072 m 453 972 q 664 907 567 972 q 817 730 761 842 q 874 486 874 618 q 817 242 874 354 q 664 65 761 131 q 452 0 567 0 q 240 65 338 0 q 87 242 143 131 q 31 486 31 354 q 64 675 31 585 q 153 831 97 765 q 288 934 210 896 q 453 972 367 972 m 378 85 q 395 54 378 85 q 453 24 413 24 q 526 85 493 24 q 580 253 560 146 q 600 486 600 360 q 557 814 600 679 q 453 949 514 949 q 349 814 392 949 q 306 486 306 679 q 325 253 306 360 q 378 85 344 146 m 408 1040 q 392 1024 408 1040 q 331 1008 376 1008 q 253 1040 285 1008 q 221 1118 221 1072 q 253 1196 221 1164 q 331 1228 285 1228 q 408 1196 376 1228 q 440 1118 440 1164 q 408 1040 440 1072 z "},"×":{"ha":443,"x_min":44,"x_max":399,"o":"m 399 647 l 239 486 l 399 326 l 382 310 l 221 469 l 61 310 l 44 326 l 204 486 l 44 647 l 61 664 l 221 503 l 382 664 l 399 647 z "},"Ø":{"ha":906,"x_min":31,"x_max":875,"o":"m 601 942 q 799 765 722 889 q 874 486 875 640 q 817 242 874 354 q 664 65 761 131 q 453 0 567 0 q 325 22 388 0 l 318 0 l 294 0 l 304 31 q 106 208 182 83 q 31 486 31 332 q 64 675 31 585 q 153 831 97 765 q 288 934 210 896 q 453 972 367 972 q 579 950 518 972 l 586 972 l 611 972 l 601 942 m 306 486 q 346 168 306 301 l 547 842 q 453 949 506 949 q 349 814 392 949 q 306 486 306 679 m 453 24 q 557 158 514 24 q 600 486 600 293 q 560 804 600 671 l 358 131 q 453 24 399 24 z "},"Ù":{"ha":879,"x_min":21,"x_max":858,"o":"m 367 1049 q 299 1110 304 1061 q 331 1175 294 1153 q 436 1154 378 1206 q 581 1024 440 1150 q 572 1008 578 1018 q 469 1028 538 1015 q 367 1049 400 1042 m 508 972 l 858 972 l 858 949 q 785 478 789 949 q 685 120 783 240 q 429 0 588 0 q 307 21 361 0 q 217 81 253 42 q 157 166 182 119 q 119 272 132 213 q 100 385 106 331 q 94 499 94 439 l 94 876 q 73 928 94 907 q 21 949 51 949 l 21 972 l 442 972 l 442 949 q 406 939 422 949 q 378 913 389 929 q 368 876 368 896 q 363 727 368 849 q 358 526 358 606 q 474 90 361 186 q 629 93 546 28 q 750 318 718 161 q 761 482 767 396 q 714 715 754 606 q 618 887 674 825 q 508 949 563 949 l 508 972 z "},"Ú":{"ha":879,"x_min":21,"x_max":858,"o":"m 513 1049 q 307 1008 446 1035 q 299 1024 304 1013 q 344 1065 319 1043 q 397 1113 368 1086 q 443 1154 426 1139 q 553 1172 504 1208 q 579 1104 588 1146 q 513 1049 571 1060 m 508 972 l 858 972 l 858 949 q 785 478 789 949 q 685 120 783 240 q 428 0 588 0 q 307 21 361 0 q 217 81 253 42 q 157 166 182 119 q 119 272 132 213 q 100 385 106 331 q 94 499 94 439 l 94 876 q 73 928 94 907 q 21 949 51 949 l 21 972 l 442 972 l 442 949 q 406 939 422 949 q 378 913 389 929 q 368 876 368 896 q 363 727 368 849 q 358 526 358 606 q 474 90 361 186 q 629 93 546 28 q 750 318 718 161 q 761 482 767 396 q 714 715 754 606 q 618 887 674 825 q 508 949 563 949 l 508 972 z "},"Û":{"ha":879,"x_min":21,"x_max":858,"o":"m 383 1068 q 292 1010 349 997 q 238 1057 250 1018 q 278 1139 224 1106 q 363 1185 311 1158 q 439 1228 414 1213 q 517 1186 465 1214 q 601 1139 568 1158 q 639 1053 658 1104 q 582 1008 624 1014 q 496 1068 528 1001 l 439 1186 l 383 1068 m 508 972 l 858 972 l 858 949 q 785 478 789 949 q 685 120 783 240 q 429 0 588 0 q 307 21 361 0 q 217 81 253 42 q 157 166 182 119 q 119 272 132 213 q 100 385 106 331 q 94 499 94 439 l 94 876 q 73 928 94 907 q 21 949 51 949 l 21 972 l 442 972 l 442 949 q 406 939 422 949 q 378 913 389 929 q 368 876 368 896 q 363 727 368 849 q 358 526 358 606 q 474 90 361 186 q 629 93 546 28 q 750 318 718 161 q 761 482 767 396 q 714 715 754 606 q 618 887 674 825 q 508 949 563 949 l 508 972 z "},"Ü":{"ha":879,"x_min":21,"x_max":858,"o":"m 395 1040 q 379 1024 395 1040 q 317 1008 363 1008 q 240 1040 272 1008 q 207 1118 207 1072 q 240 1196 207 1164 q 317 1228 272 1228 q 395 1196 363 1228 q 428 1118 428 1164 q 395 1040 428 1072 m 639 1040 q 623 1024 639 1040 q 561 1008 607 1008 q 483 1040 515 1008 q 451 1118 451 1072 q 483 1196 451 1164 q 561 1228 515 1228 q 639 1196 607 1228 q 671 1118 671 1164 q 639 1040 671 1072 m 508 972 l 858 972 l 858 949 q 785 478 789 949 q 685 120 783 240 q 429 0 588 0 q 307 21 361 0 q 217 81 253 42 q 157 166 182 119 q 119 272 132 213 q 100 385 106 331 q 94 499 94 439 l 94 876 q 73 928 94 907 q 21 949 51 949 l 21 972 l 442 972 l 442 949 q 390 928 411 949 q 368 876 368 907 q 363 727 368 849 q 358 526 358 606 q 474 90 361 186 q 629 93 546 28 q 750 318 718 161 q 761 482 767 396 q 714 715 754 606 q 618 887 674 825 q 508 949 563 949 l 508 972 z "},"Ý":{"ha":943,"x_min":33,"x_max":908,"o":"m 544 1049 q 339 1008 506 1040 q 331 1024 336 1013 q 475 1154 403 1089 q 585 1172 536 1208 q 611 1104 619 1146 q 544 1049 603 1060 m 542 972 l 908 972 l 908 949 q 878 939 896 949 q 838 907 861 929 q 797 866 815 885 q 749 810 779 847 q 703 753 718 772 q 653 688 688 733 q 608 631 618 643 l 608 96 q 630 44 608 65 q 682 24 651 24 l 682 0 l 261 0 l 261 24 q 313 44 292 24 q 333 96 333 65 l 333 511 l 135 876 q 90 927 118 906 q 33 949 63 949 l 33 972 l 482 972 l 482 949 q 418 923 439 949 q 418 858 397 897 l 560 601 q 592 665 575 625 q 620 756 608 706 q 633 848 632 806 q 611 919 633 890 q 542 949 589 949 l 542 972 z "},"Þ":{"ha":821,"x_min":24,"x_max":801,"o":"m 471 721 q 613 699 550 721 q 716 642 676 678 q 778 562 756 607 q 801 469 800 517 q 781 378 801 422 q 720 298 760 333 q 616 241 681 263 q 471 219 551 219 l 371 219 l 371 79 q 392 28 371 49 q 444 7 414 7 l 444 -17 l 24 -17 l 24 7 q 76 28 54 7 q 97 79 97 49 l 97 860 q 76 911 97 890 q 24 932 54 932 l 24 956 l 444 956 l 444 932 q 392 911 414 932 q 371 860 371 890 l 371 721 l 471 721 m 371 243 q 481 306 442 243 q 522 458 519 369 q 483 625 524 553 q 371 697 443 697 l 371 243 z "},"à":{"ha":808,"x_min":21,"x_max":788,"o":"m 714 96 q 735 44 714 65 q 788 24 757 24 l 788 0 l 439 0 l 439 69 q 257 0 372 0 q 83 54 144 0 q 21 183 21 108 q 84 311 21 257 q 260 365 147 365 q 439 299 372 365 l 439 367 q 371 642 442 643 q 347 631 357 642 q 334 601 338 621 q 329 561 331 582 q 329 515 328 540 q 333 471 331 489 q 338 432 335 453 q 342 408 340 411 q 271 390 322 392 q 194 398 225 389 q 143 431 163 407 q 125 497 124 456 q 191 615 126 565 q 381 667 256 665 q 619 585 526 667 q 713 361 713 504 q 713 229 713 267 q 714 96 714 192 m 439 104 q 439 265 439 190 q 385 294 414 293 q 320 261 344 296 q 296 181 296 226 q 319 103 296 136 q 382 71 343 69 q 439 104 413 72 m 331 742 q 263 803 269 754 q 294 869 258 846 q 400 847 343 900 q 544 718 404 843 q 536 701 540 710 q 331 742 481 713 z "},"á":{"ha":810,"x_min":22,"x_max":789,"o":"m 479 742 q 274 701 351 717 q 269 710 272 704 q 264 717 265 715 q 408 847 338 783 q 518 867 469 903 q 546 797 554 840 q 479 742 536 754 m 715 96 q 725 60 715 76 q 751 33 735 43 q 789 24 768 24 l 789 0 l 440 0 l 440 69 q 258 0 374 0 q 84 54 146 0 q 22 183 22 108 q 85 311 22 257 q 261 365 149 365 q 440 299 374 365 l 440 367 q 372 642 443 643 q 340 426 311 642 q 343 408 342 413 q 272 390 324 392 q 195 398 226 389 q 144 431 164 407 q 126 497 125 456 q 192 615 128 565 q 383 667 257 665 q 621 585 528 667 q 714 361 714 504 q 715 229 714 267 q 715 96 715 192 m 440 104 q 440 184 440 142 q 440 265 440 226 q 386 294 415 293 q 322 261 346 296 q 297 181 297 226 q 321 103 297 136 q 383 71 344 69 q 440 104 414 72 z "},"â":{"ha":808,"x_min":21,"x_max":788,"o":"m 714 96 q 735 44 714 65 q 788 24 757 24 l 788 0 l 439 0 l 439 69 q 257 0 372 0 q 83 54 144 0 q 21 183 21 108 q 84 311 21 257 q 260 365 147 365 q 439 299 372 365 l 439 367 q 371 642 442 643 q 347 631 357 642 q 334 601 338 621 q 329 561 331 582 q 330 515 328 540 q 333 471 332 489 q 338 432 335 453 q 342 408 340 411 q 271 390 324 392 q 194 398 225 389 q 143 431 163 407 q 125 497 124 456 q 191 615 126 565 q 382 667 256 665 q 620 585 526 667 q 714 361 714 504 q 714 229 714 267 q 714 96 714 192 m 439 104 q 439 265 439 185 q 385 294 414 293 q 338 278 358 294 q 306 235 317 261 q 296 181 296 210 q 319 103 296 136 q 382 71 343 69 q 439 104 413 72 m 347 761 q 257 703 314 690 q 203 751 215 711 q 243 832 188 799 q 327 879 275 851 q 404 921 379 907 q 447 898 424 910 q 485 877 469 886 q 524 856 501 868 q 565 832 546 844 q 604 747 624 797 q 547 701 589 708 q 461 761 493 694 l 404 881 l 347 761 z "},"ã":{"ha":808,"x_min":21,"x_max":788,"o":"m 286 701 q 211 734 236 703 q 189 808 186 765 q 217 887 190 853 q 282 921 243 921 q 417 810 358 922 q 471 821 450 746 q 482 910 485 868 q 521 921 499 922 q 597 889 572 919 q 619 814 621 858 q 591 736 617 771 q 526 701 565 701 q 392 813 450 701 q 336 803 357 876 q 325 714 322 754 q 286 701 308 701 m 714 96 q 735 44 714 65 q 788 24 757 24 l 788 0 l 439 0 l 439 69 q 257 0 372 0 q 83 54 144 0 q 21 183 21 108 q 84 311 21 257 q 260 365 147 365 q 439 299 372 365 l 439 367 q 371 642 442 643 q 347 631 357 642 q 334 601 338 621 q 329 561 331 582 q 329 515 328 540 q 333 471 331 489 q 338 432 335 453 q 342 408 340 411 q 271 390 322 392 q 162 413 200 389 q 125 497 124 436 q 191 615 126 565 q 381 667 256 665 q 619 585 526 667 q 713 361 713 504 q 713 229 713 267 q 714 96 714 192 m 439 104 q 439 184 439 142 q 439 265 439 226 q 385 294 414 293 q 320 261 344 296 q 296 181 296 226 q 319 103 296 136 q 382 71 343 69 q 439 104 413 72 z "},"ä":{"ha":808,"x_min":21,"x_max":788,"o":"m 604 733 q 588 717 604 733 q 526 701 572 701 q 448 733 481 701 q 416 811 415 765 q 449 889 417 857 q 526 921 481 921 q 604 889 572 921 q 636 811 636 857 q 604 733 636 765 m 714 96 q 724 60 714 76 q 750 33 733 43 q 788 24 767 24 l 788 0 l 439 0 l 439 69 q 257 0 372 0 q 83 54 144 0 q 21 183 21 108 q 84 311 21 257 q 260 365 147 365 q 439 299 372 365 l 439 367 q 371 642 442 643 q 347 631 357 642 q 334 601 338 621 q 329 561 331 582 q 329 515 328 540 q 333 471 331 489 q 338 432 335 453 q 342 408 340 411 q 271 390 322 392 q 163 413 201 389 q 125 497 124 436 q 191 615 126 565 q 382 667 256 665 q 619 585 526 667 q 713 361 713 504 q 713 229 713 267 q 714 96 714 192 m 439 104 q 439 265 439 190 q 385 294 414 293 q 320 261 344 296 q 296 181 296 226 q 319 103 296 136 q 382 71 343 69 q 439 104 413 72 m 360 733 q 344 717 360 733 q 282 701 328 701 q 204 733 236 701 q 172 811 172 765 q 204 889 172 857 q 282 921 236 921 q 338 906 313 921 q 377 867 363 892 q 392 811 392 842 q 360 733 392 765 z "},"å":{"ha":808,"x_min":21,"x_max":788,"o":"m 714 96 q 735 44 714 65 q 788 24 757 24 l 788 0 l 439 0 l 439 69 q 257 0 372 0 q 83 54 144 0 q 21 183 21 108 q 84 311 21 257 q 260 365 147 365 q 439 299 372 365 l 439 367 q 371 642 442 643 q 347 631 356 642 q 334 601 338 621 q 329 561 331 582 q 329 515 328 540 q 333 471 331 489 q 338 432 335 453 q 342 408 340 411 q 271 390 322 392 q 194 398 225 389 q 143 431 163 407 q 125 497 124 456 q 191 615 126 565 q 382 667 256 665 q 619 585 526 667 q 713 361 713 504 q 713 229 713 267 q 714 96 714 192 m 439 104 q 439 184 439 121 q 439 265 439 247 q 385 294 414 293 q 338 278 358 294 q 306 235 317 261 q 296 181 296 210 q 319 103 296 136 q 382 71 343 69 q 439 104 413 72 m 482 733 q 466 717 482 733 q 404 701 450 701 q 326 733 358 701 q 294 811 294 765 q 326 889 294 857 q 404 921 358 921 q 482 889 450 921 q 514 811 514 857 q 482 733 514 765 m 465 872 q 453 885 465 872 q 404 897 440 897 q 343 872 368 897 q 318 812 318 847 q 343 751 318 776 q 404 725 368 725 q 465 751 440 725 q 490 812 490 776 q 465 872 490 847 z "},"æ":{"ha":1114,"x_min":21,"x_max":1085,"o":"m 1065 361 l 1082 361 q 1048 185 1085 267 q 937 51 1011 103 q 767 0 863 0 l 439 0 l 439 69 q 257 0 372 0 q 83 54 144 0 q 21 183 21 108 q 84 311 21 257 q 260 365 147 365 q 439 299 372 365 l 439 367 q 371 642 442 643 q 347 631 357 642 q 334 601 338 621 q 329 561 331 582 q 330 515 328 540 q 333 471 332 489 q 338 432 335 453 q 342 408 340 411 q 271 390 324 392 q 163 413 201 389 q 125 497 124 436 q 191 615 126 565 q 382 667 256 665 q 594 606 507 667 q 781 667 681 667 q 984 601 911 667 q 1057 457 1057 536 q 1043 401 1057 425 q 1011 366 1029 378 q 962 348 993 354 q 910 340 931 342 q 857 339 889 339 l 726 339 q 901 246 765 242 q 1008 283 960 247 q 1065 361 1057 318 m 439 104 l 439 265 q 385 294 414 293 q 320 261 344 296 q 296 181 296 226 q 319 103 296 136 q 382 71 343 69 q 439 104 414 72 m 781 642 q 737 606 754 642 q 715 524 719 571 q 711 431 710 476 q 718 364 713 386 l 857 364 q 844 568 863 494 q 781 642 825 642 z "},"ç":{"ha":696,"x_min":31,"x_max":667,"o":"m 378 1 q 369 -50 310 -18 q 385 -58 372 -51 q 401 -67 397 -65 q 417 -76 406 -69 q 432 -85 428 -82 q 445 -94 436 -87 q 458 -106 454 -101 q 467 -119 461 -111 q 474 -135 472 -128 q 478 -151 476 -142 q 481 -169 481 -160 q 447 -235 481 -208 q 368 -262 413 -261 q 294 -241 325 -265 q 261 -165 263 -217 q 272 -126 260 -143 q 363 -128 319 -140 q 347 -78 410 -114 q 310 -37 317 -60 q 319 1 304 -15 q 114 108 197 13 q 31 333 31 203 q 130 567 31 469 q 363 665 229 665 q 565 601 492 665 q 638 457 639 536 q 597 372 638 407 q 489 339 557 338 q 438 357 456 340 q 426 567 444 492 q 363 642 407 642 q 319 609 336 642 q 297 533 301 576 q 290 447 292 490 q 294 383 289 404 q 324 308 303 338 q 384 261 344 278 q 483 246 424 244 q 590 283 540 247 q 646 361 639 318 l 664 361 q 584 113 667 211 q 378 1 501 14 z "},"è":{"ha":696,"x_min":31,"x_max":665,"o":"m 274 742 q 207 803 213 754 q 238 869 201 846 q 344 847 286 900 q 489 717 349 843 q 484 710 488 715 q 479 701 481 704 q 274 742 422 713 m 646 361 l 664 361 q 622 172 665 256 q 507 44 579 88 q 347 0 435 0 q 124 97 217 0 q 31 333 31 194 q 130 568 31 469 q 363 667 229 667 q 565 601 492 667 q 638 457 639 536 q 624 401 638 425 q 592 366 610 378 q 543 348 574 354 q 492 340 513 342 q 438 339 471 339 l 307 339 q 483 246 346 242 q 590 283 540 247 q 646 361 639 318 m 363 642 q 324 619 340 642 q 301 560 308 596 q 292 486 294 525 q 292 415 290 447 q 299 364 294 382 l 438 364 q 424 568 443 494 q 363 642 406 642 z "},"é":{"ha":696,"x_min":31,"x_max":667,"o":"m 646 361 l 664 361 q 574 101 667 201 q 347 0 481 0 q 124 97 217 0 q 31 333 31 194 q 130 568 31 469 q 363 667 229 667 q 565 601 492 667 q 638 457 639 536 q 624 401 638 425 q 592 366 610 378 q 543 348 574 354 q 492 340 513 342 q 438 339 471 339 l 307 339 q 483 246 346 242 q 590 283 540 247 q 646 361 639 318 m 363 642 q 317 606 335 642 q 296 524 300 571 q 292 431 292 476 q 300 364 293 386 l 438 364 q 424 568 443 494 q 363 642 406 642 m 421 742 q 215 701 283 715 q 213 706 214 703 q 210 710 211 708 q 208 713 210 711 q 206 717 207 715 q 351 847 210 721 q 460 867 413 903 q 488 797 496 840 q 421 742 478 754 z "},"ê":{"ha":696,"x_min":31,"x_max":667,"o":"m 290 761 q 200 703 257 690 q 146 751 158 711 q 186 832 131 799 q 270 879 218 851 q 347 921 322 907 q 424 879 372 907 q 508 832 476 851 q 547 747 567 797 q 490 701 532 708 q 404 761 436 694 l 347 881 l 290 761 m 646 361 l 664 361 q 574 101 667 201 q 347 0 481 0 q 124 97 217 0 q 31 333 31 194 q 130 568 31 469 q 363 667 229 667 q 565 601 492 667 q 638 457 639 536 q 624 401 638 425 q 592 366 610 378 q 543 348 574 354 q 492 340 513 342 q 438 339 471 339 l 307 339 q 483 246 346 242 q 590 283 540 247 q 646 361 639 318 m 363 642 q 317 606 335 642 q 296 524 300 571 q 292 431 292 476 q 300 364 293 386 l 438 364 q 424 568 443 494 q 363 642 406 642 z "},"ë":{"ha":696,"x_min":31,"x_max":667,"o":"m 469 701 q 392 733 424 701 q 360 811 360 765 q 392 889 360 857 q 469 921 424 921 q 547 889 515 921 q 579 811 579 857 q 565 756 579 782 q 524 716 550 731 q 469 701 499 701 m 225 701 q 170 716 196 701 q 130 756 144 731 q 115 811 115 782 q 147 889 115 857 q 225 921 179 921 q 303 889 271 921 q 335 811 335 857 q 303 733 335 765 q 225 701 271 701 m 646 361 l 664 361 q 574 101 667 201 q 347 0 481 0 q 124 97 217 0 q 31 333 31 194 q 130 568 31 469 q 363 667 229 667 q 565 601 492 667 q 638 457 639 536 q 629 408 638 429 q 603 375 621 388 q 569 355 586 363 q 526 344 553 347 q 483 340 500 342 q 438 339 465 339 l 307 339 q 483 246 346 242 q 590 283 540 247 q 646 361 639 318 m 363 642 q 317 606 335 642 q 295 524 300 571 q 292 431 290 476 q 299 364 293 386 l 438 364 q 424 568 443 494 q 363 642 406 642 z "},"ì":{"ha":465,"x_min":25,"x_max":446,"o":"m 163 742 q 94 803 100 754 q 126 869 90 846 q 232 847 174 900 q 376 717 236 843 q 372 710 375 715 q 368 701 369 704 q 163 742 313 713 m 372 96 q 394 44 372 65 q 446 24 415 24 l 446 0 l 25 0 l 25 24 q 77 44 56 24 q 99 96 99 65 l 99 504 q 77 556 99 535 q 25 576 56 576 l 25 600 l 372 667 l 372 96 z "},"í":{"ha":465,"x_min":25,"x_max":446,"o":"m 310 742 q 104 701 182 717 q 99 710 103 704 q 94 717 96 715 q 239 847 99 721 q 349 867 300 903 q 375 797 385 840 q 310 742 367 754 m 372 96 q 394 44 372 65 q 446 24 415 24 l 446 0 l 25 0 l 25 24 q 77 44 56 24 q 99 96 99 65 l 99 504 q 77 556 99 535 q 25 576 56 576 l 25 600 l 372 667 l 372 96 z "},"î":{"ha":465,"x_min":19,"x_max":456,"o":"m 179 761 q 88 703 146 690 q 35 751 47 711 q 74 832 19 799 q 126 862 100 847 q 182 892 153 876 q 236 921 211 907 q 313 879 261 907 q 397 832 364 851 q 436 747 456 797 q 378 701 421 708 q 292 761 324 694 l 236 881 l 179 761 m 372 96 q 394 44 372 65 q 446 24 415 24 l 446 0 l 25 0 l 25 24 q 77 44 56 24 q 99 96 99 65 l 99 504 q 77 556 99 535 q 25 576 56 576 l 25 600 l 372 667 l 372 96 z "},"ï":{"ha":464,"x_min":3,"x_max":467,"o":"m 435 733 q 419 717 435 733 q 357 701 403 701 q 279 733 311 701 q 247 811 247 765 q 279 889 247 857 q 357 921 311 921 q 435 889 403 921 q 467 811 467 857 q 435 733 467 765 m 190 733 q 174 717 190 733 q 113 701 158 701 q 35 733 67 701 q 3 811 3 765 q 35 889 3 857 q 113 921 67 921 q 190 889 158 921 q 222 811 222 857 q 190 733 222 765 m 372 96 q 394 44 372 65 q 446 24 415 24 l 446 0 l 24 0 l 24 24 q 76 44 54 24 q 97 96 97 65 l 97 504 q 76 556 97 535 q 24 576 54 576 l 24 600 l 372 667 l 372 96 z "},"ñ":{"ha":883,"x_min":25,"x_max":863,"o":"m 326 701 q 251 734 275 703 q 228 808 226 765 q 257 887 231 853 q 321 921 283 921 q 456 810 397 922 q 511 821 490 746 q 522 910 525 868 q 561 921 539 922 q 636 889 611 919 q 658 814 661 858 q 631 736 657 771 q 565 701 604 701 q 431 813 489 701 q 376 803 397 876 q 365 714 363 754 q 326 701 349 701 m 789 96 q 810 44 789 65 q 863 24 832 24 l 863 0 l 442 0 l 442 24 q 492 44 471 24 q 514 96 514 65 l 514 339 q 436 594 514 597 q 372 554 401 593 l 372 0 l 25 0 l 25 24 q 77 44 56 24 q 99 96 99 65 l 99 504 q 77 556 99 535 q 25 576 56 576 l 25 600 l 372 667 l 372 589 q 563 665 442 665 q 628 657 599 665 q 681 635 658 649 q 720 599 703 622 q 749 555 738 576 q 768 501 760 533 q 780 445 776 469 q 785 384 783 421 q 788 326 788 347 q 789 269 789 304 l 789 96 z "},"ò":{"ha":822,"x_min":29,"x_max":792,"o":"m 338 742 q 269 803 275 754 q 301 869 265 846 q 407 847 349 900 q 551 717 478 783 q 547 710 550 715 q 543 701 544 704 q 338 742 486 713 m 141 569 q 197 618 141 569 q 410 667 253 667 q 680 569 568 667 q 792 333 792 471 q 680 97 792 194 q 410 0 568 0 q 141 97 253 0 q 29 333 29 194 q 141 569 29 471 m 335 115 q 351 69 335 115 q 410 24 367 24 q 485 115 454 24 q 517 333 517 206 q 503 488 517 417 q 464 601 489 560 q 410 642 439 642 q 357 601 382 642 q 318 488 332 560 q 304 333 304 417 q 335 115 304 206 z "},"ó":{"ha":822,"x_min":29,"x_max":792,"o":"m 483 742 q 278 701 347 715 q 276 706 278 703 q 274 710 275 708 q 272 713 272 711 q 269 717 271 715 q 414 847 274 721 q 524 867 475 903 q 550 797 558 840 q 483 742 542 754 m 141 569 q 197 618 141 569 q 410 667 253 667 q 680 569 568 667 q 792 333 792 471 q 680 97 792 194 q 410 0 568 0 q 141 97 253 0 q 29 333 29 194 q 141 569 29 471 m 335 115 q 351 69 335 115 q 410 24 367 24 q 485 115 454 24 q 517 333 517 206 q 503 488 517 417 q 464 601 489 560 q 410 642 439 642 q 357 601 382 642 q 318 488 332 560 q 304 333 304 417 q 335 115 304 206 z "},"ô":{"ha":822,"x_min":29,"x_max":792,"o":"m 354 761 q 263 703 321 690 q 210 751 222 711 q 249 832 194 799 q 333 879 282 851 q 411 921 385 907 q 488 879 436 907 q 572 832 539 851 q 611 747 631 797 q 553 701 596 708 q 467 761 499 694 l 411 881 l 354 761 m 141 569 q 197 618 141 569 q 410 667 253 667 q 680 569 568 667 q 792 333 792 471 q 680 97 792 194 q 410 0 568 0 q 141 97 253 0 q 29 333 29 194 q 141 569 29 471 m 335 115 q 351 69 335 115 q 410 24 367 24 q 486 115 454 24 q 517 333 518 206 q 485 551 517 461 q 410 642 454 642 q 335 551 367 642 q 304 333 304 461 q 335 115 304 206 z "},"õ":{"ha":822,"x_min":29,"x_max":792,"o":"m 141 569 q 197 618 141 569 q 410 667 253 667 q 680 569 568 667 q 792 333 792 471 q 680 97 792 194 q 410 0 568 0 q 141 97 253 0 q 29 333 29 194 q 141 569 29 471 m 411 24 q 452 48 432 24 q 486 114 472 72 q 508 213 500 156 q 517 333 517 269 q 485 551 517 461 q 411 642 454 642 q 357 601 382 642 q 318 488 332 560 q 304 333 304 417 q 335 115 304 206 q 411 24 367 24 m 293 701 q 218 734 243 703 q 196 808 193 765 q 208 863 197 838 q 241 904 219 888 q 289 921 263 921 q 424 810 364 922 q 478 821 457 746 q 489 910 492 868 q 528 921 506 922 q 603 889 578 919 q 625 814 628 858 q 597 735 624 769 q 532 701 571 701 q 397 813 457 701 q 343 803 364 876 q 332 714 329 754 q 293 701 315 701 z "},"ö":{"ha":822,"x_min":29,"x_max":792,"o":"m 610 733 q 594 717 610 733 q 533 701 578 701 q 455 733 488 701 q 422 811 422 765 q 455 889 422 857 q 533 921 488 921 q 610 889 578 921 q 643 811 643 857 q 610 733 643 765 m 141 569 q 197 618 141 569 q 410 667 253 667 q 680 569 568 667 q 792 333 792 471 q 680 97 792 194 q 410 0 568 0 q 141 97 253 0 q 29 333 29 194 q 141 569 29 471 m 411 24 q 452 48 432 24 q 486 114 472 72 q 508 213 500 156 q 517 333 517 269 q 485 551 517 461 q 411 642 454 642 q 357 601 382 642 q 318 488 332 560 q 304 333 304 417 q 335 115 304 206 q 411 24 367 24 m 367 733 q 351 717 367 733 q 289 701 335 701 q 211 733 243 701 q 179 811 179 765 q 211 889 179 857 q 289 921 243 921 q 367 889 335 921 q 399 811 399 857 q 367 733 399 765 z "},"÷":{"ha":408,"x_min":47,"x_max":360,"o":"m 259 537 q 246 530 259 537 q 203 522 233 522 q 149 537 174 522 q 108 577 124 551 q 94 632 93 603 q 126 710 94 678 q 204 743 158 743 q 282 710 250 743 q 314 632 314 678 q 299 577 314 603 q 259 537 285 551 m 360 475 l 47 475 l 47 499 l 360 499 l 360 475 m 126 418 q 142 434 126 418 q 203 450 158 450 q 281 418 249 450 q 314 340 314 386 q 282 263 314 294 q 204 231 250 231 q 126 263 158 231 q 94 340 94 294 q 126 418 94 386 z "},"ø":{"ha":822,"x_min":29,"x_max":792,"o":"m 536 647 q 720 526 649 613 q 792 333 792 440 q 680 97 792 194 q 411 0 568 0 q 307 13 357 0 l 303 0 l 279 0 l 285 18 q 101 139 172 53 q 29 333 29 225 q 141 569 29 471 q 411 667 253 667 q 514 654 464 667 l 518 667 l 543 667 l 536 647 m 304 333 q 328 138 304 222 l 482 564 q 411 642 451 642 q 335 551 367 642 q 304 333 304 461 m 411 24 q 452 48 432 24 q 486 114 472 72 q 509 213 500 156 q 518 333 518 269 q 493 529 518 443 l 340 103 q 411 24 369 24 z "},"ù":{"ha":871,"x_min":15,"x_max":853,"o":"m 360 742 q 293 803 299 754 q 325 869 288 846 q 431 847 372 900 q 575 717 435 843 q 570 710 574 715 q 565 701 567 704 q 360 742 511 713 m 779 96 q 801 44 779 65 q 853 24 822 24 l 853 0 l 504 0 l 504 78 q 315 0 436 0 q 254 6 282 0 q 206 26 226 13 q 167 54 185 39 q 138 93 150 69 q 118 137 126 117 q 104 187 110 157 q 95 239 99 217 q 90 294 92 261 q 89 346 89 326 q 89 397 89 365 l 89 504 q 67 556 89 535 q 15 576 46 576 l 15 600 l 363 667 l 363 328 q 442 71 363 69 q 504 113 476 72 l 504 504 q 483 556 504 535 q 431 576 461 576 l 431 600 l 779 667 l 779 96 z "},"ú":{"ha":871,"x_min":15,"x_max":853,"o":"m 507 742 q 301 701 371 715 q 299 707 300 704 q 296 713 297 710 q 293 717 294 715 q 438 847 297 721 q 547 867 499 903 q 574 797 582 840 q 507 742 565 754 m 779 96 q 801 44 779 65 q 853 24 822 24 l 853 0 l 504 0 l 504 78 q 315 0 436 0 q 254 6 282 0 q 206 26 226 13 q 167 54 185 39 q 138 93 150 69 q 118 137 126 117 q 104 187 110 157 q 95 239 99 217 q 90 294 92 261 q 89 346 89 326 q 89 397 89 365 l 89 504 q 67 556 89 535 q 15 576 46 576 l 15 600 l 363 667 l 363 328 q 442 71 363 69 q 504 113 476 72 l 504 504 q 483 556 504 535 q 432 576 461 576 l 432 600 l 779 667 l 779 96 z "},"û":{"ha":871,"x_min":15,"x_max":853,"o":"m 378 761 q 286 703 343 690 q 232 751 244 711 q 272 832 219 799 q 325 862 299 847 q 381 892 351 876 q 433 921 410 907 q 487 892 458 907 q 542 862 515 876 q 594 832 569 847 q 633 747 653 797 q 576 701 618 708 q 490 761 522 694 l 433 881 l 378 761 m 779 96 q 801 44 779 65 q 853 24 822 24 l 853 0 l 504 0 l 504 78 q 315 0 436 0 q 254 6 282 0 q 206 26 226 13 q 167 54 185 39 q 138 93 150 69 q 118 137 126 117 q 104 187 110 157 q 95 239 99 217 q 90 294 92 261 q 89 346 89 326 q 89 397 89 365 l 89 504 q 67 556 89 535 q 15 576 46 576 l 15 600 l 363 667 l 363 328 q 442 71 363 69 q 504 113 475 72 l 504 504 q 483 556 504 535 q 431 576 461 576 l 431 600 l 779 667 l 779 96 z "},"ü":{"ha":871,"x_min":15,"x_max":853,"o":"m 633 733 q 617 717 633 733 q 556 701 601 701 q 478 733 510 701 q 446 811 446 765 q 478 889 446 857 q 556 921 510 921 q 633 889 601 921 q 665 811 665 857 q 633 733 665 765 m 390 733 q 373 717 390 733 q 312 701 357 701 q 234 733 267 701 q 201 811 201 765 q 234 889 201 857 q 312 921 267 921 q 390 889 357 921 q 422 811 422 857 q 390 733 422 765 m 779 96 q 801 44 779 65 q 853 24 822 24 l 853 0 l 504 0 l 504 78 q 315 0 436 0 q 254 6 282 0 q 206 26 226 13 q 167 54 185 39 q 138 93 150 69 q 118 137 126 117 q 104 187 110 157 q 95 239 99 217 q 90 294 92 261 q 89 346 89 326 q 89 397 89 365 l 89 504 q 67 556 89 535 q 15 576 46 576 l 15 600 l 363 667 l 363 328 q 442 71 363 69 q 504 113 476 72 l 504 504 q 483 556 504 535 q 431 576 461 576 l 431 600 l 779 667 l 779 96 z "},"ý":{"ha":896,"x_min":21,"x_max":874,"o":"m 499 742 q 293 701 350 713 q 291 706 292 703 q 289 710 290 708 q 286 713 288 711 q 285 717 285 715 q 429 847 289 721 q 539 867 490 903 q 565 797 574 840 q 499 742 556 754 m 467 667 l 874 667 l 874 642 q 724 520 814 642 q 546 218 633 399 q 450 1 507 139 q 433 -44 446 -11 q 412 -96 419 -78 q 390 -146 404 -114 q 363 -197 375 -178 q 333 -239 351 -215 q 295 -275 314 -262 q 252 -297 276 -287 q 200 -306 228 -307 q 99 -254 142 -306 q 53 -138 56 -203 q 86 -28 50 -74 q 199 19 122 18 q 256 3 231 21 q 249 -42 250 -17 q 252 -93 249 -67 q 269 -138 256 -119 q 307 -158 283 -157 q 345 -144 326 -160 q 381 -98 364 -129 q 405 -49 397 -67 q 425 0 413 -32 l 354 0 l 119 560 q 82 620 104 599 q 21 642 60 642 l 21 667 l 415 667 l 415 642 q 394 633 400 642 q 388 611 388 624 q 390 588 388 599 q 394 571 392 578 l 533 242 q 586 445 578 354 q 563 589 594 536 q 467 642 532 642 l 467 667 z "},"ÿ":{"ha":896,"x_min":21,"x_max":874,"o":"m 381 733 q 365 717 381 733 q 303 701 349 701 q 225 733 257 701 q 193 811 193 765 q 225 889 193 857 q 303 921 257 921 q 381 889 349 921 q 413 811 413 857 q 381 733 413 765 m 625 733 q 609 717 625 733 q 547 701 593 701 q 469 733 501 701 q 438 811 438 765 q 452 867 438 842 q 492 906 467 892 q 547 921 517 921 q 625 889 593 921 q 657 811 657 857 q 625 733 657 765 m 467 667 l 874 667 l 874 642 q 724 520 814 642 q 546 218 633 399 q 450 1 507 139 q 433 -44 446 -11 q 412 -96 419 -78 q 390 -146 404 -114 q 363 -197 375 -178 q 333 -239 351 -215 q 295 -275 314 -262 q 252 -297 276 -287 q 200 -306 228 -307 q 99 -254 142 -306 q 53 -138 56 -203 q 86 -28 50 -74 q 199 19 122 18 q 256 3 231 21 q 249 -42 250 -17 q 252 -93 249 -67 q 269 -138 256 -119 q 307 -158 283 -157 q 345 -144 326 -160 q 381 -98 364 -129 q 405 -49 397 -67 q 425 0 413 -32 l 354 0 l 119 560 q 82 620 104 599 q 21 642 60 642 l 21 667 l 415 667 l 415 642 q 394 633 400 642 q 388 611 388 624 q 390 588 388 599 q 394 571 392 578 l 533 242 q 586 445 578 354 q 563 589 594 536 q 467 642 532 642 l 467 667 z "},"Ć":{"ha":900,"x_min":31,"x_max":874,"o":"m 525 1049 q 319 1008 457 1035 q 311 1024 317 1013 q 356 1065 332 1043 q 410 1113 381 1086 q 456 1154 439 1139 q 565 1172 517 1208 q 592 1104 600 1146 q 525 1049 583 1060 m 850 478 q 874 478 868 478 q 817 238 874 347 q 663 64 760 128 q 453 0 565 0 q 240 65 338 0 q 87 242 143 131 q 31 486 31 354 q 87 730 31 618 q 240 907 143 842 q 453 972 338 972 q 757 843 647 972 q 826 642 838 747 q 726 507 815 540 q 647 495 690 494 q 578 521 603 496 q 544 833 576 717 q 453 949 511 949 q 356 839 396 949 q 326 536 304 699 q 483 279 354 336 q 593 261 532 258 q 762 326 688 265 q 850 478 836 386 z "},"ć":{"ha":696,"x_min":31,"x_max":667,"o":"m 421 742 q 215 701 268 713 q 206 717 211 710 q 350 847 210 721 q 460 867 411 903 q 488 797 496 840 q 421 742 478 754 m 646 361 q 664 361 660 361 q 574 101 667 201 q 347 0 481 0 q 124 97 217 0 q 31 333 31 194 q 130 567 31 469 q 363 665 229 665 q 565 601 492 665 q 638 457 639 536 q 597 372 638 407 q 489 339 557 338 q 438 357 456 340 q 426 567 444 492 q 363 642 407 642 q 319 609 336 642 q 297 533 301 576 q 290 447 292 490 q 294 383 289 404 q 324 308 303 338 q 384 261 344 278 q 483 246 424 244 q 590 283 540 247 q 646 361 639 318 z "},"Ĉ":{"ha":900,"x_min":31,"x_max":874,"o":"m 396 1068 q 304 1010 361 997 q 251 1057 263 1018 q 290 1139 236 1106 q 375 1185 324 1158 q 451 1228 426 1213 q 529 1185 478 1213 q 614 1139 581 1158 q 651 1053 671 1104 q 594 1008 636 1014 q 508 1068 540 1001 l 451 1186 l 396 1068 m 850 478 q 874 478 868 478 q 817 238 874 347 q 663 64 760 128 q 453 0 565 0 q 288 39 367 0 q 153 142 210 78 q 64 297 97 207 q 31 486 31 388 q 87 730 31 618 q 240 907 143 842 q 453 972 338 972 q 757 843 647 972 q 826 642 838 747 q 726 507 817 540 q 647 495 690 494 q 578 521 603 496 q 544 833 576 717 q 453 949 511 949 q 356 839 396 949 q 326 536 304 699 q 485 279 354 336 q 593 261 532 258 q 710 291 654 264 q 803 367 765 318 q 850 478 840 417 z "},"ĉ":{"ha":696,"x_min":31,"x_max":667,"o":"m 290 761 q 200 703 257 690 q 146 751 158 711 q 186 832 131 799 q 270 879 218 851 q 347 921 322 907 q 424 879 372 907 q 508 832 476 851 q 547 747 567 797 q 490 701 532 708 q 404 761 436 694 l 347 881 l 290 761 m 646 361 q 664 361 660 361 q 574 101 667 201 q 347 0 481 0 q 124 97 217 0 q 31 333 31 194 q 130 567 31 469 q 363 665 229 665 q 565 601 492 665 q 638 457 639 536 q 597 372 638 407 q 490 339 557 338 q 438 357 457 340 q 426 567 444 492 q 363 642 407 642 q 319 609 336 642 q 298 533 303 576 q 291 447 293 490 q 294 383 289 404 q 324 308 303 338 q 384 261 344 278 q 483 246 424 244 q 590 283 540 247 q 646 361 639 318 z "},"Ċ":{"ha":900,"x_min":31,"x_max":874,"o":"m 530 1040 q 514 1024 530 1040 q 452 1008 497 1008 q 374 1040 407 1008 q 342 1118 342 1072 q 374 1196 342 1164 q 452 1228 407 1228 q 530 1196 497 1228 q 563 1118 563 1164 q 530 1040 563 1072 m 850 478 q 874 478 868 478 q 817 238 874 347 q 663 64 760 128 q 453 0 565 0 q 240 65 338 0 q 87 242 143 131 q 31 486 31 354 q 87 730 31 618 q 240 907 143 842 q 453 972 338 972 q 757 843 647 972 q 826 642 838 747 q 726 507 817 540 q 647 495 690 494 q 578 521 603 496 q 568 695 576 617 q 544 830 560 774 q 506 917 529 886 q 453 949 482 949 q 356 839 396 949 q 326 536 306 699 q 485 279 354 336 q 593 261 532 258 q 762 326 688 265 q 850 478 836 386 z "},"ċ":{"ha":696,"x_min":31,"x_max":667,"o":"m 646 361 q 664 361 660 361 q 574 101 667 201 q 347 0 481 0 q 124 97 217 0 q 31 333 31 194 q 130 567 31 469 q 363 665 229 665 q 565 601 492 665 q 638 457 639 536 q 597 372 638 407 q 489 339 557 338 q 438 357 456 340 q 426 567 444 492 q 363 642 407 642 q 319 609 336 642 q 297 533 303 576 q 290 447 292 490 q 294 383 289 404 q 324 308 303 338 q 384 261 344 278 q 483 246 424 244 q 590 283 540 247 q 646 361 639 318 m 425 733 q 409 717 425 733 q 347 701 393 701 q 269 733 301 701 q 238 811 238 765 q 269 889 238 857 q 347 921 301 921 q 425 889 393 921 q 457 811 457 857 q 425 733 457 765 z "},"Č":{"ha":900,"x_min":31,"x_max":874,"o":"m 850 478 q 874 478 868 478 q 817 238 874 347 q 663 64 760 128 q 453 0 565 0 q 240 65 338 0 q 87 242 143 131 q 31 486 31 354 q 87 730 31 618 q 240 907 143 842 q 453 972 338 972 q 757 843 647 972 q 826 642 838 747 q 726 507 817 540 q 647 495 690 494 q 578 521 603 496 q 544 833 576 717 q 453 949 511 949 q 356 839 396 949 q 326 536 304 699 q 485 279 354 336 q 593 261 532 258 q 762 326 688 265 q 850 478 836 386 m 290 1097 q 253 1182 233 1132 q 310 1228 268 1221 q 396 1168 364 1235 l 453 1049 l 508 1168 q 600 1226 543 1239 q 653 1178 642 1218 q 614 1097 668 1131 q 529 1050 581 1078 q 453 1008 478 1022 q 375 1050 426 1022 q 290 1097 324 1078 z "},"č":{"ha":696,"x_min":31,"x_max":667,"o":"m 186 790 q 147 876 128 825 q 204 921 163 915 q 290 861 258 928 l 347 743 l 404 861 q 494 919 438 932 q 549 872 536 911 q 508 790 564 824 q 456 760 483 775 q 400 731 429 746 q 347 701 371 715 q 270 743 322 715 q 186 790 218 771 m 646 361 q 664 361 660 361 q 574 101 667 201 q 347 0 481 0 q 124 97 217 0 q 31 333 31 194 q 130 567 31 469 q 363 665 229 665 q 565 601 492 665 q 638 457 639 536 q 597 372 638 407 q 490 339 557 338 q 438 357 457 340 q 426 567 444 492 q 363 642 407 642 q 319 609 336 642 q 298 533 303 576 q 291 447 293 490 q 294 383 289 404 q 324 308 303 338 q 384 261 344 278 q 483 246 424 244 q 590 283 540 247 q 646 361 639 318 z "},"Ď":{"ha":822,"x_min":25,"x_max":789,"o":"m 211 1097 q 174 1182 153 1132 q 231 1228 189 1221 q 317 1168 285 1235 l 372 1049 l 429 1168 q 521 1226 463 1239 q 574 1178 561 1218 q 535 1097 589 1131 q 450 1050 501 1078 q 372 1008 399 1022 q 319 1038 349 1022 q 264 1067 290 1053 q 211 1097 238 1082 m 372 972 q 505 953 444 972 q 610 900 565 935 q 690 820 656 865 q 747 720 725 775 q 778 607 768 665 q 789 486 789 549 q 774 342 789 411 q 726 210 758 272 q 646 101 693 147 q 528 27 599 54 q 372 0 458 0 l 25 0 l 25 24 q 77 44 56 24 q 99 96 99 65 l 99 876 q 77 928 99 907 q 25 949 56 949 l 25 972 l 372 972 m 372 24 q 478 174 442 42 q 514 486 514 307 q 478 798 514 665 q 372 949 442 931 l 372 24 z "},"ď":{"ha":821,"x_min":38,"x_max":979,"o":"m 728 96 q 749 44 728 65 q 801 24 771 24 l 801 0 l 454 0 l 454 64 q 272 -6 386 -6 q 143 44 197 -6 q 64 167 89 93 q 38 326 39 240 q 52 451 38 390 q 94 560 67 511 q 169 638 122 608 q 272 667 215 667 q 454 597 386 667 l 454 811 q 433 862 454 840 q 381 883 411 883 l 381 907 l 728 972 l 728 96 m 454 97 l 454 563 q 397 594 428 594 q 346 541 367 596 q 320 408 325 486 q 320 252 315 331 q 346 119 325 174 q 397 65 367 65 q 454 97 428 67 m 872 972 q 948 940 917 972 q 979 861 979 907 q 971 817 979 846 q 955 765 963 788 q 934 708 947 743 q 918 669 921 674 l 896 678 l 929 768 q 872 753 903 753 q 794 785 826 753 q 763 863 763 817 q 794 940 763 908 q 872 972 826 972 z "},"đ":{"ha":821,"x_min":38,"x_max":801,"o":"m 801 706 l 728 706 l 728 96 q 738 60 728 76 q 765 33 747 43 q 801 24 782 24 l 801 0 l 454 0 l 454 64 q 272 -6 386 -6 q 143 44 197 -6 q 64 167 89 93 q 38 326 39 240 q 52 451 38 390 q 94 560 67 511 q 169 638 122 608 q 272 667 215 667 q 454 597 386 667 l 454 706 l 381 706 l 381 729 l 454 729 l 454 811 q 433 862 454 840 q 381 883 411 883 l 381 907 l 728 972 l 728 729 l 801 729 l 801 706 m 454 97 l 454 563 q 397 594 428 594 q 346 541 367 596 q 320 408 325 486 q 320 252 315 331 q 346 119 325 174 q 397 65 367 65 q 454 97 428 67 z "},"Ē":{"ha":750,"x_min":25,"x_max":724,"o":"m 539 1008 l 208 1008 l 208 1032 l 539 1032 l 539 1008 m 724 949 q 678 898 696 942 q 656 797 661 854 q 649 680 651 740 q 650 579 647 619 q 650 551 650 560 l 626 551 q 611 627 625 579 q 572 730 597 675 q 517 834 547 785 q 449 916 488 883 q 372 949 410 949 l 372 494 q 448 518 413 494 q 504 581 483 542 q 525 667 525 621 l 549 667 l 549 306 l 525 306 q 504 391 525 351 q 448 454 483 431 q 372 478 413 478 l 372 24 q 449 56 410 24 q 517 138 488 89 q 572 242 547 188 q 611 345 597 297 q 626 419 625 393 l 650 419 q 649 384 650 414 q 649 335 649 354 q 649 283 649 317 q 652 225 650 249 q 657 169 654 201 q 666 116 660 138 q 679 74 672 94 q 698 40 686 53 q 724 24 710 28 l 724 0 l 25 0 l 25 24 q 77 44 56 24 q 99 96 99 65 l 99 876 q 77 928 99 907 q 25 949 56 949 l 25 972 l 724 972 l 724 949 z "},"ē":{"ha":697,"x_min":31,"x_max":667,"o":"m 646 361 l 664 361 q 574 101 667 201 q 347 0 481 0 q 124 97 217 0 q 31 333 31 194 q 130 568 31 469 q 363 667 229 667 q 565 601 492 667 q 638 457 639 536 q 629 408 638 429 q 603 375 621 388 q 569 355 586 363 q 526 344 553 347 q 483 340 500 342 q 438 339 465 339 l 307 339 q 483 246 346 242 q 590 283 540 247 q 646 361 639 318 m 363 642 q 317 606 335 642 q 295 524 300 571 q 292 431 290 476 q 299 364 293 386 l 438 364 q 424 568 443 494 q 363 642 406 642 m 513 701 l 182 701 l 182 725 l 513 725 l 513 701 z "},"Ė":{"ha":750,"x_min":25,"x_max":724,"o":"m 452 1040 q 436 1024 452 1040 q 374 1008 419 1008 q 297 1040 329 1008 q 264 1118 264 1072 q 278 1173 264 1147 q 319 1213 293 1199 q 375 1228 344 1228 q 452 1196 419 1228 q 485 1118 485 1164 q 452 1040 485 1072 m 724 949 q 699 932 710 944 q 680 899 688 919 q 666 856 672 878 q 657 803 660 835 q 652 747 654 771 q 649 690 650 724 q 649 637 649 656 q 649 588 649 618 q 650 551 650 558 l 626 551 q 611 627 625 579 q 572 730 597 675 q 517 834 547 785 q 449 916 488 883 q 372 949 410 949 l 372 494 q 448 518 413 494 q 504 581 483 542 q 525 667 525 621 l 549 667 l 549 306 l 525 306 q 504 391 525 351 q 448 454 483 431 q 372 478 413 478 l 372 24 q 466 73 418 24 q 547 190 514 122 q 603 321 581 257 q 626 419 625 385 l 650 419 q 649 384 650 414 q 649 335 649 354 q 649 283 649 317 q 652 225 650 249 q 657 169 654 201 q 666 116 660 138 q 679 74 672 94 q 698 40 686 53 q 724 24 710 28 l 724 0 l 25 0 l 25 24 q 77 44 56 24 q 99 96 99 65 l 99 876 q 77 928 99 907 q 25 949 56 949 l 25 972 l 724 972 l 724 949 z "},"ė":{"ha":696,"x_min":31,"x_max":665,"o":"m 347 701 q 292 716 317 701 q 252 756 267 731 q 238 811 238 782 q 269 889 238 857 q 347 921 301 921 q 425 889 393 921 q 457 811 457 857 q 425 733 457 765 q 347 701 393 701 m 646 361 l 664 361 q 622 172 665 256 q 507 44 579 88 q 347 0 435 0 q 124 97 217 0 q 31 333 31 194 q 130 568 31 469 q 363 667 229 667 q 565 601 492 667 q 638 457 639 536 q 629 408 638 429 q 603 375 621 388 q 569 355 586 363 q 526 344 553 347 q 483 340 500 342 q 438 339 465 339 l 307 339 q 483 246 346 242 q 590 283 540 247 q 646 361 639 318 m 363 642 q 317 606 335 642 q 295 524 300 571 q 292 431 290 476 q 299 364 293 386 l 438 364 q 424 568 443 494 q 363 642 406 642 z "},"Ě":{"ha":750,"x_min":25,"x_max":724,"o":"m 213 1097 q 175 1182 154 1132 q 232 1228 190 1221 q 318 1168 286 1232 l 375 1049 l 431 1168 q 522 1226 464 1239 q 575 1181 563 1218 q 536 1097 592 1131 q 451 1050 503 1078 q 374 1008 400 1022 q 297 1050 349 1022 q 213 1097 246 1078 m 724 949 q 699 932 710 944 q 680 899 688 919 q 666 856 672 878 q 657 803 660 835 q 652 747 654 771 q 649 690 650 724 q 649 637 649 656 q 649 588 649 618 q 650 551 650 558 l 626 551 q 611 627 625 579 q 572 730 597 675 q 517 834 547 785 q 449 916 488 883 q 372 949 410 949 l 372 494 q 448 518 413 494 q 504 581 483 542 q 525 667 525 621 l 549 667 l 549 306 l 525 306 q 480 426 525 375 q 372 478 435 478 l 372 24 q 449 56 410 24 q 517 138 488 89 q 572 242 547 188 q 611 345 597 297 q 626 419 625 393 l 650 419 q 649 384 650 414 q 649 335 649 354 q 649 283 649 317 q 652 225 650 249 q 657 169 654 201 q 666 116 660 138 q 680 74 672 94 q 699 40 688 53 q 724 24 710 28 l 724 0 l 25 0 l 25 24 q 77 44 56 24 q 99 96 99 65 l 99 876 q 77 928 99 907 q 25 949 56 949 l 25 972 l 724 972 l 724 949 z "},"ě":{"ha":696,"x_min":31,"x_max":667,"o":"m 186 790 q 147 876 128 825 q 204 921 163 915 q 292 861 258 928 l 347 743 l 404 861 q 494 919 438 932 q 549 874 535 911 q 508 790 565 825 q 425 744 476 771 q 347 701 374 717 q 271 743 322 715 q 186 790 219 771 m 646 361 l 664 361 q 574 101 667 201 q 347 0 481 0 q 124 97 217 0 q 31 333 31 194 q 130 568 31 469 q 363 667 229 667 q 565 601 492 667 q 638 457 639 536 q 624 401 638 425 q 592 366 610 378 q 543 348 574 354 q 492 340 513 342 q 438 339 471 339 l 307 339 q 483 246 346 242 q 590 283 540 247 q 646 361 639 318 m 363 642 q 317 606 335 642 q 296 524 300 571 q 292 431 292 476 q 300 364 293 386 l 438 364 q 424 568 443 494 q 363 642 406 642 z "},"Ĝ":{"ha":888,"x_min":32,"x_max":838,"o":"m 411 1068 q 321 1010 378 997 q 267 1057 279 1018 q 307 1139 251 1106 q 390 1185 339 1158 q 468 1228 442 1213 q 544 1185 493 1213 q 629 1139 596 1158 q 668 1053 688 1104 q 611 1008 653 1014 q 524 1068 556 1001 l 468 1186 l 411 1068 m 461 478 l 833 478 l 833 0 l 551 0 l 551 24 q 658 338 656 38 l 635 338 q 557 85 628 169 q 374 0 486 0 q 195 67 275 0 q 74 240 115 135 q 33 464 32 346 q 45 589 33 528 q 79 707 57 650 q 137 812 101 764 q 217 896 172 860 q 323 952 263 932 q 453 972 383 972 q 757 843 647 972 q 826 642 838 747 q 726 507 817 540 q 647 495 690 494 q 578 521 603 496 q 544 833 576 717 q 453 949 511 949 q 364 875 400 949 q 322 698 328 801 q 330 492 317 594 q 388 321 343 389 q 499 260 433 253 q 557 319 549 264 q 524 424 568 381 q 461 453 497 449 l 461 478 z "},"ĝ":{"ha":814,"x_min":19,"x_max":783,"o":"m 353 161 q 463 167 406 167 q 577 153 519 168 q 681 112 635 138 q 754 38 726 86 q 782 -74 782 -11 q 682 -238 781 -169 q 403 -307 583 -307 q 244 -283 315 -307 q 130 -221 172 -258 q 65 -139 88 -183 q 44 -50 43 -94 q 108 63 49 25 q 243 94 167 100 q 306 69 283 92 q 301 -129 292 -51 q 335 -245 310 -207 q 403 -283 361 -283 q 483 -220 454 -283 q 510 -72 511 -157 q 472 101 510 53 q 325 133 433 149 q 197 128 243 122 q 133 160 151 135 q 132 210 115 186 q 188 238 149 233 q 67 324 108 271 q 29 439 26 378 q 132 599 33 532 q 406 665 231 665 q 481 661 465 665 q 457 714 460 678 q 470 786 454 750 q 526 850 486 822 q 622 879 567 878 q 674 870 650 879 q 718 844 699 861 q 750 803 738 828 q 763 749 763 778 q 755 708 764 725 q 723 678 746 690 q 666 666 700 667 q 610 683 632 665 q 607 722 611 704 q 551 771 596 769 q 506 753 525 772 q 492 706 488 733 q 525 661 496 678 q 560 649 540 653 q 726 560 668 621 q 782 428 783 500 q 680 267 779 335 q 406 200 581 200 q 335 203 369 200 q 291 210 324 204 q 242 215 258 215 q 192 193 199 217 q 225 158 186 169 q 254 154 238 156 q 353 161 296 153 m 406 642 q 314 538 340 642 q 315 321 285 428 q 406 224 344 225 q 457 247 435 224 q 491 306 479 269 q 508 388 503 343 q 508 478 514 433 q 491 559 503 522 q 457 619 479 596 q 406 642 435 642 m 179 761 q 89 703 146 690 q 35 751 47 711 q 75 832 19 799 q 159 879 107 851 q 236 921 211 907 q 278 898 256 910 q 317 877 301 886 q 356 856 333 868 q 397 832 378 844 q 436 747 456 797 q 379 701 421 708 q 293 761 325 694 l 236 881 l 179 761 z "},"Ġ":{"ha":888,"x_min":32,"x_max":838,"o":"m 531 1040 q 515 1024 531 1040 q 453 1008 499 1008 q 375 1040 407 1008 q 343 1118 343 1072 q 375 1196 343 1164 q 453 1228 407 1228 q 531 1196 499 1228 q 563 1118 563 1164 q 531 1040 563 1072 m 461 478 l 833 478 l 833 0 l 551 0 l 551 24 q 658 338 656 38 l 635 338 q 557 85 628 169 q 374 0 486 0 q 195 67 275 0 q 74 240 115 135 q 33 464 32 346 q 51 613 35 540 q 101 751 67 685 q 183 865 135 817 q 300 943 231 914 q 453 972 369 972 q 757 843 649 972 q 826 642 838 747 q 726 507 817 540 q 647 495 690 494 q 578 521 603 496 q 544 833 576 717 q 453 949 511 949 q 364 875 400 949 q 322 698 328 801 q 330 492 317 594 q 388 321 343 389 q 499 260 433 253 q 557 319 549 264 q 524 424 568 381 q 461 453 497 449 l 461 478 z "},"ġ":{"ha":814,"x_min":26,"x_max":783,"o":"m 411 733 q 395 717 411 733 q 333 701 379 701 q 256 733 288 701 q 224 811 224 765 q 256 889 224 857 q 333 921 288 921 q 411 889 379 921 q 443 811 443 857 q 411 733 443 765 m 353 161 q 462 167 404 167 q 577 153 519 168 q 681 112 635 138 q 754 38 726 86 q 782 -74 782 -11 q 682 -238 781 -169 q 403 -307 583 -307 q 244 -283 315 -307 q 130 -221 172 -258 q 65 -139 88 -183 q 44 -50 43 -94 q 108 63 49 25 q 243 94 167 100 q 306 69 283 92 q 300 -129 290 -51 q 335 -245 310 -207 q 403 -283 361 -283 q 483 -220 454 -283 q 510 -72 511 -157 q 472 101 510 53 q 325 133 433 149 q 197 128 243 122 q 133 160 151 135 q 132 210 115 186 q 188 238 149 233 q 67 324 108 271 q 29 439 26 378 q 131 599 32 532 q 406 665 231 665 q 481 661 465 665 q 457 714 460 678 q 470 786 454 750 q 526 850 486 822 q 622 879 567 878 q 719 843 678 881 q 763 749 761 806 q 740 690 764 713 q 665 665 717 667 q 610 683 632 665 q 607 722 611 704 q 551 771 596 769 q 506 753 525 772 q 492 706 488 733 q 525 661 496 678 q 560 649 540 653 q 726 560 668 621 q 782 428 783 500 q 680 267 779 335 q 406 200 581 200 q 335 203 369 200 q 290 210 324 204 q 242 215 257 215 q 192 193 199 217 q 224 158 185 169 q 254 154 238 156 q 353 161 296 153 m 406 642 q 328 576 356 642 q 300 433 300 511 q 328 289 300 354 q 406 224 356 224 q 473 267 446 224 q 506 372 500 310 q 506 494 513 433 q 473 599 500 556 q 406 642 446 642 z "},"Ĥ":{"ha":915,"x_min":25,"x_max":890,"o":"m 401 1068 q 310 1010 367 997 q 257 1057 268 1018 q 296 1139 242 1106 q 381 1185 329 1158 q 457 1228 432 1213 q 511 1199 482 1214 q 567 1169 540 1183 q 619 1139 593 1154 q 657 1053 676 1104 q 600 1008 642 1014 q 514 1068 546 1001 l 457 1186 l 401 1068 m 890 949 q 838 928 860 949 q 817 876 817 907 l 817 96 q 838 44 817 65 q 890 24 860 24 l 890 0 l 483 0 l 483 24 q 524 47 507 24 q 542 96 542 71 l 542 471 l 372 471 l 372 96 q 390 47 372 71 q 432 24 408 24 l 432 0 l 25 0 l 25 24 q 77 44 56 24 q 99 96 99 65 l 99 876 q 77 928 99 907 q 25 949 56 949 l 25 972 l 432 972 l 432 949 q 390 925 408 949 q 372 876 372 901 l 372 494 l 542 494 l 542 876 q 524 925 542 901 q 483 949 507 949 l 483 972 l 890 972 l 890 949 z "},"ĥ":{"ha":879,"x_min":21,"x_max":874,"o":"m 597 761 q 506 703 564 690 q 453 751 465 711 q 493 832 438 799 q 576 879 525 851 q 654 921 628 907 q 696 898 674 910 q 735 877 718 886 q 773 856 751 868 q 815 832 794 844 q 854 747 874 797 q 796 701 839 708 q 710 761 742 694 l 654 881 l 597 761 m 785 96 q 806 44 785 65 q 858 24 828 24 l 858 0 l 438 0 l 438 24 q 488 44 467 24 q 510 96 510 65 l 510 339 q 432 594 510 597 q 368 554 397 593 l 368 0 l 21 0 l 21 24 q 73 44 51 24 q 94 96 94 65 l 94 811 q 73 861 94 840 q 21 882 51 882 l 21 907 l 368 972 l 368 589 q 558 665 438 665 q 641 651 604 665 q 701 617 678 638 q 740 560 724 596 q 765 495 757 525 q 778 418 774 465 q 784 343 783 371 q 785 269 785 315 l 785 96 z "},"Ħ":{"ha":924,"x_min":29,"x_max":894,"o":"m 894 949 q 875 946 885 949 q 857 939 865 943 q 842 928 849 935 q 831 913 836 921 q 824 896 826 906 q 821 876 821 886 l 821 733 l 894 733 l 894 710 l 821 710 l 821 96 q 842 44 821 65 q 894 24 864 24 l 894 0 l 488 0 l 488 24 q 528 47 511 24 q 546 96 546 71 l 546 471 l 376 471 l 376 96 q 394 47 376 71 q 436 24 413 24 l 436 0 l 29 0 l 29 24 q 81 44 60 24 q 103 96 103 65 l 103 710 l 29 710 l 29 733 l 103 733 l 103 876 q 81 928 103 907 q 29 949 60 949 l 29 972 l 436 972 l 436 949 q 394 925 413 949 q 376 876 376 901 l 376 733 l 546 733 l 546 876 q 528 925 546 901 q 488 949 511 949 l 488 972 l 894 972 l 894 949 m 546 494 l 546 710 l 378 710 l 378 494 l 546 494 z "},"ħ":{"ha":879,"x_min":21,"x_max":858,"o":"m 785 96 q 806 44 785 65 q 858 24 828 24 l 858 0 l 438 0 l 438 24 q 488 44 467 24 q 510 96 510 65 l 510 339 q 432 594 510 597 q 368 554 397 593 l 368 0 l 21 0 l 21 24 q 73 44 51 24 q 94 96 94 65 l 94 701 l 21 701 l 21 725 l 94 725 l 94 811 q 73 861 94 840 q 21 882 51 882 l 21 907 l 368 972 l 368 725 l 558 725 l 558 701 l 368 701 l 368 589 q 558 665 438 665 q 641 651 604 665 q 701 617 678 638 q 742 560 725 596 q 766 495 758 525 q 778 418 774 465 q 784 343 783 371 q 785 269 785 315 l 785 96 z "},"Ĩ":{"ha":471,"x_min":18,"x_max":451,"o":"m 118 1008 q 42 1040 67 1010 q 19 1115 18 1071 q 48 1194 22 1160 q 113 1228 74 1228 q 247 1117 189 1228 q 303 1126 281 1053 q 313 1215 315 1175 q 351 1228 331 1228 q 427 1195 403 1226 q 450 1121 451 1164 q 422 1042 449 1076 q 357 1008 396 1008 q 222 1119 281 1007 q 167 1108 189 1183 q 157 1019 154 1061 q 118 1008 139 1007 m 24 949 l 24 972 l 446 972 l 446 949 q 408 939 425 949 q 382 913 392 929 q 372 876 372 896 l 372 96 q 394 44 372 65 q 446 24 415 24 l 446 0 l 24 0 l 24 24 q 76 44 54 24 q 97 96 97 65 l 97 876 q 76 928 97 907 q 24 949 54 949 z "},"ĩ":{"ha":464,"x_min":18,"x_max":451,"o":"m 372 96 q 394 44 372 65 q 446 24 415 24 l 446 0 l 24 0 l 24 24 q 76 44 54 24 q 97 96 97 65 l 97 504 q 76 556 97 535 q 24 576 54 576 l 24 600 l 372 667 l 372 96 m 118 701 q 60 719 83 703 q 27 758 36 735 q 19 808 18 781 q 33 863 21 838 q 66 904 44 888 q 113 921 88 921 q 247 810 189 922 q 303 821 281 746 q 313 910 315 868 q 351 921 331 922 q 427 889 403 919 q 450 814 451 858 q 422 736 449 771 q 357 701 396 701 q 222 813 281 701 q 167 803 189 876 q 157 714 154 754 q 118 701 140 701 z "},"Ķ":{"ha":911,"x_min":25,"x_max":890,"o":"m 446 -39 q 521 -72 490 -39 q 551 -150 551 -104 q 548 -178 551 -161 q 540 -211 544 -194 q 527 -249 535 -228 q 514 -285 519 -269 q 501 -317 508 -300 q 492 -342 494 -335 l 469 -335 l 503 -243 q 446 -260 476 -260 q 390 -245 415 -260 q 349 -205 364 -231 q 335 -150 335 -179 q 367 -72 335 -104 q 446 -39 400 -39 m 890 949 q 849 940 871 949 q 799 910 826 931 q 747 871 771 890 q 689 816 724 851 q 632 758 654 781 q 572 690 610 735 q 515 624 533 646 q 457 556 496 603 q 406 494 418 508 l 410 486 q 511 528 451 524 q 624 499 571 532 q 694 408 676 467 l 782 117 q 890 24 810 24 l 890 0 l 471 0 l 471 24 q 503 92 522 24 l 388 474 l 372 474 l 372 0 l 25 0 l 25 24 q 77 44 56 24 q 99 96 99 65 l 99 876 q 77 928 99 907 q 25 949 56 949 l 25 972 l 446 972 l 446 949 q 394 928 415 949 q 372 876 372 907 l 372 499 l 381 499 q 496 949 681 949 l 496 972 l 890 972 l 890 949 z "},"ķ":{"ha":881,"x_min":21,"x_max":860,"o":"m 442 -39 q 517 -72 486 -39 q 549 -150 549 -104 q 540 -194 549 -165 q 524 -247 532 -224 q 503 -303 517 -269 q 489 -342 490 -337 l 465 -335 l 499 -243 q 442 -260 472 -260 q 364 -227 396 -260 q 332 -149 332 -194 q 364 -72 332 -104 q 442 -39 396 -39 m 757 99 q 780 58 763 75 q 817 32 797 40 q 860 24 838 24 l 860 0 l 440 0 l 440 24 q 471 94 492 24 q 471 93 471 93 l 397 339 l 368 339 l 368 0 l 21 0 l 21 24 q 73 44 51 24 q 94 96 94 65 l 94 811 q 73 862 94 840 q 21 883 51 883 l 21 907 l 368 972 l 368 364 l 390 364 q 410 389 394 369 q 519 613 539 558 q 464 642 510 640 l 464 667 l 785 667 l 785 642 q 417 360 661 642 l 419 350 q 500 394 456 383 q 584 396 544 406 q 656 355 624 386 q 703 278 689 324 l 757 99 z "},"Ľ":{"ha":743,"x_min":25,"x_max":724,"o":"m 568 753 q 490 785 522 753 q 458 863 458 817 q 491 940 458 908 q 568 972 524 972 q 644 940 614 972 q 675 861 675 907 q 671 828 675 849 q 658 785 667 808 q 643 742 650 761 q 627 699 636 722 q 615 669 618 676 l 593 678 l 626 768 q 568 753 599 753 m 650 419 q 649 384 650 414 q 649 335 649 354 q 650 283 650 317 q 652 224 650 249 q 657 169 654 200 q 666 116 660 138 q 680 74 672 94 q 699 40 688 53 q 724 24 710 28 l 724 0 l 25 0 l 25 24 q 77 44 56 24 q 99 96 99 65 l 99 876 q 77 928 99 907 q 25 949 56 949 l 25 972 l 446 972 l 446 949 q 394 928 415 949 q 372 876 372 907 l 372 24 q 428 41 400 24 q 479 87 456 58 q 526 152 503 115 q 566 228 549 189 q 597 303 583 267 q 619 371 611 340 q 626 419 626 401 l 650 419 z "},"ľ":{"ha":461,"x_min":21,"x_max":619,"o":"m 368 96 q 390 44 368 65 q 442 24 411 24 l 442 0 l 21 0 l 21 24 q 73 44 51 24 q 94 96 94 65 l 94 811 q 73 862 94 840 q 21 883 51 883 l 21 907 l 368 972 l 368 96 m 513 972 q 589 940 558 972 q 619 861 619 907 q 612 817 619 846 q 596 765 604 788 q 574 708 588 743 q 560 669 561 674 l 538 678 l 569 768 q 513 753 544 753 q 435 785 467 753 q 403 863 403 817 q 435 940 403 908 q 513 972 467 972 z "},"Ł":{"ha":749,"x_min":29,"x_max":728,"o":"m 654 419 q 653 384 654 414 q 653 335 653 354 q 654 283 654 317 q 656 224 654 249 q 661 169 658 200 q 670 116 664 138 q 684 74 676 94 q 703 40 692 53 q 728 24 714 28 l 728 0 l 29 0 l 29 24 q 81 44 60 24 q 103 96 103 65 l 103 535 l 39 518 l 33 542 l 103 560 l 103 876 q 81 928 103 907 q 29 949 60 949 l 29 972 l 450 972 l 450 949 q 398 928 419 949 q 376 876 376 907 l 376 633 l 440 650 l 446 626 l 376 608 l 376 24 q 470 73 422 24 q 551 190 518 122 q 607 321 585 257 q 631 419 629 385 l 654 419 z "},"ł":{"ha":467,"x_min":21,"x_max":442,"o":"m 368 96 q 390 44 368 65 q 442 24 411 24 l 442 0 l 21 0 l 21 24 q 73 44 51 24 q 94 96 94 65 l 94 438 l 31 419 l 25 443 l 94 461 l 94 811 q 73 862 94 840 q 21 883 51 883 l 21 907 l 368 972 l 368 535 l 432 553 l 438 529 l 368 511 l 368 96 z "},"Ń":{"ha":808,"x_min":28,"x_max":779,"o":"m 779 949 q 707 418 708 949 q 706 285 706 353 q 706 161 706 218 q 707 96 707 104 q 728 44 707 65 q 779 24 749 24 l 779 0 l 429 0 l 126 897 q 133 753 125 851 q 160 530 140 656 q 209 292 181 404 q 282 101 238 179 q 378 24 326 24 l 378 0 l 28 0 l 28 24 q 101 554 100 24 q 101 876 101 554 q 80 928 101 907 q 28 949 58 949 l 28 972 l 385 972 l 681 96 q 660 344 678 207 q 613 622 643 482 q 535 855 583 761 q 431 949 486 949 l 431 972 l 779 972 l 779 949 m 478 1049 q 272 1008 408 1035 q 263 1024 268 1013 q 308 1065 283 1043 q 362 1113 332 1086 q 407 1154 392 1139 q 517 1172 468 1208 q 543 1104 553 1146 q 478 1049 535 1060 z "},"ń":{"ha":883,"x_min":25,"x_max":863,"o":"m 789 96 q 810 44 789 65 q 863 24 832 24 l 863 0 l 442 0 l 442 24 q 492 44 471 24 q 514 96 514 65 l 514 339 q 436 594 514 597 q 372 554 401 593 l 372 0 l 25 0 l 25 24 q 77 44 56 24 q 99 96 99 65 l 99 504 q 77 556 99 535 q 25 576 56 576 l 25 600 l 372 667 l 372 589 q 563 665 442 665 q 645 651 608 665 q 705 617 682 638 q 744 560 728 596 q 769 495 761 525 q 783 418 778 465 q 788 343 788 371 q 789 269 789 315 l 789 96 m 517 742 q 311 701 392 718 q 307 710 310 704 q 303 717 304 715 q 447 847 307 721 q 557 867 508 903 q 583 797 592 840 q 517 742 575 754 z "},"Ň":{"ha":808,"x_min":28,"x_max":779,"o":"m 404 1050 l 460 1168 q 551 1226 494 1239 q 606 1178 593 1218 q 565 1097 618 1131 q 481 1050 532 1078 q 404 1008 429 1022 q 326 1050 378 1022 q 242 1097 275 1078 q 204 1182 185 1132 q 261 1228 219 1221 q 347 1168 315 1232 l 404 1050 m 28 972 l 385 972 l 681 96 q 660 344 678 207 q 613 622 643 482 q 535 855 583 761 q 431 949 486 949 l 431 972 l 779 972 l 779 949 q 707 418 708 949 q 706 285 706 353 q 706 161 706 218 q 707 96 707 104 q 728 44 707 65 q 779 24 749 24 l 779 0 l 429 0 l 126 897 q 133 753 125 851 q 160 530 140 656 q 209 292 181 404 q 282 101 238 179 q 378 24 326 24 l 378 0 l 28 0 l 28 24 q 101 554 100 24 q 101 876 101 554 q 80 928 101 907 q 28 949 58 949 l 28 972 z "},"ň":{"ha":883,"x_min":25,"x_max":863,"o":"m 789 96 q 810 44 789 65 q 863 24 832 24 l 863 0 l 440 0 l 440 24 q 492 44 471 24 q 514 96 514 65 l 514 339 q 436 594 514 597 q 372 554 401 593 l 372 0 l 25 0 l 25 24 q 77 44 56 24 q 99 96 99 65 l 99 504 q 77 556 99 535 q 25 576 56 576 l 25 600 l 372 667 l 372 589 q 563 665 442 665 q 645 651 608 665 q 705 617 682 638 q 744 560 728 596 q 769 495 761 525 q 783 418 778 465 q 788 343 788 371 q 789 269 789 315 l 789 96 m 282 790 q 243 876 224 825 q 301 921 258 915 q 388 861 356 928 l 443 743 l 500 861 q 592 919 533 932 q 644 872 632 911 q 606 790 658 824 q 521 744 572 771 q 443 701 469 717 q 367 744 418 717 q 282 790 315 771 z "},"Œ":{"ha":1253,"x_min":31,"x_max":1225,"o":"m 1225 949 q 1200 932 1211 944 q 1181 899 1189 919 q 1167 856 1174 878 q 1158 803 1161 835 q 1153 747 1156 771 q 1151 690 1151 724 q 1151 637 1151 656 q 1151 588 1151 618 q 1151 551 1151 558 l 1128 551 q 1104 651 1126 588 q 1049 783 1082 715 q 967 899 1015 850 q 874 949 919 949 l 874 494 q 949 518 914 494 q 1006 581 985 542 q 1026 667 1026 621 l 1050 667 l 1050 306 l 1026 306 q 981 426 1026 375 q 874 478 936 478 l 874 24 q 967 73 919 24 q 1049 190 1015 122 q 1104 321 1082 257 q 1128 419 1126 385 l 1151 419 q 1151 384 1151 414 q 1151 335 1151 354 q 1151 283 1151 317 q 1153 225 1151 249 q 1158 169 1156 201 q 1167 116 1161 138 q 1181 74 1174 94 q 1200 40 1189 53 q 1225 24 1211 28 l 1225 0 l 453 0 q 240 65 338 0 q 87 242 143 131 q 31 486 31 354 q 64 675 31 585 q 153 831 97 765 q 288 934 210 896 q 453 972 367 972 l 1225 972 l 1225 949 m 349 158 q 370 91 349 158 q 453 24 392 24 q 557 158 514 24 q 600 486 600 293 q 557 814 600 679 q 453 949 514 949 q 349 814 392 949 q 306 486 306 679 q 349 158 306 293 z "},"œ":{"ha":1189,"x_min":29,"x_max":1157,"o":"m 1138 361 l 1156 361 q 1114 172 1157 256 q 999 44 1071 88 q 839 0 926 0 q 644 71 731 0 q 411 0 542 0 q 141 97 253 0 q 29 333 29 194 q 141 569 29 471 q 411 667 253 667 q 650 593 544 667 q 854 667 742 667 q 1057 601 983 667 q 1129 457 1131 536 q 1115 401 1129 425 q 1083 366 1101 378 q 1035 348 1065 354 q 983 340 1004 342 q 931 339 963 339 l 799 339 q 975 246 838 242 q 1081 283 1032 247 q 1138 361 1131 318 m 335 115 q 351 69 335 115 q 410 24 367 24 q 485 115 454 24 q 517 333 517 206 q 485 551 517 461 q 411 642 454 642 q 357 601 382 642 q 318 488 332 560 q 304 333 304 417 q 335 115 304 206 m 790 369 q 792 364 790 365 l 929 364 q 917 568 936 494 q 854 642 897 642 q 804 594 822 642 q 785 490 786 546 q 786 389 783 433 q 790 369 789 378 z "},"Ŕ":{"ha":903,"x_min":25,"x_max":890,"o":"m 493 1049 q 288 1008 458 1042 q 279 1024 285 1013 q 315 1057 296 1039 q 351 1089 335 1075 q 388 1122 367 1103 q 424 1154 408 1140 q 533 1172 485 1208 q 560 1104 568 1146 q 493 1049 550 1060 m 736 274 q 747 233 740 260 q 758 185 753 206 q 772 138 764 164 q 791 94 781 113 q 815 58 801 75 q 848 33 829 42 q 890 24 867 24 l 890 0 l 472 0 l 472 24 q 503 92 522 24 l 389 474 l 372 474 l 372 0 l 25 0 l 25 24 q 77 44 56 24 q 99 96 99 65 l 99 868 q 94 899 99 885 q 80 925 89 914 q 57 942 71 936 q 25 949 43 949 l 25 972 l 474 972 q 751 863 658 972 q 794 674 825 775 q 635 519 764 568 q 453 490 557 490 l 453 474 q 736 274 681 458 m 372 499 q 442 518 413 499 q 489 569 472 538 q 514 637 506 601 q 524 710 522 672 q 485 877 525 806 q 372 949 444 949 l 372 499 z "},"ŕ":{"ha":724,"x_min":25,"x_max":704,"o":"m 564 665 q 660 615 621 665 q 701 499 699 564 q 690 423 704 457 q 642 365 676 389 q 556 339 607 342 q 499 357 524 338 q 500 417 501 388 q 485 502 500 467 q 444 539 471 538 q 372 386 372 542 l 372 96 q 383 60 372 76 q 410 33 393 43 q 446 24 426 24 l 446 0 l 25 0 l 25 24 q 77 44 56 24 q 99 96 99 65 l 99 504 q 77 556 99 535 q 25 576 56 576 l 25 600 l 372 667 l 372 518 q 564 665 456 667 m 438 742 q 232 701 300 715 q 226 710 229 704 q 222 717 224 717 q 367 847 226 721 q 476 867 428 903 q 503 797 513 840 q 438 742 494 754 z "},"Ř":{"ha":903,"x_min":25,"x_max":890,"o":"m 232 1097 q 193 1182 174 1132 q 250 1228 208 1221 q 336 1168 304 1235 l 393 1049 l 450 1168 q 540 1226 483 1239 q 594 1181 581 1218 q 554 1097 611 1131 q 470 1050 522 1078 q 393 1008 418 1022 q 316 1050 368 1022 q 232 1097 264 1078 m 736 274 q 749 225 740 258 q 763 169 757 192 q 781 116 769 146 q 806 68 793 86 q 842 37 819 50 q 890 24 864 24 l 890 0 l 472 0 l 472 24 q 503 92 522 24 l 389 474 l 372 474 l 372 0 l 25 0 l 25 24 q 77 44 56 24 q 99 96 99 65 l 99 868 q 94 899 99 885 q 80 925 89 914 q 57 942 71 936 q 25 949 43 949 l 25 972 l 474 972 q 751 863 658 972 q 794 674 825 775 q 635 519 764 568 q 453 490 557 490 l 453 474 q 736 274 681 458 m 372 499 q 442 518 413 499 q 489 569 472 538 q 514 637 506 601 q 524 710 522 672 q 485 877 525 806 q 372 949 444 949 l 372 499 z "},"ř":{"ha":724,"x_min":25,"x_max":704,"o":"m 564 665 q 633 640 601 665 q 683 578 665 615 q 701 499 700 540 q 668 388 704 433 q 556 339 632 342 q 499 357 524 338 q 500 417 501 388 q 485 502 500 467 q 444 539 469 538 q 372 386 372 542 l 372 96 q 383 60 372 76 q 410 33 393 43 q 446 24 426 24 l 446 0 l 25 0 l 25 24 q 77 44 56 24 q 99 96 99 65 l 99 504 q 77 556 99 535 q 25 576 56 576 l 25 600 l 372 667 l 372 518 q 564 665 456 667 m 203 790 q 164 876 144 825 q 221 921 179 915 q 307 861 275 928 l 364 743 l 419 861 q 511 919 454 932 q 565 872 553 911 q 525 790 581 824 q 441 744 493 771 q 364 701 389 717 q 286 744 338 717 q 203 790 235 771 z "},"Ś":{"ha":815,"x_min":39,"x_max":775,"o":"m 481 1049 q 275 1008 435 1039 q 265 1024 272 1013 q 312 1065 288 1043 q 365 1113 336 1086 q 411 1154 394 1139 q 519 1172 472 1208 q 547 1104 556 1146 q 481 1049 538 1060 m 268 846 q 287 756 267 799 q 342 684 307 714 q 422 623 378 654 q 514 567 467 592 q 607 510 561 542 q 689 447 653 479 q 748 372 725 415 q 772 278 771 328 q 744 155 774 210 q 665 67 715 100 q 553 17 614 35 q 426 0 492 0 q 238 25 324 0 q 95 107 151 50 q 42 244 39 164 q 90 356 43 313 q 224 397 138 399 q 292 372 267 396 q 289 299 290 342 q 297 208 288 256 q 320 119 306 160 q 366 51 335 78 q 440 24 397 24 q 492 36 468 24 q 530 73 515 49 q 546 129 544 97 q 527 218 547 176 q 472 290 507 260 q 392 351 438 321 q 300 407 347 382 q 207 464 253 432 q 125 527 161 496 q 66 602 89 558 q 42 696 43 646 q 69 820 40 765 q 149 908 99 875 q 261 957 200 940 q 388 974 322 974 q 576 950 490 975 q 719 867 663 925 q 772 731 775 810 q 724 619 771 663 q 590 576 676 575 q 522 601 547 578 q 525 675 524 632 q 517 766 526 718 q 494 854 508 814 q 448 922 479 894 q 374 949 417 949 q 300 920 331 949 q 268 846 269 892 z "},"ś":{"ha":733,"x_min":38,"x_max":694,"o":"m 440 742 q 235 701 289 713 q 232 706 233 703 q 230 710 231 708 q 228 713 229 711 q 225 717 226 715 q 369 847 229 721 q 479 867 431 903 q 506 797 515 840 q 440 742 497 754 m 372 429 q 435 402 396 417 q 508 376 475 388 q 577 345 540 364 q 638 305 614 326 q 678 250 663 283 q 692 174 693 217 q 605 46 689 93 q 369 0 521 -1 q 215 17 286 1 q 93 69 143 33 q 40 151 43 104 q 72 219 38 192 q 151 256 107 247 q 236 261 196 265 q 293 236 275 256 q 294 110 288 158 q 324 45 301 67 q 378 24 347 24 q 425 51 406 25 q 444 122 444 76 q 361 236 444 192 q 284 268 335 250 q 195 302 233 286 q 119 342 157 318 q 60 404 81 367 q 40 493 39 442 q 128 621 43 574 q 363 667 213 668 q 518 649 446 665 q 640 597 590 632 q 692 515 689 563 q 674 460 694 483 q 624 424 654 436 q 559 406 593 411 q 496 406 525 401 q 440 431 457 410 q 438 556 444 508 q 408 621 432 600 q 354 642 385 642 q 308 615 328 642 q 288 543 289 589 q 372 429 288 475 z "},"Ŝ":{"ha":815,"x_min":39,"x_max":775,"o":"m 350 1068 q 260 1010 317 997 q 206 1056 219 1018 q 246 1139 189 1104 q 329 1185 278 1158 q 407 1228 381 1213 q 484 1185 432 1213 q 568 1139 536 1158 q 607 1053 626 1104 q 550 1008 592 1014 q 464 1068 496 1001 l 407 1186 l 350 1068 m 268 846 q 293 746 267 792 q 363 665 319 700 q 460 599 407 631 q 568 534 514 567 q 667 467 622 501 q 742 383 713 432 q 772 278 771 335 q 744 155 774 210 q 665 67 715 100 q 553 17 614 35 q 426 0 492 0 q 238 25 324 0 q 95 107 151 50 q 42 244 39 164 q 90 356 43 313 q 224 397 138 399 q 292 372 268 396 q 289 299 290 342 q 297 208 288 256 q 320 119 306 160 q 366 51 335 78 q 440 24 397 24 q 514 53 483 24 q 546 129 544 82 q 521 228 547 182 q 451 309 494 275 q 353 375 407 343 q 246 440 300 407 q 147 508 192 472 q 72 591 101 543 q 42 696 43 639 q 69 820 40 765 q 149 908 99 875 q 261 957 200 940 q 388 974 322 974 q 576 950 490 975 q 719 867 663 925 q 772 731 775 810 q 724 619 771 663 q 592 576 676 575 q 522 601 547 578 q 525 675 524 632 q 517 766 526 718 q 494 854 508 814 q 448 922 479 894 q 374 949 417 949 q 300 920 331 949 q 268 846 269 892 z "},"ŝ":{"ha":733,"x_min":38,"x_max":694,"o":"m 310 761 q 218 703 276 690 q 165 751 178 711 q 206 832 150 799 q 289 879 238 851 q 367 921 340 907 q 443 879 392 907 q 528 832 494 851 q 567 747 586 797 q 508 701 551 708 q 422 761 454 694 l 367 881 l 310 761 m 372 429 q 449 397 399 415 q 538 363 500 379 q 614 323 575 347 q 674 261 653 299 q 692 174 694 224 q 605 46 689 93 q 369 0 521 -1 q 215 17 286 1 q 93 69 143 33 q 40 151 43 104 q 72 219 38 192 q 151 256 107 247 q 236 261 196 265 q 293 236 275 256 q 294 110 288 158 q 324 45 301 67 q 378 24 347 24 q 425 51 406 25 q 444 122 444 76 q 361 236 444 192 q 284 268 335 250 q 195 302 233 286 q 119 342 157 318 q 60 404 81 367 q 40 493 39 442 q 128 621 43 574 q 363 667 213 668 q 518 649 446 665 q 640 597 590 632 q 692 515 689 563 q 681 469 693 490 q 647 436 668 449 q 599 415 625 424 q 546 406 572 407 q 496 406 519 404 q 440 431 457 410 q 438 556 444 508 q 408 621 432 600 q 356 642 385 642 q 308 615 328 642 q 289 543 289 589 q 372 429 288 475 z "},"Ş":{"ha":815,"x_min":39,"x_max":775,"o":"m 268 846 q 293 746 267 792 q 363 665 319 700 q 460 599 407 631 q 568 534 514 567 q 667 467 622 501 q 742 383 713 432 q 772 278 771 335 q 763 201 774 238 q 733 136 753 164 q 687 85 714 108 q 627 45 660 61 q 560 19 594 29 q 486 4 525 8 q 458 -3 471 1 q 440 -14 446 -7 q 440 -31 435 -21 q 465 -50 446 -40 q 481 -58 468 -51 q 497 -67 493 -65 q 511 -76 500 -69 q 526 -85 522 -82 q 540 -94 531 -87 q 552 -106 549 -101 q 562 -119 556 -111 q 570 -135 568 -128 q 574 -151 572 -142 q 576 -169 576 -160 q 542 -235 576 -208 q 464 -262 507 -261 q 389 -240 419 -265 q 356 -165 358 -215 q 368 -126 356 -143 q 457 -128 414 -140 q 443 -78 506 -114 q 406 -38 413 -60 q 414 0 399 -17 q 231 27 314 1 q 93 109 147 53 q 42 244 39 165 q 90 356 43 313 q 224 397 138 399 q 292 372 268 396 q 290 335 290 356 q 290 289 289 314 q 292 239 290 264 q 300 188 294 214 q 313 138 306 161 q 333 93 321 114 q 360 57 344 72 q 396 33 375 42 q 440 24 417 24 q 492 36 468 24 q 530 73 515 49 q 546 129 544 97 q 531 208 547 171 q 487 275 515 246 q 421 331 458 304 q 342 383 383 358 q 258 432 300 407 q 177 485 215 457 q 109 542 139 513 q 61 612 79 572 q 42 696 43 651 q 69 820 40 765 q 149 908 99 875 q 261 957 200 940 q 388 974 322 974 q 576 950 490 975 q 719 867 663 925 q 772 731 775 810 q 724 619 771 663 q 590 576 676 575 q 522 601 547 578 q 525 675 524 632 q 517 766 526 718 q 494 854 508 814 q 448 922 479 894 q 374 949 417 949 q 300 920 331 949 q 268 846 269 892 z "},"ş":{"ha":733,"x_min":38,"x_max":694,"o":"m 410 0 q 368 -15 376 0 q 394 -50 360 -31 q 410 -58 397 -51 q 426 -67 422 -65 q 442 -75 431 -68 q 457 -85 453 -82 q 469 -94 461 -87 q 482 -106 478 -101 q 492 -119 486 -111 q 499 -134 497 -126 q 503 -151 501 -142 q 506 -169 506 -160 q 472 -235 506 -208 q 393 -262 438 -261 q 342 -255 365 -264 q 303 -223 319 -246 q 286 -165 288 -200 q 297 -126 285 -143 q 388 -128 343 -140 q 372 -76 435 -114 q 335 -38 342 -60 q 344 1 328 -17 q 199 22 265 4 q 88 72 133 39 q 40 151 43 106 q 72 219 38 192 q 151 256 107 247 q 236 261 196 265 q 293 236 275 256 q 294 110 288 158 q 325 45 301 67 q 378 24 349 24 q 425 51 406 25 q 444 122 444 76 q 361 236 444 192 q 285 268 335 250 q 196 302 235 286 q 119 342 157 318 q 60 404 81 367 q 40 493 39 442 q 128 621 43 574 q 363 667 213 668 q 518 649 446 665 q 640 597 590 632 q 692 515 689 563 q 674 460 694 483 q 624 424 654 436 q 559 406 593 411 q 496 406 525 401 q 440 431 457 410 q 438 556 444 508 q 408 621 432 600 q 356 642 385 642 q 322 631 338 642 q 298 597 307 619 q 289 543 289 574 q 372 429 288 475 q 449 397 399 415 q 538 363 500 379 q 614 323 575 347 q 674 261 653 299 q 692 174 694 224 q 615 52 689 99 q 410 0 542 6 z "},"Š":{"ha":815,"x_min":39,"x_max":775,"o":"m 246 1097 q 207 1182 188 1132 q 264 1228 222 1221 q 350 1168 318 1232 l 407 1049 l 464 1168 q 554 1226 497 1239 q 608 1178 596 1218 q 568 1097 624 1131 q 484 1050 536 1078 q 407 1008 432 1022 q 354 1038 383 1022 q 298 1067 325 1053 q 246 1097 271 1082 m 268 846 q 287 756 267 799 q 342 684 307 714 q 422 623 378 654 q 514 567 467 592 q 607 510 561 542 q 689 447 653 479 q 748 372 725 415 q 772 278 771 328 q 744 155 774 210 q 665 67 715 100 q 553 17 614 35 q 426 0 492 0 q 238 25 324 0 q 95 107 151 50 q 42 244 39 164 q 90 356 43 313 q 224 397 138 399 q 292 372 267 396 q 289 299 290 342 q 297 208 288 256 q 320 119 306 160 q 366 51 335 78 q 440 24 397 24 q 514 53 483 24 q 546 129 544 82 q 521 228 547 182 q 451 309 494 275 q 353 375 407 343 q 246 440 300 407 q 147 508 192 472 q 72 591 101 543 q 42 696 43 639 q 69 820 40 765 q 149 908 99 875 q 261 957 200 940 q 388 974 322 974 q 576 950 490 975 q 719 867 663 925 q 772 731 775 810 q 724 619 771 663 q 590 576 676 575 q 522 601 547 578 q 525 675 524 632 q 517 766 526 718 q 494 854 508 814 q 448 922 479 894 q 374 949 417 949 q 300 920 331 949 q 268 846 269 892 z "},"š":{"ha":733,"x_min":38,"x_max":694,"o":"m 206 790 q 167 876 147 825 q 224 921 182 915 q 310 861 278 928 l 367 743 l 424 861 q 514 919 457 932 q 567 874 554 911 q 528 790 585 825 q 476 760 503 775 q 419 731 449 746 q 367 701 390 715 q 290 744 342 717 q 206 790 238 771 m 372 429 q 449 397 399 415 q 538 363 500 379 q 614 323 575 347 q 674 261 653 299 q 692 174 694 224 q 605 46 689 93 q 369 0 521 -1 q 251 11 308 1 q 147 39 194 21 q 72 86 100 57 q 40 151 43 115 q 72 219 38 192 q 151 256 107 247 q 236 261 196 265 q 293 236 275 256 q 294 110 288 158 q 325 45 301 67 q 378 24 349 24 q 425 51 406 25 q 444 122 444 76 q 361 236 444 192 q 285 268 335 250 q 196 302 235 286 q 119 342 157 318 q 60 404 81 367 q 40 493 39 442 q 128 621 43 574 q 363 667 213 668 q 518 649 446 665 q 640 597 590 632 q 692 515 689 563 q 660 447 694 475 q 581 410 626 419 q 496 406 536 400 q 440 431 457 410 q 438 556 444 508 q 408 621 432 600 q 356 642 385 642 q 308 615 328 642 q 289 543 289 589 q 372 429 288 475 z "},"Ţ":{"ha":904,"x_min":21,"x_max":882,"o":"m 21 972 l 882 972 l 882 949 q 857 932 868 944 q 838 899 846 919 q 825 856 831 878 q 816 803 819 835 q 810 748 813 772 q 808 690 808 724 q 808 637 808 656 q 809 588 808 618 q 810 553 810 558 l 785 553 q 768 659 783 594 q 728 790 753 724 q 665 902 703 856 q 589 949 628 949 l 589 96 q 610 44 589 65 q 663 24 632 24 l 663 0 l 465 0 q 424 -15 433 0 q 450 -50 415 -31 q 463 -57 454 -51 q 500 -77 488 -69 q 530 -99 513 -85 q 554 -130 547 -112 q 561 -169 561 -147 q 527 -235 561 -208 q 449 -262 493 -261 q 374 -240 406 -265 q 342 -165 343 -215 q 354 -126 340 -143 q 443 -128 400 -140 q 428 -76 490 -114 q 392 -38 399 -60 q 400 0 385 -17 l 242 0 l 242 24 q 278 33 261 24 q 304 60 294 43 q 314 96 314 76 l 314 949 q 238 902 275 949 q 176 790 200 856 q 135 659 151 724 q 118 551 119 594 l 94 551 q 94 588 94 558 q 94 637 94 618 q 94 690 94 656 q 92 747 94 724 q 88 803 90 771 q 78 856 85 835 q 65 899 72 878 q 46 932 57 919 q 21 949 35 944 l 21 972 z "},"ţ":{"ha":469,"x_min":21,"x_max":490,"o":"m 378 -50 q 394 -58 382 -51 q 410 -67 407 -65 q 425 -76 414 -69 q 440 -85 436 -82 q 453 -94 444 -87 q 466 -106 463 -101 q 475 -119 469 -111 q 483 -135 481 -128 q 488 -151 486 -142 q 490 -169 490 -160 q 455 -235 489 -208 q 376 -262 421 -261 q 302 -240 333 -265 q 269 -165 271 -215 q 282 -126 269 -143 q 371 -128 328 -140 q 356 -76 418 -114 q 318 -32 322 -57 q 339 11 314 -7 q 94 454 94 69 l 94 514 q 94 524 94 517 q 94 555 94 543 q 90 585 93 567 q 79 615 86 604 q 57 633 72 625 q 21 642 42 642 l 21 667 q 131 682 79 667 q 231 729 183 697 q 303 783 278 761 q 368 843 329 804 l 368 667 l 446 667 l 446 642 l 368 642 q 368 505 368 611 q 368 340 368 399 q 446 25 371 24 l 446 0 q 438 0 443 0 q 403 1 421 0 q 355 -12 369 3 q 378 -50 340 -28 z "},"Ť":{"ha":904,"x_min":21,"x_max":882,"o":"m 290 1097 q 251 1182 232 1132 q 308 1228 267 1221 q 396 1168 364 1235 l 451 1049 l 508 1168 q 599 1226 542 1239 q 653 1178 640 1218 q 613 1097 668 1131 q 560 1067 588 1082 q 505 1038 533 1053 q 451 1008 476 1022 q 399 1038 428 1022 q 342 1067 369 1053 q 290 1097 315 1082 m 21 972 l 882 972 l 882 949 q 857 932 868 944 q 838 899 846 919 q 825 856 831 878 q 816 803 819 835 q 811 747 813 771 q 809 690 810 724 q 808 637 808 656 q 809 588 808 618 q 810 551 810 558 l 786 551 q 768 659 783 594 q 728 790 753 724 q 665 902 703 856 q 589 949 628 949 l 589 96 q 599 60 589 76 q 625 33 608 43 q 663 24 642 24 l 663 0 l 242 0 l 242 24 q 278 33 261 24 q 304 60 294 43 q 314 96 314 76 l 314 949 q 238 902 275 949 q 176 790 200 856 q 135 659 151 724 q 118 551 119 594 l 94 551 q 94 588 94 558 q 94 637 94 618 q 94 690 94 656 q 92 747 94 724 q 88 803 90 771 q 78 856 85 835 q 65 899 72 878 q 46 932 57 919 q 21 949 35 944 l 21 972 z "},"Ũ":{"ha":879,"x_min":21,"x_max":858,"o":"m 322 1008 q 247 1040 271 1010 q 224 1115 222 1071 q 252 1194 226 1160 q 317 1228 278 1228 q 451 1117 393 1228 q 507 1126 486 1053 q 518 1215 521 1175 q 557 1228 535 1228 q 632 1195 607 1226 q 654 1121 657 1164 q 626 1042 653 1076 q 561 1008 600 1008 q 426 1119 485 1007 q 372 1108 393 1183 q 361 1019 358 1061 q 322 1008 344 1007 m 508 972 l 858 972 l 858 949 q 785 478 789 949 q 685 120 783 240 q 429 0 588 0 q 307 21 361 0 q 217 81 253 42 q 157 166 182 119 q 119 272 132 213 q 100 385 106 331 q 94 499 94 439 l 94 876 q 73 928 94 907 q 21 949 51 949 l 21 972 l 442 972 l 442 949 q 390 928 411 949 q 368 876 368 907 q 363 727 368 849 q 358 526 358 606 q 474 90 361 186 q 629 93 546 28 q 750 318 718 161 q 761 482 767 396 q 714 715 754 606 q 618 887 674 825 q 508 949 563 949 l 508 972 z "},"ũ":{"ha":871,"x_min":15,"x_max":853,"o":"m 317 701 q 241 734 265 703 q 218 808 217 765 q 247 887 221 853 q 311 921 274 921 q 446 810 388 922 q 501 821 481 746 q 513 910 515 868 q 551 921 529 922 q 626 889 601 919 q 649 814 651 858 q 636 760 647 786 q 603 718 625 735 q 556 701 582 701 q 421 813 481 701 q 367 803 388 876 q 356 714 353 754 q 317 701 339 701 m 779 96 q 801 44 779 65 q 853 24 822 24 l 853 0 l 504 0 l 504 78 q 315 0 436 0 q 233 15 269 0 q 172 49 196 29 q 132 106 149 69 q 107 172 115 142 q 94 248 99 201 q 90 323 90 294 q 89 397 89 351 l 89 504 q 67 556 89 535 q 15 576 46 576 l 15 600 l 363 667 l 363 328 q 442 71 363 69 q 504 113 476 72 l 504 504 q 494 540 504 524 q 468 567 485 557 q 432 576 451 576 l 432 600 l 779 667 l 779 96 z "},"Ů":{"ha":879,"x_min":21,"x_max":858,"o":"m 517 1040 q 501 1024 517 1040 q 440 1008 485 1008 q 362 1040 394 1008 q 329 1118 329 1072 q 362 1196 329 1164 q 440 1228 394 1228 q 517 1196 485 1228 q 550 1118 550 1164 q 517 1040 550 1072 m 500 1178 q 488 1191 500 1178 q 440 1204 475 1204 q 378 1178 404 1204 q 353 1117 353 1153 q 378 1057 353 1082 q 439 1032 404 1032 q 473 1039 457 1032 q 500 1057 489 1046 q 518 1084 511 1068 q 525 1118 525 1100 q 500 1178 525 1153 m 508 972 l 858 972 l 858 949 q 785 478 789 949 q 685 120 783 240 q 429 0 588 0 q 307 21 361 0 q 217 81 253 42 q 157 166 182 119 q 119 272 132 213 q 100 385 106 331 q 94 499 94 439 l 94 876 q 73 928 94 907 q 21 949 51 949 l 21 972 l 442 972 l 442 949 q 406 939 422 949 q 378 913 389 929 q 368 876 368 896 q 363 727 368 849 q 358 526 358 606 q 474 90 361 186 q 629 93 546 28 q 750 318 718 161 q 761 482 767 396 q 714 715 754 606 q 618 887 674 825 q 508 949 563 949 l 508 972 z "},"ů":{"ha":871,"x_min":15,"x_max":853,"o":"m 779 96 q 801 44 779 65 q 853 24 822 24 l 853 0 l 504 0 l 504 78 q 315 0 436 0 q 254 6 282 0 q 206 26 226 13 q 167 54 185 39 q 138 93 150 69 q 118 137 126 117 q 104 187 110 157 q 95 239 99 217 q 90 294 92 261 q 89 346 89 326 q 89 397 89 365 l 89 504 q 67 556 89 535 q 15 576 46 576 l 15 600 l 363 667 l 363 328 q 442 71 363 69 q 504 113 476 72 l 504 504 q 483 556 504 535 q 431 576 461 576 l 431 600 l 779 667 l 779 96 m 511 733 q 495 717 511 733 q 433 701 479 701 q 356 733 388 701 q 324 811 324 765 q 356 889 324 857 q 433 921 388 921 q 511 889 479 921 q 543 811 543 857 q 511 733 543 765 m 433 897 q 390 886 410 897 q 359 855 371 875 q 347 811 347 835 q 373 751 347 776 q 434 725 399 725 q 494 751 469 725 q 519 812 519 776 q 494 872 519 847 q 433 897 469 897 z "},"Ŵ":{"ha":1374,"x_min":21,"x_max":1351,"o":"m 631 1068 q 539 1010 596 997 q 485 1057 497 1018 q 525 1139 469 1106 q 608 1185 557 1158 q 686 1228 660 1213 q 740 1199 711 1214 q 795 1169 768 1183 q 847 1139 822 1154 q 886 1053 906 1104 q 829 1008 871 1014 q 743 1068 775 1001 l 686 1186 l 631 1068 m 918 972 q 1135 972 981 972 q 1351 972 1290 972 l 1351 949 q 1025 115 1222 949 q 1033 83 1029 94 q 1044 55 1036 71 q 1066 31 1053 39 q 1099 24 1079 24 l 1099 0 l 767 0 l 660 503 q 558 115 610 335 q 566 83 563 94 q 578 55 569 71 q 599 31 586 39 q 632 24 613 24 l 632 0 l 226 0 l 226 24 q 276 108 294 24 l 115 869 q 82 925 108 901 q 21 949 56 949 l 21 972 l 378 972 l 547 169 q 581 314 557 213 q 618 469 606 415 q 628 548 626 507 q 626 635 631 589 q 615 713 621 681 q 599 794 610 744 q 471 949 567 949 l 471 972 l 846 972 l 1014 169 q 1024 214 1018 188 q 1036 265 1031 240 q 1047 310 1042 289 q 1067 412 1058 356 q 1084 544 1076 468 q 1087 688 1092 619 q 1067 817 1082 757 q 1014 913 1051 876 q 918 949 976 949 l 918 972 z "},"ŵ":{"ha":1340,"x_min":21,"x_max":1319,"o":"m 614 761 q 522 703 579 690 q 468 751 481 711 q 508 832 453 799 q 560 862 533 847 q 617 892 588 876 q 669 921 646 907 q 723 892 694 907 q 778 862 751 876 q 831 832 806 847 q 869 747 889 797 q 813 701 854 708 q 726 761 758 694 l 669 881 l 614 761 m 911 667 q 1319 667 1199 667 l 1315 643 q 1167 517 1260 643 q 986 208 1075 390 q 894 0 939 114 l 799 0 l 638 385 l 544 211 q 450 0 501 131 l 354 0 l 115 569 q 21 642 86 642 l 21 667 l 415 667 l 415 642 q 394 633 400 642 q 388 611 388 624 q 390 588 388 599 q 394 571 392 578 l 533 240 l 626 413 l 561 568 q 465 642 531 642 l 465 667 l 860 667 l 860 642 q 838 633 844 642 q 832 610 831 624 q 836 584 833 596 q 843 561 839 572 l 978 242 q 1031 445 1022 354 q 1008 589 1039 536 q 911 642 978 642 l 911 667 z "},"Ÿ":{"ha":943,"x_min":33,"x_max":908,"o":"m 427 1040 q 411 1024 427 1040 q 349 1008 394 1008 q 272 1040 304 1008 q 239 1118 239 1072 q 272 1196 239 1164 q 349 1228 304 1228 q 427 1196 394 1228 q 460 1118 460 1164 q 427 1040 460 1072 m 671 1040 q 655 1024 671 1040 q 593 1008 639 1008 q 515 1040 547 1008 q 483 1118 483 1072 q 515 1196 483 1164 q 593 1228 547 1228 q 649 1213 624 1228 q 688 1173 674 1199 q 703 1118 703 1147 q 671 1040 703 1072 m 542 972 l 908 972 l 908 949 q 878 939 896 949 q 838 907 861 929 q 797 866 815 885 q 749 810 779 847 q 703 753 718 772 q 653 688 688 733 q 608 631 618 643 l 608 96 q 630 44 608 65 q 682 24 651 24 l 682 0 l 261 0 l 261 24 q 313 44 292 24 q 333 96 333 65 l 333 511 l 135 876 q 90 927 118 906 q 33 949 63 949 l 33 972 l 482 972 l 482 949 q 418 923 439 949 q 418 858 397 897 l 560 601 q 592 665 575 625 q 620 755 608 706 q 633 847 632 804 q 611 919 633 890 q 542 949 589 949 l 542 972 z "},"Ź":{"ha":814,"x_min":21,"x_max":793,"o":"m 719 419 q 719 384 719 414 q 718 335 718 354 q 719 283 718 317 q 722 225 719 249 q 726 169 724 201 q 735 116 729 138 q 748 74 740 94 q 767 40 756 53 q 793 24 779 28 l 793 0 l 94 0 l 94 24 l 426 942 q 204 820 283 919 q 118 551 125 721 l 94 551 q 94 588 94 558 q 94 637 94 618 q 94 690 94 656 q 92 747 94 724 q 88 803 90 771 q 78 856 85 835 q 65 899 72 878 q 46 932 57 919 q 21 949 35 944 l 21 972 l 719 972 l 719 949 l 388 31 q 609 152 529 53 q 696 419 689 251 l 719 419 m 481 1049 q 275 1008 446 1042 q 265 1024 272 1013 q 311 1065 288 1043 q 365 1113 335 1086 q 410 1154 394 1139 q 519 1172 471 1208 q 547 1104 556 1146 q 481 1049 538 1060 z "},"ź":{"ha":751,"x_min":22,"x_max":729,"o":"m 449 742 q 243 701 322 717 q 239 710 242 704 q 235 717 236 715 q 379 847 306 782 q 489 867 440 903 q 515 797 524 840 q 449 742 507 754 m 654 326 q 729 24 654 43 l 729 0 l 31 0 l 31 24 l 393 629 q 198 527 275 603 q 121 339 121 451 l 96 339 q 22 642 96 622 l 22 667 l 721 667 l 721 642 q 608 451 668 553 q 473 227 547 350 q 358 36 399 104 q 494 91 435 54 q 592 190 554 128 q 631 328 631 251 l 654 326 z "},"Ž":{"ha":814,"x_min":21,"x_max":793,"o":"m 246 1097 q 207 1182 188 1132 q 264 1228 222 1221 q 350 1168 318 1235 l 407 1049 l 463 1168 q 554 1226 497 1239 q 608 1178 596 1218 q 568 1097 624 1131 q 484 1050 536 1078 q 407 1008 432 1022 q 353 1038 382 1022 q 298 1067 325 1053 q 246 1097 271 1082 m 719 419 q 719 384 719 414 q 718 335 718 354 q 719 283 718 317 q 722 225 719 249 q 726 169 724 201 q 735 116 729 138 q 748 74 740 94 q 767 40 756 53 q 793 24 779 28 l 793 0 l 94 0 l 94 24 l 426 942 q 204 820 283 919 q 118 551 125 721 l 94 551 q 94 588 94 558 q 94 637 94 618 q 94 690 94 656 q 92 747 94 724 q 88 803 90 771 q 78 856 85 835 q 65 899 72 878 q 46 932 57 919 q 21 949 35 944 l 21 972 l 719 972 l 719 949 l 388 31 q 610 152 531 53 q 696 419 689 251 l 719 419 z "},"ž":{"ha":751,"x_min":22,"x_max":729,"o":"m 654 326 q 659 197 654 253 q 681 86 664 140 q 729 24 699 32 l 729 0 l 31 0 l 31 24 l 393 629 q 198 527 275 603 q 121 339 121 451 l 96 339 q 22 642 96 622 l 22 667 l 721 667 l 721 642 q 608 451 668 553 q 473 227 547 350 q 358 36 399 104 q 494 91 435 54 q 592 190 554 128 q 631 328 631 251 l 654 326 m 214 790 q 175 876 157 825 q 233 921 190 915 q 319 861 288 928 l 375 743 l 432 861 q 524 919 465 932 q 576 872 564 911 q 538 790 592 824 q 453 744 504 771 q 375 701 401 717 q 299 744 350 717 q 214 790 247 771 z "},"Ǿ":{"ha":906,"x_min":31,"x_max":875,"o":"m 526 1049 q 321 1008 446 1033 q 315 1017 318 1011 q 311 1024 313 1022 q 357 1065 333 1043 q 410 1113 381 1086 q 456 1154 440 1139 q 565 1172 517 1208 q 593 1104 601 1146 q 526 1049 583 1060 m 601 942 q 799 765 722 889 q 874 486 875 640 q 817 242 874 354 q 664 65 761 131 q 453 0 567 0 q 325 22 388 0 l 318 0 l 294 0 l 304 31 q 106 208 182 83 q 31 486 31 332 q 64 675 31 585 q 153 831 97 765 q 288 934 210 896 q 453 972 367 972 q 579 950 518 972 l 586 972 l 611 972 l 601 942 m 306 486 q 346 168 306 301 l 547 842 q 453 949 506 949 q 349 814 392 949 q 306 486 306 679 m 453 24 q 557 158 514 24 q 600 486 600 293 q 560 804 600 671 l 358 131 q 453 24 399 24 z "},"ǿ":{"ha":822,"x_min":29,"x_max":792,"o":"m 485 742 q 279 701 357 717 q 276 707 278 704 q 272 713 274 710 q 269 717 271 715 q 414 847 339 781 q 524 867 475 903 q 550 797 560 840 q 485 742 542 754 m 536 647 q 720 527 649 614 q 792 333 792 440 q 680 97 792 194 q 411 0 568 0 q 307 13 357 0 l 303 0 l 279 0 l 285 18 q 101 139 172 53 q 29 333 29 225 q 141 569 29 471 q 411 667 253 667 q 514 654 464 667 l 518 667 l 543 667 l 536 647 m 304 333 q 328 138 304 222 l 482 564 q 411 642 451 642 q 357 601 382 642 q 318 488 332 560 q 304 333 304 417 m 411 24 q 487 115 456 24 q 518 333 518 206 q 493 529 518 443 l 339 103 q 411 24 369 24 z "},"Ȁ":{"ha":958,"x_min":21,"x_max":936,"o":"m 360 1049 q 292 1110 297 1061 q 324 1175 288 1151 q 408 1171 361 1200 q 457 1185 425 1188 q 521 1154 489 1183 q 665 1024 525 1150 q 657 1008 663 1018 l 575 1024 q 569 1017 572 1022 q 565 1008 567 1011 q 513 1018 542 1013 q 462 1028 485 1024 q 410 1039 439 1033 q 360 1049 382 1044 m 836 132 q 936 24 858 25 l 936 0 l 506 0 l 506 24 q 551 49 539 24 q 557 108 564 75 l 479 474 l 282 474 q 273 374 274 431 q 287 255 272 317 q 323 142 301 193 q 379 57 344 90 q 454 24 414 24 l 454 0 l 21 0 l 21 24 q 83 67 50 24 q 149 190 117 111 q 210 353 181 268 q 267 544 239 438 q 315 723 296 650 q 353 878 333 796 q 344 928 360 907 q 299 949 329 949 l 299 972 q 435 972 347 972 q 596 972 524 972 q 732 972 668 972 l 732 949 q 686 928 700 949 q 678 876 672 907 l 836 132 m 288 499 l 475 499 l 386 918 l 288 499 z "},"ȁ":{"ha":808,"x_min":21,"x_max":788,"o":"m 285 742 q 218 803 224 754 q 249 869 213 846 q 333 864 288 892 q 382 879 350 882 q 446 847 414 876 q 519 783 471 826 q 592 717 567 739 q 582 701 590 715 l 500 718 q 490 701 497 714 q 439 712 468 706 q 388 722 410 718 q 336 732 365 726 q 285 742 307 738 m 714 96 q 724 60 714 76 q 750 33 733 43 q 788 24 767 24 l 788 0 l 439 0 l 439 69 q 257 0 372 0 q 83 54 144 0 q 21 183 21 108 q 84 311 21 257 q 260 365 147 365 q 439 299 372 365 l 439 367 q 371 642 442 643 q 347 631 357 642 q 334 601 338 621 q 329 561 331 582 q 330 515 328 540 q 333 471 332 489 q 338 432 335 453 q 342 408 340 411 q 271 390 324 392 q 194 398 225 389 q 143 431 163 407 q 125 497 124 456 q 191 615 126 565 q 382 667 256 665 q 620 585 526 667 q 714 361 714 504 q 714 229 714 267 q 714 96 714 192 m 439 104 q 439 184 439 119 q 439 265 439 249 q 385 294 414 293 q 338 278 358 294 q 306 235 317 261 q 296 181 296 210 q 319 103 296 136 q 382 71 343 69 q 439 104 413 72 z "},"Ȑ":{"ha":903,"x_min":25,"x_max":890,"o":"m 261 1049 q 194 1110 200 1061 q 225 1175 189 1151 q 310 1169 264 1200 q 358 1185 326 1188 q 424 1154 390 1183 q 568 1024 519 1067 q 558 1008 565 1018 l 476 1024 q 472 1016 475 1021 q 467 1008 468 1011 q 401 1021 439 1014 q 327 1035 364 1028 q 261 1049 290 1043 m 736 274 q 749 225 740 258 q 763 169 757 192 q 781 116 769 146 q 806 68 793 86 q 842 37 819 50 q 890 24 864 24 l 890 0 l 472 0 l 472 24 q 503 92 522 24 l 389 474 l 372 474 l 372 0 l 25 0 l 25 24 q 77 44 56 24 q 99 96 99 65 l 99 868 q 79 926 99 903 q 25 949 60 949 l 25 972 l 472 972 q 750 863 658 972 q 794 674 825 775 q 635 519 764 568 q 453 490 557 490 l 453 474 q 736 274 681 458 m 372 499 q 442 518 413 499 q 489 569 472 538 q 514 637 506 601 q 524 710 522 672 q 485 877 525 806 q 372 949 444 949 l 372 499 z "},"ȑ":{"ha":724,"x_min":25,"x_max":704,"o":"m 244 742 q 176 803 182 754 q 208 869 172 846 q 293 864 246 893 q 342 879 310 882 q 406 847 374 876 q 442 815 422 833 q 478 783 463 797 q 515 750 494 768 q 550 717 535 732 q 542 701 546 710 l 458 718 q 454 710 457 715 q 450 701 451 704 q 244 742 324 726 m 564 665 q 660 615 621 665 q 701 499 699 564 q 668 388 704 433 q 556 339 632 342 q 499 357 524 338 q 500 417 501 388 q 494 475 500 449 q 474 519 488 501 q 444 539 461 538 q 372 386 372 542 l 372 96 q 394 44 372 65 q 446 24 415 24 l 446 0 l 25 0 l 25 24 q 77 44 56 24 q 99 96 99 65 l 99 504 q 92 533 99 519 q 76 556 86 546 q 53 571 67 565 q 25 576 40 576 l 25 600 l 372 667 l 372 518 q 564 665 456 667 z "},"˄":{"ha":553,"x_min":38,"x_max":514,"o":"m 263 707 l 290 707 l 514 243 l 493 231 l 276 683 l 58 231 l 38 243 l 263 707 z "},"˅":{"ha":553,"x_min":38,"x_max":514,"o":"m 290 231 l 263 231 l 38 694 l 58 707 l 276 254 l 493 707 l 514 694 l 290 231 z "},"˘":{"ha":597,"x_min":63,"x_max":536,"o":"m 242 914 q 263 869 251 894 q 278 833 275 843 q 290 815 282 824 q 299 807 297 807 q 308 815 300 807 q 318 833 315 824 q 333 869 321 843 q 356 914 346 894 q 409 968 376 957 q 469 964 442 979 q 516 924 496 949 q 535 879 536 900 q 463 810 533 838 q 300 783 392 783 q 134 810 206 783 q 63 879 63 836 q 83 926 63 901 q 130 965 103 950 q 189 968 157 979 q 242 914 221 957 z "},"˙":{"ha":313,"x_min":46,"x_max":265,"o":"m 78 940 q 94 956 78 940 q 156 972 110 972 q 233 940 201 972 q 265 863 265 908 q 233 785 265 817 q 156 753 201 753 q 78 785 110 753 q 46 863 46 817 q 78 940 46 908 z "},"҂":{"ha":542,"x_min":21,"x_max":521,"o":"m 514 475 l 294 535 l 269 433 l 488 375 l 482 351 l 264 410 l 168 0 l 144 0 l 242 415 l 21 475 l 28 499 l 247 439 l 271 540 l 54 599 l 60 621 l 276 564 l 374 972 l 397 972 l 300 557 l 521 499 l 514 475 z "},"֏":{"ha":854,"x_min":40,"x_max":799,"o":"m 724 563 l 799 563 l 799 539 l 725 539 q 726 494 726 517 q 726 435 726 475 l 799 435 l 799 411 l 728 411 q 799 24 736 24 l 799 0 l 449 0 l 449 24 q 597 136 524 24 q 694 411 669 249 l 449 411 l 449 435 l 697 435 q 703 492 701 463 q 703 539 704 515 l 449 539 l 449 563 l 703 563 q 683 690 700 629 q 640 795 665 751 q 583 868 615 839 q 518 908 551 897 q 451 904 485 918 q 388 854 417 890 q 338 749 360 818 q 307 586 317 681 l 40 586 q 59 701 46 649 q 97 806 72 754 q 158 893 122 857 q 247 951 193 929 q 369 972 301 972 q 612 869 517 972 q 724 563 707 767 z "},"Ḇ":{"ha":829,"x_min":25,"x_max":804,"o":"m 517 474 q 729 394 654 465 q 801 232 804 324 q 711 68 797 136 q 474 0 625 0 l 25 0 l 25 24 q 77 44 56 24 q 99 96 99 65 l 99 876 q 77 928 99 907 q 25 949 56 949 l 25 972 l 474 972 q 616 940 554 972 q 709 858 678 907 q 746 749 740 808 q 730 636 751 689 q 652 543 708 583 q 517 492 596 503 l 517 474 m 372 949 l 372 494 q 422 519 400 494 q 454 585 443 544 q 471 674 465 625 q 471 770 476 722 q 454 858 465 818 q 422 924 443 899 q 372 949 400 949 m 372 24 q 444 49 413 24 q 494 113 476 74 q 519 199 511 151 q 521 295 528 247 q 498 383 514 343 q 449 447 482 422 q 372 471 415 471 l 372 24 m 557 -64 l 226 -64 l 226 -39 l 557 -39 l 557 -64 z "},"ḇ":{"ha":792,"x_min":-11,"x_max":754,"o":"m 536 -64 l 206 -64 l 206 -39 l 536 -39 l 536 -64 m 518 667 q 649 616 594 667 q 729 489 704 565 q 753 325 754 413 q 726 165 751 239 q 647 43 701 92 q 518 -6 593 -6 q 483 -5 499 -6 q 453 0 468 -4 q 431 6 439 4 q 408 17 422 8 q 388 28 393 25 q 364 44 383 31 q 338 63 344 57 q 190 73 285 96 q 63 0 96 50 l 63 811 q 41 862 63 840 q -11 883 19 883 l -11 907 l 336 972 l 336 597 q 518 667 404 667 m 393 65 q 433 94 415 65 q 459 170 450 124 q 472 274 468 217 q 472 388 476 331 q 459 491 468 444 q 433 567 450 538 q 393 594 415 596 q 336 563 363 594 l 336 97 q 393 65 363 67 z "},"Ḏ":{"ha":822,"x_min":25,"x_max":789,"o":"m 556 -64 l 225 -64 l 225 -39 l 556 -39 l 556 -64 m 372 972 q 505 953 444 972 q 610 900 565 935 q 690 820 656 865 q 747 720 725 775 q 778 607 768 665 q 789 486 789 549 q 774 342 789 411 q 726 210 758 272 q 646 101 693 147 q 528 27 599 54 q 372 0 458 0 l 25 0 l 25 24 q 77 44 56 24 q 99 96 99 65 l 99 876 q 77 928 99 907 q 25 949 56 949 l 25 972 l 372 972 m 372 24 q 478 174 442 42 q 514 486 514 307 q 478 798 514 665 q 372 949 442 931 l 372 24 z "},"ḏ":{"ha":821,"x_min":38,"x_max":801,"o":"m 585 -64 l 254 -64 l 254 -39 l 585 -39 l 585 -64 m 728 96 q 749 44 728 65 q 801 24 771 24 l 801 0 l 454 0 l 454 64 q 272 -6 386 -6 q 143 44 197 -6 q 64 167 89 93 q 38 326 39 240 q 52 451 38 390 q 94 560 67 511 q 169 638 122 608 q 272 667 215 667 q 454 597 386 667 l 454 811 q 433 862 454 840 q 381 883 411 883 l 381 907 l 728 972 l 728 96 m 454 97 l 454 563 q 397 594 428 594 q 346 541 367 596 q 320 408 325 486 q 320 252 315 331 q 346 119 325 174 q 397 65 367 65 q 454 97 428 67 z "},"Ḡ":{"ha":888,"x_min":32,"x_max":838,"o":"m 599 1008 l 268 1008 l 268 1032 l 599 1032 l 599 1008 m 461 478 l 833 478 l 833 0 l 551 0 l 551 24 q 658 338 656 38 l 635 338 q 557 85 628 169 q 374 0 486 0 q 195 67 275 0 q 74 240 115 135 q 33 464 32 346 q 45 589 33 528 q 79 707 57 650 q 137 812 101 764 q 217 896 172 860 q 323 952 263 932 q 453 972 383 972 q 757 843 649 972 q 826 642 838 747 q 726 507 817 540 q 647 495 690 494 q 578 521 603 496 q 544 833 576 717 q 453 949 511 949 q 364 875 400 949 q 322 698 328 801 q 330 492 317 594 q 388 321 343 389 q 499 260 433 253 q 557 319 549 264 q 524 424 568 381 q 461 453 497 449 l 461 478 z "},"ḡ":{"ha":814,"x_min":26,"x_max":783,"o":"m 424 701 l 93 701 l 93 725 l 424 725 l 424 701 m 353 161 q 462 167 404 167 q 577 153 519 168 q 681 112 635 138 q 754 38 726 86 q 782 -74 782 -11 q 682 -238 781 -169 q 403 -307 583 -307 q 244 -283 315 -307 q 130 -221 172 -258 q 65 -139 88 -183 q 44 -50 43 -94 q 108 63 49 25 q 243 94 167 100 q 306 69 283 92 q 300 -129 290 -51 q 335 -245 310 -207 q 403 -283 361 -283 q 483 -220 454 -283 q 510 -72 511 -157 q 472 101 510 53 q 325 133 433 149 q 197 128 243 122 q 133 160 151 135 q 132 210 115 186 q 188 238 149 233 q 67 324 108 271 q 29 439 26 378 q 132 599 33 532 q 406 665 231 665 q 481 661 465 665 q 457 714 460 678 q 470 786 454 750 q 526 850 486 822 q 622 879 567 878 q 690 864 658 879 q 741 817 721 849 q 763 749 761 786 q 755 708 764 725 q 723 678 746 690 q 666 666 700 667 q 610 683 632 665 q 607 722 611 704 q 551 771 596 769 q 506 753 525 772 q 492 706 488 733 q 525 661 496 678 q 560 649 540 653 q 726 560 668 621 q 782 428 783 500 q 680 267 779 335 q 406 200 581 200 q 333 203 369 200 q 290 210 324 204 q 242 215 257 215 q 192 193 199 217 q 224 158 185 169 l 254 154 q 353 161 294 153 m 406 642 q 354 619 376 642 q 320 559 332 596 q 303 478 308 522 q 303 388 297 433 q 320 306 308 343 q 354 247 332 269 q 406 224 376 224 q 472 267 444 224 q 506 372 500 310 q 506 494 513 433 q 472 599 500 556 q 406 642 444 642 z "},"Ḧ":{"ha":915,"x_min":25,"x_max":890,"o":"m 657 1040 q 641 1024 657 1040 q 579 1008 625 1008 q 501 1040 533 1008 q 469 1118 469 1072 q 501 1196 469 1164 q 579 1228 533 1228 q 657 1196 625 1228 q 689 1118 689 1164 q 657 1040 689 1072 m 413 1040 q 397 1024 413 1040 q 335 1008 381 1008 q 258 1040 290 1008 q 225 1118 225 1072 q 258 1196 225 1164 q 336 1228 290 1228 q 391 1213 365 1228 q 431 1173 417 1199 q 446 1118 446 1147 q 413 1040 446 1072 m 890 949 q 838 928 860 949 q 817 876 817 907 l 817 96 q 838 44 817 65 q 890 24 860 24 l 890 0 l 483 0 l 483 24 q 524 47 507 24 q 542 96 542 71 l 542 471 l 372 471 l 372 96 q 390 47 372 71 q 432 24 408 24 l 432 0 l 25 0 l 25 24 q 77 44 56 24 q 99 96 99 65 l 99 876 q 77 928 99 907 q 25 949 56 949 l 25 972 l 432 972 l 432 949 q 390 925 408 949 q 372 876 372 901 l 372 494 l 542 494 l 542 876 q 524 925 542 901 q 483 949 507 949 l 483 972 l 890 972 l 890 949 z "},"ḧ":{"ha":879,"x_min":21,"x_max":858,"o":"m 582 733 q 566 717 582 733 q 504 701 550 701 q 426 733 458 701 q 394 811 394 765 q 426 889 394 857 q 504 921 458 921 q 582 889 550 921 q 614 811 614 857 q 582 733 614 765 m 747 701 q 692 716 718 701 q 652 756 667 731 q 638 811 638 782 q 670 889 638 857 q 748 921 703 921 q 826 889 793 921 q 858 811 858 857 q 826 733 858 765 q 747 701 793 701 m 785 96 q 806 44 785 65 q 858 24 828 24 l 858 0 l 438 0 l 438 24 q 488 44 467 24 q 510 96 510 65 l 510 339 q 432 594 510 597 q 368 554 397 593 l 368 0 l 21 0 l 21 24 q 73 44 51 24 q 94 96 94 65 l 94 811 q 73 861 94 840 q 21 882 51 882 l 21 907 l 368 972 l 368 589 q 558 665 438 665 q 641 651 604 665 q 701 617 678 638 q 740 560 724 596 q 765 495 757 525 q 778 418 774 465 q 784 343 783 371 q 785 269 785 315 l 785 96 z "},"Ḻ":{"ha":744,"x_min":25,"x_max":724,"o":"m 539 -64 l 208 -64 l 208 -39 l 539 -39 l 539 -64 m 650 419 q 649 384 650 414 q 649 335 649 354 q 650 283 650 317 q 652 224 650 249 q 657 169 654 200 q 666 116 660 138 q 680 74 672 94 q 699 40 688 53 q 724 24 710 28 l 724 0 l 25 0 l 25 24 q 77 44 56 24 q 99 96 99 65 l 99 876 q 77 928 99 907 q 25 949 56 949 l 25 972 l 446 972 l 446 949 q 410 939 426 949 q 383 913 393 929 q 372 876 372 896 l 372 24 q 449 56 410 24 q 517 138 488 89 q 572 242 547 188 q 611 345 597 297 q 626 419 625 393 l 650 419 z "},"ḻ":{"ha":464,"x_min":21,"x_max":442,"o":"m 368 96 q 390 44 368 65 q 442 24 411 24 l 442 0 l 21 0 l 21 24 q 73 44 51 24 q 94 96 94 65 l 94 811 q 73 862 94 840 q 21 883 51 883 l 21 907 l 368 972 l 368 96 m 397 -64 l 67 -64 l 67 -39 l 397 -39 l 397 -64 z "},"Ḿ":{"ha":1374,"x_min":21,"x_max":1351,"o":"m 760 1049 q 554 1008 725 1042 q 546 1024 551 1014 q 591 1065 567 1043 q 644 1113 615 1086 q 690 1154 674 1139 q 800 1172 751 1208 q 826 1104 835 1146 q 760 1049 818 1060 m 1247 147 q 1256 113 1251 126 q 1268 81 1260 99 q 1287 51 1276 63 q 1314 32 1297 40 q 1351 24 1331 24 l 1351 0 l 994 0 l 825 803 q 803 707 815 761 q 777 599 790 653 q 754 503 764 544 q 743 419 744 461 q 749 321 742 376 q 762 240 757 265 q 781 149 767 215 q 829 57 793 90 q 901 24 865 24 l 901 0 l 528 0 l 358 803 q 342 734 353 779 q 328 669 332 689 q 308 566 317 622 q 290 433 299 510 q 286 287 282 356 q 306 157 290 218 q 359 60 321 96 q 454 24 397 24 l 454 0 l 21 0 l 21 24 q 336 807 146 24 q 343 866 340 835 q 328 923 346 897 q 275 949 311 949 l 275 972 q 378 972 311 972 q 501 972 446 972 q 607 972 557 972 l 713 469 q 804 815 757 618 q 809 873 810 843 q 791 926 808 903 q 742 949 774 949 l 742 972 q 869 972 786 972 q 1019 972 951 972 q 1146 972 1086 972 l 1146 949 q 1103 931 1118 949 q 1092 886 1088 913 l 1247 147 z "},"ḿ":{"ha":1300,"x_min":25,"x_max":1278,"o":"m 1204 96 q 1226 44 1204 65 q 1278 24 1247 24 l 1278 0 l 857 0 l 857 24 q 909 44 888 24 q 931 96 931 65 l 931 339 q 853 594 931 597 q 765 511 800 593 q 789 269 789 433 l 789 0 l 442 0 l 442 24 q 492 44 471 24 q 514 96 514 65 l 514 339 q 436 594 514 597 q 372 554 401 593 l 372 0 l 25 0 l 25 24 q 77 44 56 24 q 99 96 99 65 l 99 504 q 77 556 99 535 q 25 576 56 576 l 25 600 l 372 667 l 372 589 q 563 665 442 665 q 756 539 704 665 q 978 665 822 665 q 1061 651 1025 665 q 1121 617 1097 638 q 1161 560 1144 596 q 1186 495 1178 525 q 1199 418 1194 465 q 1203 343 1203 371 q 1204 269 1204 315 l 1204 96 m 725 742 q 519 701 576 713 q 515 710 518 704 q 511 717 513 715 q 656 847 515 721 q 765 867 717 903 q 792 797 800 840 q 725 742 782 754 z "},"Ṕ":{"ha":822,"x_min":25,"x_max":801,"o":"m 467 1049 q 261 1008 388 1033 q 253 1024 258 1013 q 289 1057 269 1039 q 324 1089 308 1075 q 361 1122 340 1103 q 397 1154 382 1140 q 507 1172 458 1208 q 533 1104 542 1146 q 467 1049 525 1060 m 474 972 q 714 897 626 972 q 801 719 801 822 q 715 544 801 618 q 474 471 629 471 l 372 471 l 372 96 q 394 44 372 65 q 446 24 415 24 l 446 0 l 25 0 l 25 24 q 77 44 56 24 q 99 96 99 65 l 99 863 q 80 924 99 900 q 25 949 61 949 l 25 972 l 474 972 m 372 494 q 454 526 419 494 q 506 606 489 558 q 524 710 522 654 q 485 877 525 806 q 372 949 444 949 l 372 494 z "},"ṕ":{"ha":829,"x_min":21,"x_max":792,"o":"m 479 742 q 274 701 342 715 q 271 707 272 704 q 267 713 269 710 q 264 717 265 715 q 410 847 269 721 q 518 867 471 903 q 546 797 554 840 q 479 742 536 754 m 557 667 q 687 613 632 664 q 767 488 742 563 q 790 324 792 413 q 764 165 789 238 q 685 43 739 92 q 557 -6 631 -6 q 368 69 438 -6 l 368 -144 q 390 -196 368 -175 q 442 -217 411 -217 l 442 -240 l 94 -306 l 94 504 q 73 556 94 535 q 21 576 51 576 l 21 600 l 368 667 l 368 590 q 557 667 440 669 m 431 65 q 483 119 461 65 q 509 252 504 174 q 509 408 514 331 q 483 541 504 486 q 431 594 461 596 q 368 556 397 593 l 368 106 q 431 65 397 67 z "},"Ṗ":{"ha":822,"x_min":25,"x_max":804,"o":"m 491 1040 q 475 1024 491 1040 q 413 1008 458 1008 q 335 1040 368 1008 q 303 1117 303 1072 q 335 1195 303 1163 q 413 1228 368 1228 q 491 1196 458 1228 q 524 1118 524 1164 q 491 1040 524 1072 m 474 972 q 613 951 550 972 q 716 895 676 931 q 778 817 756 860 q 801 726 800 774 q 718 547 804 622 q 474 471 632 471 l 372 471 l 372 96 q 394 44 372 65 q 446 24 415 24 l 446 0 l 25 0 l 25 24 q 77 44 56 24 q 99 96 99 65 l 99 863 q 80 924 99 900 q 25 949 61 949 l 25 972 l 474 972 m 372 494 q 482 558 443 494 q 524 710 521 622 q 485 877 525 806 q 372 949 444 949 l 372 494 z "},"ṗ":{"ha":829,"x_min":21,"x_max":792,"o":"m 557 667 q 687 615 632 667 q 767 488 742 564 q 790 324 792 413 q 764 165 789 238 q 685 43 739 92 q 557 -6 631 -6 q 368 69 438 -6 l 368 -144 q 390 -196 368 -175 q 442 -217 411 -217 l 442 -240 l 94 -306 l 94 504 q 73 556 94 535 q 21 576 51 576 l 21 600 l 368 667 l 368 590 q 557 667 436 667 m 431 65 q 483 119 461 65 q 509 252 504 174 q 509 408 514 331 q 483 541 504 486 q 431 594 461 596 q 368 556 397 593 l 368 106 q 431 65 397 67 m 483 733 q 467 717 483 733 q 406 701 451 701 q 328 733 360 701 q 296 811 296 765 q 328 889 296 857 q 406 921 360 921 q 483 889 451 921 q 515 811 515 857 q 483 733 515 765 z "},"Ẁ":{"ha":1374,"x_min":21,"x_max":1351,"o":"m 613 1049 q 546 1110 551 1061 q 578 1175 540 1153 q 683 1154 625 1206 q 828 1024 754 1090 q 825 1018 826 1021 q 822 1013 824 1015 q 818 1008 819 1010 q 713 1028 782 1015 q 613 1049 644 1042 m 918 972 q 1135 972 979 972 q 1351 972 1290 972 l 1351 949 q 1025 115 1224 949 q 1033 83 1029 94 q 1044 55 1036 71 q 1066 31 1053 39 q 1099 24 1079 24 l 1099 0 l 767 0 l 660 503 q 558 115 611 339 q 566 83 563 94 q 578 55 569 71 q 599 31 586 39 q 632 24 613 24 l 632 0 q 504 0 586 0 q 354 0 422 0 q 226 0 286 0 l 226 24 q 276 108 294 24 l 115 869 q 82 925 108 901 q 21 949 56 949 l 21 972 l 378 972 l 547 169 q 618 469 564 239 q 628 548 626 507 q 626 634 631 589 q 615 712 621 679 q 599 794 610 744 q 471 949 565 949 l 471 972 l 844 972 l 1014 169 q 1029 237 1018 190 q 1047 310 1040 283 q 1064 394 1056 347 q 1079 503 1072 440 q 1088 626 1086 567 q 1081 746 1089 686 q 1056 849 1074 806 q 1003 921 1038 893 q 918 949 968 949 l 918 972 z "},"ẁ":{"ha":1340,"x_min":21,"x_max":1318,"o":"m 596 742 q 529 803 535 754 q 561 869 524 846 q 667 847 608 900 q 811 717 671 843 q 806 710 810 715 q 801 701 803 704 q 596 742 747 713 m 911 667 q 1318 667 1199 667 l 1315 643 q 1167 517 1260 643 q 986 208 1075 390 q 894 0 939 114 l 799 0 l 638 385 l 544 211 q 450 0 501 131 l 354 0 l 115 569 q 21 642 86 642 l 21 667 l 415 667 l 415 642 q 394 633 400 642 q 388 611 388 624 q 390 588 388 599 q 394 571 392 578 l 533 240 l 626 413 l 561 568 q 465 642 531 642 l 465 667 l 860 667 l 860 642 q 838 633 844 642 q 832 610 831 624 q 836 584 833 596 q 843 561 839 572 l 978 242 q 1031 445 1024 354 q 1008 589 1039 536 q 911 642 978 642 l 911 667 z "},"Ẃ":{"ha":1374,"x_min":21,"x_max":1351,"o":"m 760 1049 q 554 1008 714 1039 q 546 1024 551 1014 q 591 1065 567 1043 q 644 1113 615 1086 q 690 1154 674 1139 q 800 1172 751 1208 q 826 1104 835 1146 q 760 1049 818 1060 m 918 972 q 1135 972 981 972 q 1351 972 1290 972 l 1351 949 q 1291 907 1324 949 q 1228 790 1258 865 q 1168 633 1197 715 q 1110 449 1139 551 q 1063 272 1082 346 q 1025 115 1044 197 q 1031 90 1029 99 q 1039 66 1033 81 q 1051 44 1044 51 q 1071 30 1058 36 q 1099 24 1083 24 l 1099 0 l 767 0 l 660 503 q 558 115 610 335 q 566 83 563 94 q 578 55 569 71 q 599 31 586 39 q 632 24 613 24 l 632 0 l 226 0 l 226 24 q 276 108 294 24 l 115 869 q 82 925 108 901 q 21 949 56 949 l 21 972 l 378 972 l 547 169 q 581 314 557 213 q 618 469 606 415 q 627 535 625 500 q 628 599 629 569 q 622 666 628 628 q 612 730 617 704 q 599 794 607 756 q 471 949 567 949 l 471 972 l 846 972 l 1014 169 q 1029 235 1018 188 q 1047 310 1040 283 q 1067 412 1058 356 q 1084 544 1076 468 q 1087 688 1092 619 q 1067 817 1082 757 q 1014 913 1051 876 q 918 949 976 949 l 918 972 z "},"ẃ":{"ha":1340,"x_min":21,"x_max":1319,"o":"m 743 742 q 538 701 607 715 q 533 709 536 704 q 529 717 531 714 q 674 847 533 721 q 783 867 735 903 q 810 797 818 840 q 743 742 801 754 m 911 667 q 1319 667 1199 667 l 1315 643 q 1167 517 1260 643 q 986 208 1075 390 q 894 0 939 114 l 799 0 l 638 385 l 544 211 q 450 0 501 131 l 354 0 l 115 569 q 21 642 86 642 l 21 667 l 415 667 l 415 642 q 394 633 401 642 q 388 611 388 624 q 390 588 388 599 q 394 571 392 578 l 533 240 l 626 413 l 561 568 q 465 642 531 642 l 465 667 l 860 667 l 860 642 q 838 633 844 642 q 833 610 832 624 q 836 584 833 596 q 843 561 839 572 l 978 242 q 1031 445 1024 354 q 1008 589 1039 536 q 911 642 978 642 l 911 667 z "},"Ẍ":{"ha":943,"x_min":21,"x_max":921,"o":"m 824 96 q 866 45 839 67 q 921 24 893 24 l 921 0 l 475 0 l 475 24 q 539 49 518 24 q 539 113 560 75 l 399 371 q 362 294 379 338 q 335 202 344 250 q 327 115 325 154 q 351 49 329 75 q 415 24 374 24 l 415 0 l 49 0 l 49 24 q 127 74 75 24 q 224 181 179 125 q 324 308 269 238 q 388 390 378 379 l 122 876 q 78 927 106 906 q 21 949 50 949 l 21 972 l 469 972 l 469 949 q 422 938 442 949 q 397 906 403 926 q 406 858 392 886 l 547 601 q 591 702 572 646 q 617 815 610 758 q 603 910 624 871 q 529 949 582 949 l 529 972 l 896 972 l 896 949 q 846 924 876 949 q 776 855 815 900 q 703 769 736 810 q 625 668 671 728 q 558 582 579 608 l 824 96 z "},"ẍ":{"ha":810,"x_min":21,"x_max":789,"o":"m 789 642 q 759 634 775 642 q 724 608 743 626 q 688 573 704 590 q 647 526 671 556 q 606 476 622 496 q 563 419 590 456 q 521 365 535 383 q 573 281 539 336 q 635 181 607 226 q 688 96 663 136 q 733 45 706 67 q 789 24 761 24 l 789 0 l 404 0 l 404 24 q 426 35 421 25 q 425 64 431 46 q 410 100 419 82 q 388 140 401 118 q 300 282 356 192 q 267 203 279 246 q 253 120 254 161 q 275 51 253 79 q 343 24 297 24 l 343 0 l 21 0 l 21 24 q 51 32 35 24 q 86 58 67 40 q 122 92 106 75 q 163 140 139 110 q 203 190 188 169 q 247 247 219 211 q 289 300 275 283 q 122 571 131 556 q 76 621 104 600 q 21 642 49 642 l 21 667 l 404 667 l 404 642 q 383 630 389 640 q 384 601 378 619 q 399 565 390 583 q 422 525 408 547 q 510 385 454 475 q 543 463 531 419 q 556 547 556 506 q 535 615 557 588 q 467 642 513 642 l 467 667 l 789 667 l 789 642 m 604 733 q 588 717 604 733 q 526 701 572 701 q 449 733 481 701 q 417 811 417 765 q 431 867 417 842 q 472 906 446 892 q 527 921 497 921 q 582 906 557 921 q 622 867 607 892 q 636 811 636 842 q 604 733 636 765 m 360 733 q 344 717 360 733 q 283 701 328 701 q 205 733 238 701 q 172 811 172 765 q 205 889 172 857 q 283 921 238 921 q 360 889 328 921 q 393 811 393 857 q 360 733 393 765 z "},"Ẕ":{"ha":814,"x_min":21,"x_max":793,"o":"m 572 -64 l 242 -64 l 242 -39 l 572 -39 l 572 -64 m 719 419 q 719 384 719 414 q 718 335 718 354 q 719 283 718 317 q 722 224 719 249 q 726 169 724 200 q 735 117 729 139 q 748 74 740 94 q 767 40 756 53 q 793 24 779 28 l 793 0 l 94 0 l 94 24 l 426 942 q 204 820 283 919 q 118 551 125 721 l 94 551 q 94 588 94 558 q 94 637 94 618 q 94 690 94 656 q 92 747 94 724 q 88 803 90 771 q 78 856 85 835 q 65 899 72 878 q 46 932 57 919 q 21 949 35 944 l 21 972 l 719 972 l 719 949 l 388 31 q 609 152 529 53 q 696 419 689 251 l 719 419 z "},"ẕ":{"ha":751,"x_min":22,"x_max":729,"o":"m 540 -64 l 210 -64 l 210 -39 l 540 -39 l 540 -64 m 654 326 q 729 24 654 43 l 729 0 l 31 0 l 31 24 l 393 629 q 198 527 275 603 q 121 339 121 451 l 96 339 q 22 642 96 622 l 22 667 l 721 667 l 721 642 q 608 451 668 553 q 473 227 547 350 q 358 36 399 104 q 553 139 476 64 q 631 328 631 214 l 654 326 z "},"᾿":{"ha":314,"x_min":47,"x_max":264,"o":"m 157 972 q 233 940 203 972 q 264 863 264 908 q 260 829 264 849 q 247 786 256 810 q 232 743 239 763 q 216 700 225 724 q 204 669 207 676 l 182 678 l 214 769 q 157 753 188 753 q 79 785 111 753 q 47 863 47 817 q 62 918 47 893 q 102 958 76 943 q 157 972 128 972 z "},"‘":{"ha":313,"x_min":49,"x_max":265,"o":"m 156 890 q 233 858 201 890 q 265 779 265 825 q 251 724 265 750 q 210 684 236 699 q 155 669 185 669 q 101 685 125 669 q 63 725 76 700 q 49 781 49 750 q 53 813 49 793 q 66 857 58 833 q 81 900 74 881 q 97 942 88 919 q 108 972 106 965 l 131 964 l 99 874 q 156 890 125 890 z "},"“":{"ha":554,"x_min":49,"x_max":506,"o":"m 156 890 q 233 858 201 890 q 265 779 265 825 q 251 724 265 750 q 210 684 236 699 q 155 669 185 669 q 101 685 125 669 q 63 725 76 700 q 49 781 49 750 q 53 813 49 793 q 66 857 58 833 q 81 900 74 881 q 97 942 88 919 q 108 972 106 965 l 131 964 l 99 874 q 156 890 125 890 m 396 890 q 474 858 442 890 q 506 780 506 825 q 474 702 506 735 q 396 669 442 669 q 319 702 350 669 q 289 781 289 735 q 294 813 289 793 q 306 857 299 833 q 322 900 314 881 q 338 942 329 919 q 349 972 347 965 l 372 964 l 339 874 q 396 890 365 890 z "},"”":{"ha":554,"x_min":47,"x_max":504,"o":"m 397 972 q 474 940 443 972 q 504 863 504 908 q 497 817 504 846 q 481 765 489 788 q 459 709 472 743 q 444 669 446 675 l 422 678 l 456 769 q 397 753 429 753 q 320 785 353 753 q 288 863 288 817 q 320 940 288 908 q 397 972 353 972 m 157 972 q 233 940 203 972 q 264 863 264 908 q 256 817 264 846 q 240 765 249 788 q 219 709 232 743 q 204 669 206 675 l 182 678 l 214 769 q 157 753 188 753 q 79 785 111 753 q 47 863 47 817 q 79 940 47 908 q 157 972 111 972 z "},"†":{"ha":546,"x_min":35,"x_max":511,"o":"m 285 746 l 511 746 l 511 722 l 285 722 l 285 0 l 261 0 l 261 722 l 35 722 l 35 746 l 261 746 l 261 972 l 285 972 l 285 746 z "},"‡":{"ha":564,"x_min":43,"x_max":519,"o":"m 519 746 l 519 722 l 293 722 l 293 251 l 519 251 l 519 226 l 293 226 l 293 0 l 269 0 l 269 226 l 43 226 l 43 250 l 269 250 l 269 722 l 43 722 l 43 746 l 269 746 l 269 972 l 293 972 l 293 746 l 519 746 z "},"‰":{"ha":2207,"x_min":53,"x_max":2154,"o":"m 1596 644 q 1644 700 1596 644 q 1827 756 1692 756 q 2058 644 1963 756 q 2154 377 2154 533 q 2058 110 2154 221 q 1827 0 1963 0 q 1596 110 1692 0 q 1500 377 1500 221 q 1596 644 1500 533 m 1746 124 q 1763 72 1746 124 q 1826 19 1779 19 q 1908 124 1874 19 q 1942 378 1942 228 q 1908 632 1942 528 q 1826 736 1874 736 q 1746 632 1779 736 q 1713 378 1713 528 q 1746 124 1713 228 m 149 862 q 197 917 149 862 q 380 972 244 972 q 611 862 515 972 q 707 595 707 751 q 611 328 707 439 q 380 218 515 218 q 149 328 244 218 q 53 595 53 439 q 149 862 53 751 m 299 341 q 316 289 299 341 q 381 236 333 236 q 461 341 428 236 q 494 596 494 446 q 461 850 494 746 q 381 954 428 954 q 299 850 333 954 q 265 596 265 746 q 299 341 265 446 m 894 644 q 942 700 894 644 q 1126 756 990 756 q 1357 644 1261 756 q 1453 377 1453 533 q 1357 110 1453 221 q 1126 0 1261 0 q 894 110 990 0 q 799 377 799 221 q 894 644 799 533 m 1044 124 q 1061 72 1044 124 q 1126 19 1078 19 q 1207 124 1174 19 q 1240 378 1240 228 q 1207 632 1240 528 q 1126 736 1174 736 q 1044 632 1078 736 q 1011 378 1011 528 q 1044 124 1011 228 m 856 972 l 879 972 l 650 0 l 626 0 l 856 972 z "},"′":{"ha":364,"x_min":38,"x_max":328,"o":"m 182 940 q 292 960 243 996 q 318 892 328 933 q 253 836 310 847 q 149 815 218 829 q 47 794 81 801 q 38 811 42 803 q 182 940 42 814 z "},"″":{"ha":456,"x_min":38,"x_max":424,"o":"m 294 957 q 392 953 351 993 q 407 881 424 921 q 344 836 393 846 q 241 815 310 829 q 139 794 172 801 q 129 811 136 800 l 47 794 q 38 811 42 803 q 182 940 42 814 q 246 972 214 969 q 294 957 278 975 z "},"‼":{"ha":713,"x_min":-68,"x_max":781,"o":"m 124 188 q 140 205 124 188 q 201 221 156 221 q 280 188 247 221 q 312 110 313 156 q 279 33 311 65 q 202 0 247 0 q 124 33 157 0 q 92 110 92 65 q 124 188 92 156 m 201 990 q 224 272 472 990 q 214 244 217 253 l 190 244 q 179 274 188 253 q 201 990 -68 990 m 522 244 l 497 244 q 489 272 496 253 q 510 990 239 990 q 532 272 781 990 q 522 244 525 253 m 510 221 q 588 188 556 221 q 619 110 619 156 q 588 33 619 65 q 510 0 556 0 q 432 33 464 0 q 400 111 400 65 q 415 165 400 140 q 455 206 429 190 q 510 221 481 221 z "},"⁰":{"ha":528,"x_min":53,"x_max":475,"o":"m 264 972 q 369 940 321 972 q 447 852 418 908 q 475 729 475 796 q 413 558 475 629 q 264 486 351 486 q 115 558 176 486 q 53 729 53 629 q 69 824 53 779 q 115 902 86 869 q 182 953 143 935 q 264 972 221 972 m 264 499 q 316 566 294 499 q 338 730 338 633 q 316 894 338 826 q 264 961 294 961 q 212 894 233 961 q 190 729 190 826 q 200 613 190 667 q 226 529 210 560 q 264 499 243 499 z "},"⁴":{"ha":476,"x_min":47,"x_max":425,"o":"m 425 781 q 399 770 410 781 q 389 744 389 760 l 389 696 l 425 696 l 425 683 l 389 683 l 389 535 q 399 509 389 519 q 425 499 410 499 l 425 486 l 215 486 l 215 499 q 233 503 225 499 q 247 517 242 508 q 251 535 251 525 l 251 683 l 47 683 l 47 696 q 97 751 89 696 q 90 863 104 806 q 63 943 76 921 q 167 972 125 972 q 244 890 239 974 q 208 761 250 811 q 94 696 167 711 l 251 696 l 251 793 l 425 793 l 425 781 z "},"⁵":{"ha":460,"x_min":50,"x_max":408,"o":"m 101 739 q 188 764 136 760 q 289 756 240 768 q 373 707 338 743 q 408 619 408 671 q 353 520 407 554 q 229 486 300 486 q 103 519 156 486 q 50 606 51 551 q 74 654 50 635 q 126 672 99 674 q 172 658 154 671 q 171 597 168 629 q 186 522 172 547 q 218 499 200 497 q 259 539 243 500 q 274 625 275 578 q 216 736 271 706 q 96 719 161 767 l 88 728 l 129 972 l 356 972 l 356 799 l 343 799 q 338 817 343 808 q 325 830 333 825 q 307 835 317 835 l 118 835 l 101 739 z "},"⁶":{"ha":467,"x_min":51,"x_max":426,"o":"m 196 688 q 253 713 218 704 q 322 719 288 721 q 381 694 356 717 q 410 632 407 672 q 397 565 413 597 q 346 509 382 532 q 261 486 310 486 q 109 556 164 486 q 53 724 54 626 q 106 898 51 824 q 261 972 161 972 q 394 896 354 972 q 397 778 426 832 q 317 735 372 733 q 282 747 294 735 q 290 900 292 839 q 261 961 288 961 q 209 876 226 961 q 196 688 192 792 m 261 499 q 286 533 276 499 q 292 607 296 567 q 263 678 288 658 q 197 674 238 699 q 219 549 201 599 q 261 499 236 499 z "},"⁷":{"ha":426,"x_min":50,"x_max":378,"o":"m 378 972 l 378 835 q 263 533 260 693 q 267 515 263 524 q 281 503 272 507 q 299 499 289 499 l 299 486 l 89 486 l 89 499 q 114 508 103 499 q 126 531 125 517 q 197 715 132 633 q 365 835 261 796 l 365 835 l 365 835 l 365 835 l 365 835 l 364 835 l 364 835 l 363 835 l 363 835 l 361 835 l 361 835 l 360 835 l 358 835 l 358 835 l 357 835 l 356 835 l 354 835 l 353 835 l 351 835 l 350 835 l 349 835 l 347 835 l 346 835 l 344 835 l 343 835 l 342 835 l 340 835 l 339 835 l 338 835 l 336 835 l 335 835 l 333 835 l 332 835 l 331 835 l 329 835 l 328 835 l 326 835 l 325 835 l 324 835 l 322 835 l 321 835 l 319 835 l 318 835 l 317 835 l 315 835 l 314 835 l 313 835 l 311 835 l 310 835 l 308 835 l 307 835 l 306 835 l 304 835 l 303 835 l 301 835 l 300 835 l 299 835 l 297 835 l 296 835 l 294 835 l 293 835 l 292 835 l 290 835 l 289 835 l 288 835 l 286 835 l 285 835 l 283 835 l 281 835 l 279 835 l 278 835 l 276 835 l 275 835 l 274 835 l 272 835 l 271 835 l 269 835 l 268 835 l 267 835 l 264 835 l 263 835 l 261 835 l 260 835 l 258 835 l 257 835 l 256 835 l 254 835 l 251 835 l 250 835 l 249 835 l 247 835 l 246 835 l 244 835 l 242 835 l 240 835 l 239 835 l 238 835 l 236 835 l 233 835 l 232 835 l 231 835 l 229 835 l 228 835 l 225 835 l 224 835 l 222 835 l 221 835 l 219 835 l 217 835 l 215 835 l 214 835 l 213 835 l 211 835 l 208 835 l 207 835 l 206 835 l 204 835 l 201 835 l 200 835 l 199 835 l 197 835 l 194 835 l 193 835 l 192 835 l 190 835 l 188 835 l 186 835 l 185 835 l 183 835 l 181 835 l 179 835 l 178 835 l 176 835 l 174 835 l 172 835 l 171 835 l 169 835 l 167 835 l 165 835 l 164 835 l 163 835 l 160 835 l 158 835 l 157 835 l 156 835 l 153 835 l 151 835 l 150 835 l 149 835 l 146 835 l 144 835 l 143 835 l 142 835 l 139 835 l 138 835 l 136 835 l 135 835 l 133 835 l 131 835 l 129 835 l 128 835 l 126 835 l 125 835 l 122 835 l 121 835 l 119 835 l 118 835 l 117 835 l 115 835 l 113 835 l 111 835 l 99 835 q 73 824 83 835 q 63 799 63 814 l 50 799 l 50 972 l 378 972 z "},"⁸":{"ha":489,"x_min":53,"x_max":436,"o":"m 292 725 q 398 688 360 721 q 435 611 436 654 q 378 519 435 551 q 244 486 321 486 q 160 497 201 486 q 86 539 119 508 q 53 613 53 569 q 90 688 53 656 q 194 726 128 721 l 194 735 q 130 758 157 740 q 90 799 103 775 q 79 849 78 822 q 130 941 81 908 q 246 973 179 974 q 360 939 313 972 q 408 846 408 906 q 378 774 408 806 q 292 735 347 742 l 292 725 m 246 961 q 223 931 233 961 q 211 847 213 900 q 214 794 211 818 q 224 753 217 769 q 243 736 232 736 q 268 769 260 736 q 276 846 276 801 q 267 931 276 900 q 246 961 258 961 m 244 499 q 281 528 265 499 q 297 611 296 558 q 283 690 297 657 q 243 724 269 724 q 205 691 218 724 q 192 613 192 658 q 208 528 193 558 q 244 499 224 499 z "}}}
